<svg width="279" height="186" viewBox="0 0 279 186" fill="none" xmlns="http://www.w3.org/2000/svg">
<g clip-path="url(#clip0_52_2162)">
<path opacity="0.1" d="M162.101 30.6654C144.215 30.0431 127.181 24.2974 110.925 18.0041C94.6684 11.7109 78.5452 4.73736 61.0877 1.40379C49.8465 -0.740604 37.0047 -1.04212 27.9575 4.95687C19.2517 10.7267 16.4378 20.6888 14.9267 29.9297C13.7886 36.8839 13.1202 44.2048 16.2368 50.7127C18.4017 55.2331 22.2449 59.0322 24.9038 63.362C34.1592 78.4234 27.6209 96.9992 17.5929 111.708C12.8901 118.607 7.43663 125.19 3.80904 132.535C0.181451 139.88 -1.49673 148.296 1.67801 155.788C4.82612 163.212 12.321 168.792 20.4432 172.714C36.9393 180.674 56.3776 182.963 75.3317 184.256C117.291 187.114 159.473 185.877 201.544 184.637C217.113 184.179 232.752 183.713 248.066 181.316C256.573 179.984 265.354 177.871 271.529 172.767C279.368 166.29 281.31 155.322 276.058 147.198C267.248 133.574 242.881 130.193 236.728 115.57C233.338 107.523 236.82 98.5575 241.746 91.0943C252.314 75.0826 270.025 61.0367 270.96 42.7334C271.599 30.1637 263.085 17.5772 249.919 11.6168C236.115 5.38382 216.985 6.16776 206.802 16.4869C196.318 27.1244 177.895 31.213 162.101 30.6654Z" fill="#FAFAFF"/>
<g opacity="0.5">
<path opacity="0.5" d="M121.265 97.1077L113.163 97.2741L111.838 99.0856V105.345L113.492 106.498H121.265L122.919 104.687V98.7552L121.265 97.1077Z" fill="#FAFAFF"/>
<path opacity="0.2" d="M121.096 98.0968C121.096 98.0968 113.654 99.2498 112.993 98.0968L113.16 97.2743L121.096 97.1006V98.0968Z" fill="white"/>
<path opacity="0.5" d="M121.926 115.228L123.249 116.547V122.819L121.926 124.117C121.926 124.117 117.132 125.764 113.988 124.445L112.499 122.964V116.692L113.824 115.208L121.926 115.228Z" fill="#FAFAFF"/>
<path opacity="0.2" d="M121.594 116.711C121.594 116.711 115.807 118.028 113.823 116.711V115.228H121.926L121.594 116.711Z" fill="white"/>
<path opacity="0.5" d="M118.783 106.455V115.365C118.764 115.718 118.606 116.049 118.342 116.286C118.079 116.523 117.732 116.646 117.378 116.629C117.024 116.646 116.677 116.523 116.414 116.286C116.151 116.049 115.992 115.718 115.974 115.365V106.455C115.974 105.698 116.7 105.111 117.543 105.198C117.869 105.218 118.176 105.358 118.405 105.59C118.634 105.822 118.768 106.13 118.783 106.455Z" fill="#FAFAFF"/>
<path opacity="0.5" d="M134.243 97.3635L126.14 97.5275L124.815 99.3391V105.599L126.469 106.752H134.243L135.897 104.94V99.0086L134.243 97.3635Z" fill="#FAFAFF"/>
<path opacity="0.2" d="M134.075 98.3501C134.075 98.3501 126.634 99.5031 125.973 98.3501L126.137 97.5275L134.075 97.3635V98.3501Z" fill="white"/>
<path opacity="0.5" d="M134.899 115.481L136.221 116.8V123.072L134.899 124.377C134.899 124.377 130.102 126.024 126.961 124.705L125.472 123.224V116.964L126.796 115.481H134.899Z" fill="#FAFAFF"/>
<path opacity="0.2" d="M134.572 116.964C134.572 116.964 128.784 118.281 126.801 116.964V115.481H134.899L134.572 116.964Z" fill="white"/>
<path opacity="0.5" d="M131.751 106.708V115.619C131.732 115.971 131.573 116.302 131.31 116.539C131.047 116.775 130.701 116.899 130.346 116.883C129.992 116.9 129.645 116.776 129.381 116.54C129.118 116.303 128.959 115.972 128.939 115.619V106.708C128.939 105.951 129.666 105.365 130.511 105.451C130.837 105.471 131.144 105.611 131.373 105.843C131.602 106.075 131.737 106.383 131.751 106.708Z" fill="#FAFAFF"/>
<path opacity="0.5" d="M150.763 102.127L144.092 102.265L143.002 103.756V108.908L144.363 109.858H150.763L152.124 108.365V103.483L150.763 102.127Z" fill="#FAFAFF"/>
<path opacity="0.2" d="M150.625 102.943C150.625 102.943 144.501 103.891 143.956 102.943L144.092 102.265L150.63 102.127L150.625 102.943Z" fill="white"/>
<path opacity="0.5" d="M151.306 117.044L152.395 118.13V123.282L151.306 124.367C151.306 124.367 147.358 125.723 144.767 124.638L143.542 123.417V118.265L144.632 117.044H151.306Z" fill="#FAFAFF"/>
<path opacity="0.2" d="M151.035 118.265C151.035 118.265 146.269 119.35 144.637 118.265V117.044H151.306L151.035 118.265Z" fill="white"/>
<path opacity="0.5" d="M148.719 109.822V117.158C148.703 117.448 148.573 117.721 148.356 117.916C148.139 118.11 147.853 118.212 147.561 118.197C147.27 118.212 146.984 118.11 146.768 117.915C146.551 117.72 146.421 117.448 146.406 117.158V109.822C146.415 109.667 146.457 109.516 146.529 109.377C146.6 109.239 146.7 109.118 146.822 109.02C146.943 108.923 147.084 108.852 147.235 108.812C147.385 108.772 147.543 108.763 147.697 108.787C147.965 108.804 148.218 108.919 148.407 109.11C148.596 109.301 148.707 109.555 148.719 109.822Z" fill="#FAFAFF"/>
<path opacity="0.5" d="M161.444 102.337L154.773 102.472L153.686 103.963V109.118L155.047 110.066H161.444L162.805 108.575V103.693L161.444 102.337Z" fill="#FAFAFF"/>
<path opacity="0.2" d="M161.309 103.15C161.309 103.15 155.183 104.101 154.638 103.15L154.773 102.472L161.312 102.337L161.309 103.15Z" fill="white"/>
<path opacity="0.5" d="M161.99 117.254L163.077 118.337V123.489L161.99 124.575C161.99 124.575 158.04 125.93 155.451 124.847L154.229 123.634V118.474L155.318 117.254H161.99Z" fill="#FAFAFF"/>
<path opacity="0.2" d="M161.716 118.474C161.716 118.474 156.953 119.558 155.318 118.474V117.254H161.99L161.716 118.474Z" fill="white"/>
<path opacity="0.5" d="M159.403 110.03V117.362C159.387 117.653 159.257 117.926 159.04 118.12C158.823 118.315 158.537 118.417 158.245 118.402C157.954 118.417 157.668 118.315 157.451 118.12C157.234 117.926 157.104 117.653 157.088 117.362V110.03C157.088 109.407 157.693 108.925 158.381 108.997C158.649 109.013 158.902 109.127 159.091 109.318C159.28 109.509 159.391 109.762 159.403 110.03Z" fill="#FAFAFF"/>
</g>
<path d="M254.043 128.958C253.522 128.019 252.549 127.402 251.525 127.117C250.488 126.869 249.416 126.802 248.357 126.92C246.646 127.041 244.949 127.319 243.289 127.752C242.259 128.022 241.192 128.384 240.497 129.199C240.477 129.223 240.455 129.252 240.434 129.276C239.37 129.554 238.315 129.981 237.285 130.328C236.253 130.669 235.202 130.953 234.137 131.179C235.53 130.391 236.886 129.556 238.034 128.442C238.576 127.917 239.063 127.338 239.487 126.714C240.273 126.939 241.099 126.994 241.908 126.876C243.548 126.596 244.872 125.429 246.105 124.29L250.069 120.658C250.701 120.079 251.343 119.485 251.764 118.728C252.333 117.674 252.384 116.419 252.399 115.216C252.418 113.561 252.399 111.906 252.35 110.254L253.605 111.219C253.414 109.181 253.795 107.13 254.704 105.295C255.14 104.419 255.712 103.548 255.724 102.567C255.743 101.052 254.435 99.8601 253.096 99.1896C251.757 98.519 250.251 98.0896 249.154 97.0596C247.522 95.5279 247.217 93.0844 246.41 90.9859C245.932 89.8369 245.365 88.7264 244.715 87.6644L243.146 84.9386C242.357 83.5023 241.477 82.1173 240.511 80.7922C238.879 78.6478 236.823 76.8797 234.782 75.1309L224.165 66.0202C221.584 63.8035 218.993 61.5843 216.2 59.645C210.536 55.7108 204.146 53.0092 197.796 50.3341C196.198 49.6587 194.534 48.9737 192.805 49.0557C191.503 49.1397 190.269 49.6659 189.308 50.5464C188.398 50.2711 187.508 49.9342 186.645 49.5381L186.577 49.5067C186.596 49.3644 186.618 49.2245 186.632 49.0822C186.654 48.8941 186.666 48.7059 186.681 48.5153C187.159 48.4419 187.622 48.2912 188.051 48.0691C188.269 47.9665 188.462 47.8175 188.616 47.6325C188.811 47.3104 188.911 46.94 188.904 46.5639C189.098 44.0432 189.291 41.4984 189.083 38.9898C188.875 36.4812 188.243 33.9412 186.904 31.8089C186.49 31.148 185.971 30.5039 185.252 30.2169C184.283 29.8309 183.162 30.1903 182.128 30.0167C180.339 29.7151 179.222 27.9712 177.927 26.6855C174.65 23.4315 169.047 22.9419 165.264 25.5759C163.83 26.5769 162.683 27.935 161.404 29.1314C160.125 30.3278 158.626 31.4109 156.9 31.6449C156.581 31.6583 156.27 31.7406 155.987 31.8861C155.633 32.108 155.473 32.5349 155.338 32.9305C154.853 34.2958 154.388 35.6972 154.241 37.1252C154.224 37.0384 154.209 36.9516 154.195 36.8647C154.129 37.3936 154.115 37.9276 154.154 38.4591C154.202 39.1366 154.399 39.7952 154.73 40.3889C155.006 40.9532 155.476 41.4001 156.055 41.648C156.464 41.7923 156.896 41.8618 157.331 41.853H157.522C157.452 42.0388 157.384 42.2245 157.321 42.4126C156.782 44.0067 156.508 45.6778 156.51 47.3599C156.51 55.8024 163.273 62.6432 171.623 62.6432C172.628 62.6384 173.63 62.5333 174.614 62.3297C174.941 62.4334 175.268 62.5395 175.583 62.6529C176.227 62.8651 176.859 63.1131 177.476 63.3958C177.738 63.5189 178.796 64.1339 180.075 64.9275L179.987 65.1085C178.74 66.269 177.825 67.7391 177.336 69.368C176.847 70.997 176.802 72.7262 177.205 74.3783C178.13 77.9651 181.164 81.0406 180.859 84.7336C180.816 85.2595 180.704 85.7925 180.794 86.3136C180.917 87.0372 181.409 87.6258 181.901 88.1613C182.327 88.6292 182.77 89.0827 183.22 89.5265C183.184 91.8832 182.978 94.2374 182.755 96.5869C182.736 96.7919 182.731 96.9993 182.729 97.2092C182.742 98.2249 183.112 99.204 183.775 99.9759C184.477 100.827 184.758 102.103 184.625 103.242C184.434 104.873 183.627 106.351 183.087 107.897C180.651 114.852 183.644 122.693 181.959 129.874C181.545 131.642 180.847 133.362 180.748 135.181C180.692 136.317 180.871 137.509 180.433 138.558C180.053 139.47 179.261 140.128 178.513 140.768C177.455 141.67 176.425 142.602 175.423 143.566C173.907 142.74 172.343 142.007 170.739 141.371C170.478 141.266 170.211 141.174 169.94 141.096C168.046 139.33 165.659 138.201 163.416 136.903C161.556 135.83 159.784 134.624 158.002 133.418C156.306 132.26 154.575 131.093 153.141 129.604C152.415 128.852 151.768 128.022 150.986 127.334C150.299 126.764 149.57 126.245 148.807 125.781C145.371 123.564 142.095 121.11 139.004 118.436C136.648 116.4 134.72 113.778 132.202 111.952C130.659 110.833 128.865 109.813 126.976 110.022C126.374 110.093 125.791 110.272 125.254 110.551C124.753 110.339 124.218 110.22 123.675 110.199C122.14 110.15 120.73 110.98 119.413 111.779C111.664 116.469 103.794 120.951 95.8022 125.224C94.1894 126.087 92.5669 126.944 91.0267 127.933C88.0217 129.869 85.359 132.287 83.1468 135.089C82.74 135.603 82.2266 136.187 81.58 136.11C81.403 136.083 81.2328 136.022 81.0787 135.931C80.0834 135.393 79.4732 134.354 78.8993 133.367C78.4827 132.644 78.0323 131.889 77.4221 131.339C77.2914 130.996 77.1173 130.672 76.9038 130.374C77.7635 128.261 78.5045 126.097 79.1923 123.919C79.5507 122.775 79.897 121.625 80.3547 120.515C81.4831 117.77 83.2824 115.283 83.9193 112.379C84.0718 111.677 84.1614 110.956 84.2801 110.247C91.2423 108.882 96.4972 102.687 96.4972 95.2481C96.4972 86.8056 89.7312 79.9648 81.3839 79.9648C73.0365 79.9648 66.2729 86.8056 66.2729 95.2481C66.2654 97.8178 66.9069 100.348 68.1384 102.606C69.3698 104.864 71.1516 106.778 73.3198 108.17C73.3198 108.199 73.3198 108.228 73.3198 108.254C73.3053 108.739 73.2576 109.223 73.177 109.702C72.8985 111.318 72.2083 112.837 71.5133 114.311C71.0532 115.298 70.5931 116.289 70.116 117.273C69.8871 117.228 69.665 117.153 69.4549 117.051C69.0457 116.825 68.8665 116.328 68.7115 115.889C68.0256 113.877 67.1861 111.921 66.2003 110.037C65.8157 109.236 65.3272 108.489 64.7473 107.815C63.7254 106.701 62.3257 106.04 60.972 105.372C60.7298 105.256 60.5046 105.131 60.2721 105.02C60.071 104.871 59.8608 104.735 59.6425 104.612C58.5165 103.978 57.2669 103.522 56.3273 102.634C55.6226 101.968 55.1383 101.102 54.4796 100.396C53.3826 99.2209 51.8691 98.5503 50.3992 97.9111C49.6339 97.5782 48.83 97.2381 47.9945 97.284C47.8768 97.2897 47.7595 97.3026 47.6434 97.3226C47.4425 97.3567 47.2436 97.4018 47.0477 97.4576C46.857 97.3568 46.6769 97.2372 46.5101 97.1006C45.6116 96.4108 45.2629 95.2264 44.9699 94.1241C44.4856 92.2812 43.9746 90.3732 44.2749 88.4869C44.3272 88.1615 44.3983 87.8393 44.488 87.522C44.5631 87.399 44.6357 87.2808 44.7011 87.1482C46.6291 86.5709 48.3907 85.5431 49.8391 84.1504C51.2875 82.7576 52.3807 81.0402 53.0278 79.1414C53.6749 77.2425 53.857 75.217 53.559 73.2338C53.261 71.2506 52.4914 69.3671 51.3146 67.7401C51.1911 67.5712 51.0724 67.4072 50.9344 67.2432L51.0797 67.1636C52.4188 66.3483 52.7239 64.3993 52.104 62.9472C51.4841 61.4951 50.1667 60.4699 48.8324 59.6643C48.6387 59.5461 48.4425 59.4351 48.2439 59.3241L48.0744 59.2325C47.9243 59.1505 47.7766 59.0709 47.6264 58.9913L47.4496 58.902C47.2729 58.8128 47.0961 58.7283 46.9193 58.6463L46.8394 58.6077C46.619 58.5088 46.3987 58.4124 46.1759 58.3207C45.9603 58.2314 45.7448 58.1494 45.5269 58.0795L45.4373 58.0457C45.2314 57.9709 45.0232 57.901 44.8149 57.8334L44.7689 57.819C43.2457 57.3258 41.6578 57.0592 40.0564 57.0278C38.4889 57.0371 36.9265 57.2093 35.3948 57.5416C33.9035 57.8105 32.4432 58.2283 31.0359 58.7887C28.71 59.7704 26.6595 61.3021 25.0617 63.2511C24.725 63.2765 24.3911 63.3314 24.064 63.4151C22.7539 63.7456 21.5746 64.4741 20.497 65.299C19.5944 65.96 18.7947 66.75 18.1238 67.6436C17.3336 68.7886 16.7888 70.0835 16.5231 71.4476C15.6053 75.7243 16.7338 80.1313 17.5644 84.4297C18.395 88.7281 18.8745 93.4125 16.8379 97.2695C16.0703 98.7168 14.9805 99.9735 14.1741 101.394C13.3677 102.815 12.8083 104.53 13.2733 106.105C13.8375 108.018 15.6949 109.222 16.6636 110.958C17.7969 112.982 17.4845 115.701 16.0025 117.471C15.9371 117.548 15.8717 117.626 15.8015 117.712C15.7312 117.799 15.6319 117.891 15.5399 117.973C17.068 118.508 18.7704 117.932 20.141 117.073C21.2372 116.428 22.1668 115.537 22.8556 114.47C24.5871 111.639 23.8098 107.977 24.42 104.704C25.2216 100.417 28.4569 96.5941 28.0113 92.2547C27.711 89.3432 25.8028 86.9094 24.3038 84.4056C23.3074 82.7251 22.4723 80.9548 21.8095 79.1182C21.7829 79.041 21.7562 78.9614 21.7272 78.8769C21.2889 77.6347 20.9523 76.3177 21.1775 75.0175C21.2543 74.5964 21.3811 74.1859 21.5552 73.7946C21.5552 73.8404 21.5552 73.8886 21.5552 73.9345C21.5847 75.192 21.8654 76.431 22.381 77.5792C23.8945 80.715 27.5366 82.1623 29.8493 84.7047C29.9462 84.8108 30.0382 84.9193 30.1302 85.0303C30.1568 85.0592 30.1811 85.0906 30.2053 85.122L30.4014 85.3632L30.4838 85.4766C30.5443 85.561 30.6048 85.6454 30.6605 85.7322L30.7356 85.8408C30.8131 85.9638 30.8906 86.082 30.9632 86.2147C31.5517 85.5658 32.1595 84.8832 32.3968 84.0437C32.4186 83.9714 32.4332 83.8966 32.4477 83.8218C32.4671 83.8411 32.484 83.8628 32.5034 83.8845C32.5494 84.1426 32.5857 84.4007 32.6196 84.6612C32.6196 85.0335 32.6594 85.4046 32.7383 85.7684C32.9223 88.0841 32.7746 90.4624 32.6196 92.7853C32.5373 94.0276 32.8618 95.8729 32.0675 96.7991L32.0433 96.8257C31.9967 96.8797 31.9457 96.9297 31.8907 96.9752C31.7551 97.1151 31.6171 97.2526 31.4887 97.3973C28.8249 100.388 27.6141 104.634 27.6771 108.701C27.7401 113.33 29.2245 117.814 30.9075 122.119C31.4953 123.691 32.1878 125.222 32.9805 126.702C33.3896 127.502 33.9307 128.226 34.5811 128.847C35.2616 129.447 36.0898 129.843 36.9059 130.229C37.1093 130.325 37.3152 130.42 37.5186 130.518L38.0392 130.76L42.0034 132.636C42.7299 133.7 43.4322 134.793 44.1417 135.888C44.2434 136.042 44.3427 136.201 44.4468 136.356C45.2218 137.562 46.0015 138.768 46.7958 139.94L53.4771 149.796C53.9614 150.52 54.4675 151.244 55.148 151.779C55.3416 151.931 55.551 152.061 55.7728 152.167C55.8854 152.221 56.001 152.269 56.1191 152.31C55.9724 152.529 55.9097 152.794 55.9423 153.055C56.0316 153.311 56.2014 153.532 56.4266 153.685C57.9377 154.929 59.6159 156.241 60.0905 158.154C60.4271 159.517 60.0905 160.976 60.3932 162.347C60.9478 164.817 63.4009 166.315 65.7208 167.265C70.92 169.392 76.6956 170.21 82.2193 169.221C87.743 168.232 92.9907 165.379 96.5674 161.02C97.6668 159.674 98.604 158.205 99.6477 156.816C100.374 155.836 101.173 154.903 101.999 154.003C102.89 153.597 103.749 153.125 104.568 152.589C106.314 151.434 107.818 149.951 109.412 148.576C110.601 147.543 111.845 146.569 112.938 145.44C113.918 144.369 114.834 143.241 115.681 142.063C117.619 139.506 119.62 137 121.684 134.544C122.789 133.23 123.958 131.891 125.501 131.167L125.571 131.138C125.755 132.219 126.615 133.136 127.218 134.069C129.712 137.929 132.323 141.901 136.178 144.362C138.29 145.708 140.677 146.533 143.06 147.285C149.114 149.191 155.265 150.686 161.421 152.184C161.624 151.798 161.823 151.441 162.046 151.094C162.141 151.194 162.23 151.301 162.312 151.412C162.339 151.451 162.36 151.492 162.387 151.531C162.343 151.539 162.299 151.551 162.256 151.567C161.861 151.75 161.55 152.076 161.387 152.479C160.723 153.803 160.66 155.339 160.629 156.82C160.607 158.268 160.629 159.715 160.629 161.162C160.594 161.703 160.676 162.244 160.871 162.749C161.341 163.714 162.535 164.074 163.603 164.197C165.458 164.402 167.327 164.228 169.173 163.98C169.279 164.413 169.453 164.827 169.688 165.207C170.725 166.896 172.514 168.01 174.377 168.664C176.239 169.318 178.212 169.578 180.147 169.962C183.584 170.642 187.1 171.73 190.517 170.963C191.88 170.656 193.18 170.063 194.544 169.803C197.665 169.214 200.901 170.406 204.044 169.928C205.562 169.687 206.998 169.084 208.374 168.391C209.067 168.088 209.696 167.656 210.226 167.118C210.73 166.553 211.033 165.753 210.824 165.022C210.706 164.602 210.435 164.245 210.253 163.849C210.009 163.217 209.871 162.548 209.844 161.871C209.591 159.309 209.155 156.769 208.541 154.268C208.524 154.198 208.504 154.126 208.485 154.054C210.861 153.115 212.989 151.642 215.091 150.175L219.612 147.025C221.065 146.004 222.555 144.979 224.187 144.265C226.691 143.17 229.464 142.857 232.193 142.859C233.309 142.859 234.428 142.914 235.539 143.016C235.398 143.17 235.291 143.352 235.227 143.551C235.004 144.241 235.358 144.998 235.883 145.503C236.409 146.007 237.094 146.291 237.712 146.641C239.418 147.598 240.839 148.989 241.828 150.672C242.448 151.731 242.899 153.016 242.506 154.182C242.022 155.643 240.296 156.652 240.395 158.19C240.453 159.097 241.187 159.848 242.022 160.183C242.858 160.518 243.785 160.513 244.686 160.487C246.161 160.441 247.679 160.328 248.999 159.659C249.888 159.208 250.641 158.528 251.379 157.855C252.053 157.24 252.74 156.601 253.123 155.771C253.481 154.99 253.537 154.104 253.554 153.246C253.627 149.203 252.927 145.105 253.733 141.144C253.975 139.938 254.363 138.758 254.569 137.543C254.893 135.613 254.77 133.664 254.646 131.724C254.586 130.769 254.513 129.785 254.043 128.958Z" fill="url(#paint0_linear_52_2162)"/>
<path opacity="0.06" d="M202.879 73.0469C201.927 73.6861 201.595 74.9211 201.474 76.0596C200.959 80.9008 202.964 85.6937 202.83 90.559C202.724 94.4305 201.276 98.1235 199.847 101.725C197.411 107.869 196.142 114.54 195.65 121.128C195.159 127.716 194.44 134.576 190.889 140.148C190.083 141.409 189.143 142.582 188.354 143.85C187.526 145.177 186.87 146.6 186.138 147.98C183.983 152.055 181.206 155.771 177.905 158.996C176.936 159.937 175.909 160.849 174.674 161.391C173.878 161.735 173.021 161.917 172.154 161.926C171.286 161.936 170.426 161.772 169.623 161.445C167.966 160.762 166.572 159.223 166.504 157.438C166.443 155.841 167.4 154.401 168.359 153.123C171.609 148.791 175.346 144.845 179.498 141.361C180.251 140.729 181.046 140.075 181.435 139.173C181.874 138.134 181.695 136.954 181.75 135.828C181.84 134.031 182.542 132.325 182.961 130.574C184.656 123.461 181.644 115.693 184.094 108.802C184.639 107.27 185.448 105.806 185.639 104.192C185.775 103.064 185.494 101.802 184.785 100.955C184.12 100.195 183.748 99.2234 183.736 98.2151C183.736 98.0077 183.736 97.8026 183.76 97.6C184.056 94.4425 184.349 91.2706 184.189 88.1034C184.029 84.9363 183.397 81.7523 181.929 78.9373C181.169 77.478 180.186 76.1127 179.716 74.5376C178.961 71.9879 179.658 69.2309 180.784 66.8187C181.663 64.9324 182.835 63.1354 184.472 61.8425C187.514 59.4424 192.066 59.165 195.396 61.1502C197.852 62.612 199.532 65.0699 200.896 67.5761C201.874 69.407 202.893 70.958 202.879 73.0469Z" fill="black"/>
<path d="M194.808 53.822C194.343 55.0715 193.88 56.321 193.42 57.5705C193.115 58.3906 192.812 59.218 192.497 60.0381C191.044 63.8179 189.419 67.5375 186.877 70.666C187.257 70.198 183.68 67.8438 181.043 66.2373C179.757 65.4485 178.692 64.8407 178.43 64.7201C177.808 64.4403 177.172 64.1939 176.524 63.982C175.519 63.6443 174.502 63.3524 173.497 62.9882C171.172 62.1511 172.797 60.8944 173.793 59.5436C177.05 55.1198 177.667 49.0749 181.365 45.0105C182.721 47.577 184.867 49.6437 187.487 50.9082C187.538 50.9347 187.591 50.9588 187.644 50.9805C189.841 52.0033 192.267 52.4447 194.539 53.301C194.662 53.3468 194.805 53.412 194.846 53.5422C194.862 53.6373 194.848 53.7347 194.808 53.822Z" fill="#A1616A"/>
<path d="M188.485 143.172C187.433 144.674 186.778 146.415 186.581 148.235C186.385 150.055 186.652 151.896 187.359 153.586C187.538 154.058 187.816 154.486 188.175 154.842C188.632 155.198 189.165 155.446 189.732 155.566C194.541 156.929 199.675 156.661 204.601 155.807C206.269 155.551 207.909 155.135 209.497 154.565C211.936 153.636 214.113 152.153 216.263 150.672L220.811 147.55C222.284 146.54 223.768 145.524 225.412 144.815C227.931 143.732 230.72 143.421 233.464 143.423C235.821 143.426 238.172 143.65 240.487 144.091C242.029 144.388 243.877 144.694 244.962 143.573C245.582 142.938 245.766 142.01 245.887 141.134C246.366 137.727 246.357 134.27 245.86 130.866C245.848 130.579 245.744 130.304 245.563 130.082C245.392 129.937 245.184 129.843 244.962 129.809C242.819 129.327 240.669 130.328 238.586 131.015C234.258 132.448 229.611 132.619 225.209 133.799C220.588 135.036 216.249 137.378 211.473 137.854C209.197 138.08 206.911 137.883 204.63 137.933C202.513 137.979 200.54 138.708 198.467 138.794C194.471 138.97 190.996 139.665 188.485 143.172Z" fill="#A1616A"/>
<path opacity="0.06" d="M188.485 143.172C187.433 144.674 186.778 146.415 186.581 148.235C186.385 150.055 186.652 151.896 187.359 153.586C187.538 154.058 187.816 154.486 188.175 154.842C188.632 155.198 189.165 155.446 189.732 155.566C194.541 156.929 199.675 156.661 204.601 155.807C206.269 155.551 207.909 155.135 209.497 154.565C211.936 153.636 214.113 152.153 216.263 150.672L220.811 147.55C222.284 146.54 223.768 145.524 225.412 144.815C227.931 143.732 230.72 143.421 233.464 143.423C235.821 143.426 238.172 143.65 240.487 144.091C242.029 144.388 243.877 144.694 244.962 143.573C245.582 142.938 245.766 142.01 245.887 141.134C246.366 137.727 246.357 134.27 245.86 130.866C245.848 130.579 245.744 130.304 245.563 130.082C245.392 129.937 245.184 129.843 244.962 129.809C242.819 129.327 240.669 130.328 238.586 131.015C234.258 132.448 229.611 132.619 225.209 133.799C220.588 135.036 216.249 137.378 211.473 137.854C209.197 138.08 206.911 137.883 204.63 137.933C202.513 137.979 200.54 138.708 198.467 138.794C194.471 138.97 190.996 139.665 188.485 143.172Z" fill="black"/>
<path d="M192.393 138.073C192.279 138.606 192.178 139.171 192.338 139.692C192.536 140.204 192.871 140.653 193.306 140.99C197.423 144.661 203.305 145.421 208.805 146.016C210.294 146.178 211.81 146.34 213.285 146.072C214.629 145.831 215.883 145.24 217.12 144.656C219.784 143.399 222.463 142.128 224.746 140.28C226.986 138.471 228.783 136.156 231.103 134.45C233.74 132.521 236.983 131.416 239.336 129.144C241.038 127.508 242.169 125.373 242.564 123.05C242.831 121.466 242.744 119.847 242.564 118.25C242.373 116.415 242.066 114.548 241.189 112.922C240.174 111.04 238.469 109.62 236.67 108.452C232.863 105.987 228.381 104.458 223.836 104.496C217.539 104.552 211.727 108.201 207.209 112.3C202.429 116.64 198.561 121.881 195.827 127.72C194.284 131.027 193.131 134.502 192.393 138.073Z" fill="#464353"/>
<path opacity="0.06" d="M192.393 138.073C192.279 138.606 192.178 139.171 192.338 139.692C192.536 140.204 192.871 140.653 193.306 140.99C197.423 144.661 203.305 145.421 208.805 146.016C210.294 146.178 211.81 146.34 213.285 146.072C214.629 145.831 215.883 145.24 217.12 144.656C219.784 143.399 222.463 142.128 224.746 140.28C226.986 138.471 228.783 136.156 231.103 134.45C233.74 132.521 236.983 131.416 239.336 129.144C241.038 127.508 242.169 125.373 242.564 123.05C242.831 121.466 242.744 119.847 242.564 118.25C242.373 116.415 242.066 114.548 241.189 112.922C240.174 111.04 238.469 109.62 236.67 108.452C232.863 105.987 228.381 104.458 223.836 104.496C217.539 104.552 211.727 108.201 207.209 112.3C202.429 116.64 198.561 121.881 195.827 127.72C194.284 131.027 193.131 134.502 192.393 138.073Z" fill="black"/>
<path d="M202.879 73.0469C201.927 73.6861 201.595 74.9211 201.474 76.0596C200.959 80.9008 202.964 85.6937 202.83 90.559C202.724 94.4305 201.276 98.1235 199.847 101.725C197.411 107.869 196.142 114.54 195.65 121.128C195.159 127.716 194.44 134.576 190.889 140.148C190.083 141.409 189.143 142.582 188.354 143.85C187.526 145.177 186.87 146.6 186.138 147.98C183.983 152.055 181.206 155.771 177.905 158.996C176.936 159.937 175.909 160.849 174.674 161.391C173.878 161.735 173.021 161.917 172.154 161.926C171.286 161.936 170.426 161.772 169.623 161.445C167.966 160.762 166.572 159.223 166.504 157.438C166.443 155.841 167.4 154.401 168.359 153.123C171.609 148.791 175.346 144.845 179.498 141.361C180.251 140.729 181.046 140.075 181.435 139.173C181.874 138.134 181.695 136.954 181.75 135.828C181.84 134.031 182.542 132.325 182.961 130.574C184.656 123.461 181.644 115.693 184.094 108.802C184.639 107.27 185.448 105.806 185.639 104.192C185.775 103.064 185.494 101.802 184.785 100.955C184.12 100.195 183.748 99.2234 183.736 98.2151C183.736 98.0077 183.736 97.8026 183.76 97.6C184.056 94.4425 184.349 91.2706 184.189 88.1034C184.029 84.9363 183.397 81.7523 181.929 78.9373C181.169 77.478 180.186 76.1127 179.716 74.5376C178.961 71.9879 179.658 69.2309 180.784 66.8187C181.663 64.9324 182.835 63.1354 184.472 61.8425C187.514 59.4424 192.066 59.165 195.396 61.1502C197.852 62.612 199.532 65.0699 200.896 67.5761C201.874 69.407 202.893 70.958 202.879 73.0469Z" fill="#A1616A"/>
<path d="M189.499 89.2515C194.561 89.2515 198.665 82.8377 198.665 74.9258C198.665 67.0139 194.561 60.6001 189.499 60.6001C184.437 60.6001 180.333 67.0139 180.333 74.9258C180.333 82.8377 184.437 89.2515 189.499 89.2515Z" fill="#A1616A"/>
<path d="M166.123 149.787C166.394 150.167 166.577 150.601 166.661 151.06C166.745 151.518 166.726 151.989 166.607 152.44C167.471 153.058 168.521 153.363 169.583 153.304C170.637 153.246 171.674 153.009 172.647 152.602C173.493 152.294 174.294 151.876 175.03 151.357C176.294 150.426 177.209 149.094 177.936 147.715C178.345 146.952 178.694 145.966 178.178 145.281C177.975 145.048 177.728 144.858 177.451 144.721C175.585 143.661 173.643 142.741 171.639 141.969C171.089 141.716 170.492 141.583 169.886 141.578C169.143 141.619 168.467 142.024 167.876 142.478C166.548 143.507 165.477 144.827 164.747 146.337C164.52 146.82 163.832 147.965 164.173 148.462C164.328 148.692 164.9 148.771 165.142 148.916C165.527 149.134 165.861 149.431 166.123 149.787Z" fill="#FBBEBE"/>
<path opacity="0.03" d="M166.123 149.787C166.394 150.167 166.577 150.601 166.661 151.06C166.745 151.518 166.726 151.989 166.607 152.44C167.471 153.058 168.521 153.363 169.583 153.304C170.637 153.246 171.674 153.009 172.647 152.602C173.493 152.294 174.294 151.876 175.03 151.357C176.294 150.426 177.209 149.094 177.936 147.715C178.345 146.952 178.694 145.966 178.178 145.281C177.975 145.048 177.728 144.858 177.451 144.721C175.585 143.661 173.643 142.741 171.639 141.969C171.089 141.716 170.492 141.583 169.886 141.578C169.143 141.619 168.467 142.024 167.876 142.478C166.548 143.507 165.477 144.827 164.747 146.337C164.52 146.82 163.832 147.965 164.173 148.462C164.328 148.692 164.9 148.771 165.142 148.916C165.527 149.134 165.861 149.431 166.123 149.787Z" fill="black"/>
<path d="M176.151 144.198C180.248 144.955 184.016 146.928 188.043 147.992C189.673 148.421 191.351 148.716 192.908 149.348C194.466 149.98 195.933 151.06 196.604 152.599C196.887 153.338 197.075 154.109 197.163 154.895C197.338 156.007 197.48 157.25 196.817 158.162C196.117 159.126 194.795 159.339 193.611 159.481C189.353 159.985 185.096 160.492 180.825 160.849C179.96 160.901 179.098 161.003 178.246 161.155C177.543 161.295 176.858 161.507 176.16 161.671C175.257 161.881 174.339 162.014 173.424 162.154C171.082 162.489 168.714 162.824 166.363 162.568C165.29 162.45 164.089 162.105 163.616 161.14C163.42 160.64 163.338 160.103 163.374 159.568C163.362 158.135 163.35 156.705 163.374 155.274C163.396 153.805 163.469 152.281 164.137 150.971C164.303 150.57 164.615 150.247 165.011 150.066C165.255 149.997 165.51 149.974 165.762 149.999C167.021 150.042 168.324 150.095 169.45 150.655C170.344 151.096 171.07 151.832 171.981 152.232C173.705 152.995 175.785 152.447 177.531 153.164C177.938 151.914 177.846 150.65 177.543 149.369C177.241 148.088 176.817 146.832 176.688 145.524C176.683 145.237 176.628 144.953 176.524 144.685C176.393 144.417 176.437 144.157 176.151 144.198Z" fill="#464353"/>
<path opacity="0.06" d="M176.151 144.198C180.248 144.955 184.016 146.928 188.043 147.992C189.673 148.421 191.351 148.716 192.908 149.348C194.466 149.98 195.933 151.06 196.604 152.599C196.887 153.338 197.075 154.109 197.163 154.895C197.338 156.007 197.48 157.25 196.817 158.162C196.117 159.126 194.795 159.339 193.611 159.481C189.353 159.985 185.096 160.492 180.825 160.849C179.96 160.901 179.098 161.003 178.246 161.155C177.543 161.295 176.858 161.507 176.16 161.671C175.257 161.881 174.339 162.014 173.424 162.154C171.082 162.489 168.714 162.824 166.363 162.568C165.29 162.45 164.089 162.105 163.616 161.14C163.42 160.64 163.338 160.103 163.374 159.568C163.362 158.135 163.35 156.705 163.374 155.274C163.396 153.805 163.469 152.281 164.137 150.971C164.303 150.57 164.615 150.247 165.011 150.066C165.255 149.997 165.51 149.974 165.762 149.999C167.021 150.042 168.324 150.095 169.45 150.655C170.344 151.096 171.07 151.832 171.981 152.232C173.705 152.995 175.785 152.447 177.531 153.164C177.938 151.914 177.846 150.65 177.543 149.369C177.241 148.088 176.817 146.832 176.688 145.524C176.683 145.237 176.628 144.953 176.524 144.685C176.393 144.417 176.437 144.157 176.151 144.198Z" fill="black"/>
<path d="M39.2789 103.068C38.4531 102.808 37.6564 103.536 37.1939 104.274C35.2711 107.285 35.4285 111.303 36.9662 114.526C37.3321 115.343 37.8367 116.092 38.458 116.738C39.291 117.556 40.3638 118.079 41.3639 118.668C44.139 120.301 46.5173 122.525 48.3285 125.18C49.5127 126.92 50.445 128.832 51.789 130.451C55.0969 134.436 60.5335 136.24 63.7421 140.292C64.5098 141.257 65.1587 142.377 66.1831 143.078C66.792 143.495 67.5017 143.743 68.2388 143.795C68.9759 143.848 69.7136 143.703 70.3759 143.377C71.0382 143.05 71.601 142.554 72.0061 141.938C72.4112 141.322 72.6439 140.61 72.6803 139.875C73.9274 138.049 74.9469 136.033 75.918 134.045C77.3548 131.011 78.5688 127.878 79.5504 124.669C79.9113 123.535 80.26 122.394 80.7201 121.292C81.8558 118.571 83.6648 116.108 84.3041 113.233C84.5608 112.08 84.6237 110.881 84.9967 109.762C85.3307 108.757 85.9021 107.847 86.6628 107.109C89.1812 104.67 90.5373 101.117 92.54 98.2464C93.3537 97.0862 94.1988 95.9284 94.7364 94.6162C95.274 93.304 95.4799 91.8012 94.9786 90.4745C94.4773 89.1479 93.1672 88.0769 91.7482 88.1516C91.1131 88.2172 90.497 88.4057 89.9344 88.7064C87.9787 89.6309 86.1848 90.8623 84.6213 92.3536C83.9376 93.0089 83.2909 93.7015 82.684 94.428C79.7248 97.9498 77.4097 102.224 77.2063 106.812C77.1385 108.385 77.2644 110.129 76.2619 111.347C73.4964 114.712 72.6077 119.338 70.249 123C69.1568 124.688 67.9049 126.437 66.0378 127.207C65.762 127.339 65.457 127.398 65.1515 127.38C64.4056 127.296 63.977 126.514 63.6622 125.834C62.432 123.181 61.0083 120.621 59.4026 118.176C58.7681 117.211 58.0682 116.222 57.0536 115.655C56.361 115.271 55.557 115.1 54.9056 114.651C53.9975 114.027 53.5229 112.963 53.0506 111.967C51.5202 108.749 49.5825 105.74 47.2848 103.013C46.2338 101.766 44.8486 100.478 43.2261 100.663C41.6811 100.844 40.7367 102.463 39.2789 103.068Z" fill="#FBBEBE"/>
<path opacity="0.03" d="M39.2789 103.068C38.4531 102.808 37.6564 103.536 37.1939 104.274C35.2711 107.285 35.4285 111.303 36.9662 114.526C37.3321 115.343 37.8367 116.092 38.458 116.738C39.291 117.556 40.3638 118.079 41.3639 118.668C44.139 120.301 46.5173 122.525 48.3285 125.18C49.5127 126.92 50.445 128.832 51.789 130.451C55.0969 134.436 60.5335 136.24 63.7421 140.292C64.5098 141.257 65.1587 142.377 66.1831 143.078C66.792 143.495 67.5017 143.743 68.2388 143.795C68.9759 143.848 69.7136 143.703 70.3759 143.377C71.0382 143.05 71.601 142.554 72.0061 141.938C72.4112 141.322 72.6439 140.61 72.6803 139.875C73.9274 138.049 74.9469 136.033 75.918 134.045C77.3548 131.011 78.5688 127.878 79.5504 124.669C79.9113 123.535 80.26 122.394 80.7201 121.292C81.8558 118.571 83.6648 116.108 84.3041 113.233C84.5608 112.08 84.6237 110.881 84.9967 109.762C85.3307 108.757 85.9021 107.847 86.6628 107.109C89.1812 104.67 90.5373 101.117 92.54 98.2464C93.3537 97.0862 94.1988 95.9284 94.7364 94.6162C95.274 93.304 95.4799 91.8012 94.9786 90.4745C94.4773 89.1479 93.1672 88.0769 91.7482 88.1516C91.1131 88.2172 90.497 88.4057 89.9344 88.7064C87.9787 89.6309 86.1848 90.8623 84.6213 92.3536C83.9376 93.0089 83.2909 93.7015 82.684 94.428C79.7248 97.9498 77.4097 102.224 77.2063 106.812C77.1385 108.385 77.2644 110.129 76.2619 111.347C73.4964 114.712 72.6077 119.338 70.249 123C69.1568 124.688 67.9049 126.437 66.0378 127.207C65.762 127.339 65.457 127.398 65.1515 127.38C64.4056 127.296 63.977 126.514 63.6622 125.834C62.432 123.181 61.0083 120.621 59.4026 118.176C58.7681 117.211 58.0682 116.222 57.0536 115.655C56.361 115.271 55.557 115.1 54.9056 114.651C53.9975 114.027 53.5229 112.963 53.0506 111.967C51.5202 108.749 49.5825 105.74 47.2848 103.013C46.2338 101.766 44.8486 100.478 43.2261 100.663C41.6811 100.844 40.7367 102.463 39.2789 103.068Z" fill="black"/>
<path d="M39.109 91.5431C42.6344 91.5431 45.4924 88.9739 45.4924 85.8046C45.4924 82.6354 42.6344 80.0662 39.109 80.0662C35.5835 80.0662 32.7256 82.6354 32.7256 85.8046C32.7256 88.9739 35.5835 91.5431 39.109 91.5431Z" fill="#FBBEBE"/>
<path d="M45.095 86.9142C46.3642 86.9142 47.3931 85.8893 47.3931 84.625C47.3931 83.3608 46.3642 82.3359 45.095 82.3359C43.8258 82.3359 42.7969 83.3608 42.7969 84.625C42.7969 85.8893 43.8258 86.9142 45.095 86.9142Z" fill="#FBBEBE"/>
<path d="M39.9472 85.8045C44.8034 85.8045 48.7401 84.7559 48.7401 83.4623C48.7401 82.1688 44.8034 81.1201 39.9472 81.1201C35.091 81.1201 31.1543 82.1688 31.1543 83.4623C31.1543 84.7559 35.091 85.8045 39.9472 85.8045Z" fill="#FBBEBE"/>
<path d="M32.1059 82.9631C32.3198 83.6385 32.4881 84.3275 32.6096 85.0254C31.8713 84.2789 31.2317 83.4415 30.7062 82.5337C30.5645 82.3771 30.4507 82.1977 30.3696 82.003C29.585 80.1843 29.0498 78.3438 29.0498 76.3514C29.0496 74.0412 29.6979 71.777 30.9215 69.8145C32.145 67.852 33.8951 66.2694 35.974 65.2453C38.053 64.2213 40.3779 63.7967 42.6864 64.0194C44.9948 64.2421 47.1947 65.1033 49.0377 66.5057C50.8807 67.9082 52.2933 69.796 53.1159 71.9559C53.9386 74.1158 54.1386 76.4619 53.6933 78.729C53.248 80.9962 52.1752 83.0942 50.596 84.7861C49.0168 86.4779 46.9941 87.6963 44.7565 88.3035C45.1366 87.083 45.6573 85.8914 45.7251 84.625C45.766 84.2026 45.7045 83.7766 45.5459 83.3828C45.3334 82.9638 45.0197 82.6041 44.633 82.3359C43.2478 81.2818 41.4655 80.8211 39.7219 80.85C37.9763 80.9222 36.2614 81.3319 34.6728 82.0561C34.1715 82.2708 33.571 82.5602 32.9777 82.758C32.6948 82.8556 32.4027 82.9243 32.1059 82.9631Z" fill="#FBBEBE"/>
<path d="M63.6476 110.071C62.8509 111.342 61.1485 111.73 59.652 111.617C56.8623 111.412 54.3244 109.928 52.1692 108.143C50.0139 106.358 48.1299 104.284 45.9262 102.566C41.8264 99.3656 37.2084 98.0799 31.9922 98.0051C33.0117 97.1633 32.6363 95.166 32.7187 93.8538C32.8979 91.2005 33.0674 88.4772 32.7187 85.8624C32.6824 85.5802 32.6412 85.3028 32.5927 85.0254C32.6751 85.1122 32.7623 85.1967 32.8519 85.2835C34.403 86.7663 36.3132 87.8237 38.3964 88.353C40.4797 88.8822 42.665 88.8652 44.7396 88.3035C44.6062 88.7236 44.5018 89.1524 44.4272 89.5867C44.1269 91.4513 44.6306 93.3424 45.1271 95.1684C45.4225 96.2611 45.7736 97.4334 46.6769 98.1161C47.2629 98.5599 48.0015 98.7336 48.6965 98.9675C50.0819 99.4379 51.3607 100.176 52.4597 101.138C53.225 101.807 53.9127 102.586 54.7337 103.167C55.5144 103.659 56.3368 104.082 57.1916 104.431C59.2895 105.395 61.2716 106.592 63.1004 107.999C63.4455 108.213 63.7141 108.53 63.868 108.906C63.9132 109.104 63.917 109.31 63.8791 109.511C63.8412 109.711 63.7624 109.902 63.6476 110.071Z" fill="#FBBEBE"/>
<path d="M77.9522 133.442C77.7851 134.542 76.7728 135.401 76.0585 136.255C74.1163 138.59 72.1475 140.932 69.9753 143.069C67.6506 145.353 65.0982 147.389 62.5482 149.425L59.2403 152.061C58.8322 152.433 58.3539 152.72 57.8333 152.906C57.2235 153.057 56.5791 152.981 56.022 152.691C55.8001 152.585 55.5899 152.457 55.3948 152.307C54.7094 151.777 54.2057 151.053 53.7141 150.341C51.4766 147.088 49.2366 143.834 46.9941 140.58C46.195 139.417 45.4104 138.223 44.6306 137.029C44.5265 136.874 44.4272 136.718 44.3231 136.563C43.6111 135.478 42.9016 134.392 42.1727 133.343L38.1867 131.483L37.6636 131.242L37.0461 130.955C36.2252 130.572 35.3922 130.181 34.7093 129.587C34.0553 128.975 33.5108 128.257 33.0989 127.462C32.3013 125.993 31.6039 124.473 31.0114 122.911C29.3163 118.648 27.8246 114.205 27.7616 109.617C27.7059 105.582 28.9022 101.385 31.5951 98.4226C31.9631 98.015 32.3588 97.633 32.7792 97.2792C33.2975 96.8474 33.8326 96.5942 34.4986 96.6883C35.1645 96.7823 35.7966 96.8788 36.4359 96.9874C38.1988 97.2897 39.948 97.6595 41.6835 98.0969C43.2479 98.4949 44.868 98.9484 46.4493 98.6324C46.7036 98.5818 46.9554 98.5094 47.2072 98.4443C47.4131 98.3912 47.6165 98.3406 47.8272 98.3068C47.9441 98.2867 48.0622 98.2738 48.1807 98.2682C49.021 98.2248 49.8274 98.5601 50.6024 98.8905C52.082 99.5225 53.6052 100.188 54.7191 101.351C55.3826 102.05 55.8694 102.909 56.5765 103.568C57.5209 104.448 58.7802 104.899 59.9135 105.529C60.1324 105.65 60.3435 105.784 60.5455 105.932C60.9925 106.265 61.3989 106.65 61.7564 107.077C63.2239 108.802 64.0956 111.13 65.7157 112.845C67.0122 114.215 68.1391 115.735 69.0721 117.372C69.2246 117.645 69.3724 117.92 69.5177 118.2C69.7598 118.665 69.985 119.138 70.1933 119.616C70.2466 119.739 70.2998 119.857 70.3483 119.985C70.653 120.707 70.9189 121.446 71.145 122.197C71.6947 124.018 72.0604 125.984 73.2809 127.445C74.1333 128.461 75.315 129.134 76.3103 130.01C76.9513 130.55 77.4556 131.234 77.7827 132.004C77.9624 132.461 78.0208 132.956 77.9522 133.442Z" fill="#FBBEBE"/>
<path opacity="0.06" d="M71.2101 118.955C70.9324 119.303 70.6475 119.648 70.3553 119.987C70.3069 120.05 70.2536 120.11 70.2003 120.17C67.6512 123.14 64.7332 125.776 61.5164 128.012C59.5258 129.397 57.4263 130.624 55.3315 131.85L51.457 134.11C49.8369 135.058 48.195 136.013 46.3982 136.558C45.8218 136.73 45.2189 136.867 44.6304 137.029C44.5263 136.874 44.427 136.718 44.3229 136.563C43.6109 135.478 42.9014 134.392 42.1725 133.343L38.1865 131.483C40.3878 130.097 42.3407 128.354 43.9645 126.326C46.3861 123.352 48.2483 119.96 50.0839 116.591C50.4093 116.047 50.6625 115.463 50.837 114.854C51.0792 113.843 50.8758 112.782 50.5779 111.788C49.4876 108.225 47.195 105.146 44.088 103.073C41.9085 101.626 39.4288 100.745 36.9635 99.8962C35.2418 99.3028 33.3553 98.7288 31.6045 98.9724C31.972 98.565 32.3677 98.1837 32.7887 97.8314C33.3069 97.3972 33.8421 97.144 34.508 97.238C35.174 97.3321 35.806 97.4286 36.4453 97.5396C37.7409 97.9352 39.0147 98.4079 40.2812 98.8952C41.1143 99.1994 41.9238 99.5646 42.7028 99.9879C43.4782 100.459 44.2231 100.979 44.9331 101.544C47.0329 103.138 49.2437 104.582 51.549 105.864C54.2128 107.328 57.0097 108.517 59.8043 109.723C60.1006 109.875 60.4277 109.957 60.7608 109.964C60.9277 109.964 61.0897 109.909 61.2212 109.806C61.3528 109.704 61.4464 109.561 61.4873 109.4C61.4984 109.224 61.458 109.049 61.3711 108.896C60.8867 107.909 59.7873 107.412 58.792 106.932C54.6608 104.94 51.0283 102.072 47.4346 99.2256C47.3473 99.1567 47.2707 99.0755 47.207 98.9844L47.8269 98.8469C51.8487 101.724 56.0962 104.275 60.5284 106.474C60.7624 106.593 60.9973 106.709 61.233 106.821C61.4026 106.906 61.5696 106.988 61.7416 107.063C62.9354 107.646 64.1293 108.269 65.0277 109.234C65.6071 109.899 66.0957 110.638 66.4807 111.431C67.4705 113.294 68.3157 115.229 69.0089 117.22C69.0221 117.263 69.0374 117.305 69.0549 117.346C69.1427 117.65 69.2946 117.932 69.5005 118.173C69.573 118.254 69.659 118.322 69.7547 118.373C70.21 118.641 70.8348 118.612 71.2101 118.955Z" fill="black"/>
<path d="M47.8366 98.3068C51.8579 101.184 56.1054 103.734 60.538 105.932L61.2427 106.281C62.5988 106.942 64.0106 107.598 65.0398 108.693C65.6188 109.36 66.1073 110.1 66.4928 110.893C67.4832 112.755 68.3277 114.691 69.0186 116.682C69.1735 117.124 69.3552 117.609 69.7668 117.835C70.1785 118.062 70.8324 118.045 71.198 118.388C70.8687 118.798 70.5345 119.203 70.1882 119.594C67.6398 122.565 64.7217 125.201 61.5043 127.438C59.5137 128.823 57.4141 130.051 55.3194 131.276L51.4448 133.536C49.8248 134.482 48.1829 135.437 46.3861 135.982C45.7104 136.187 44.9961 136.341 44.3107 136.539C43.5988 135.454 42.8893 134.368 42.1603 133.319L37.6513 131.216C40.0729 129.85 42.1846 127.909 43.9475 125.75C46.3691 122.778 48.2314 119.386 50.0669 116.017C50.392 115.472 50.6451 114.889 50.8201 114.28C51.0622 113.269 50.8588 112.206 50.561 111.212C49.47 107.66 47.1842 104.591 44.088 102.521C41.9085 101.074 39.4288 100.195 36.9635 99.344C35.2418 98.753 33.3553 98.1765 31.6045 98.4226C31.9726 98.015 32.3682 97.633 32.7887 97.2792C33.3069 96.8474 33.8421 96.5942 34.508 96.6883C35.174 96.7823 35.806 96.8788 36.4453 96.9874C37.7409 97.3854 39.0147 97.8581 40.2812 98.3454C41.1148 98.6486 41.9243 99.0138 42.7028 99.4381C43.4782 99.9097 44.2231 100.429 44.9331 100.994C47.0363 102.585 49.2504 104.024 51.5587 105.302C54.2224 106.769 57.0194 107.967 59.814 109.161C60.1103 109.313 60.4374 109.396 60.7705 109.403C60.9376 109.403 61.1 109.348 61.2317 109.246C61.3634 109.143 61.4569 109 61.497 108.838C61.5079 108.663 61.4675 108.489 61.3808 108.336C60.8964 107.35 59.797 106.851 58.8017 106.373C54.6704 104.381 51.038 101.51 47.4443 98.6541C47.3563 98.586 47.2795 98.5046 47.2167 98.4129L47.8366 98.3068Z" fill="#FAFAFF"/>
<path d="M81.766 111.402C90.161 111.402 96.9665 104.623 96.9665 96.2611C96.9665 87.899 90.161 81.1201 81.766 81.1201C73.3709 81.1201 66.5654 87.899 66.5654 96.2611C66.5654 104.623 73.3709 111.402 81.766 111.402Z" fill="#FAFAFF"/>
<path d="M96.879 156.521C99.7244 155.631 102.613 154.724 105.112 153.096C106.868 151.953 108.382 150.481 109.975 149.121C111.174 148.098 112.423 147.133 113.523 146.004C114.508 144.948 115.43 143.835 116.283 142.671C118.227 140.136 120.235 137.65 122.306 135.212C123.418 133.912 124.592 132.588 126.144 131.864C128.903 130.574 132.14 131.445 135.051 132.33C139.41 133.657 143.747 135.063 147.825 137.082C150.145 138.232 152.392 139.516 154.734 140.618C159.015 142.632 163.561 144.014 168.089 145.389C168.426 145.532 168.799 145.562 169.155 145.476C169.409 145.36 169.627 145.178 169.787 144.95C170.377 144.224 170.85 143.41 171.189 142.538C171.253 142.439 171.278 142.319 171.256 142.203C171.235 142.087 171.17 141.983 171.075 141.913C169.138 140.034 166.624 138.879 164.275 137.54C162.406 136.476 160.616 135.282 158.829 134.088C157.112 132.943 155.381 131.785 153.94 130.311C153.213 129.566 152.559 128.743 151.772 128.063C151.077 127.496 150.34 126.982 149.569 126.524C146.117 124.328 142.822 121.896 139.708 119.246C137.339 117.23 135.4 114.632 132.869 112.823C131.317 111.713 129.51 110.703 127.612 110.905C125.302 111.146 123.597 113.076 121.986 114.741C116.574 120.339 109.745 124.346 103.706 129.269C98.7751 133.283 94.1668 138.051 88.1611 140.169C88.4299 141.057 88.5244 141.945 88.7956 142.823C89.1336 144.043 89.5551 145.239 90.0573 146.402C90.5552 147.432 91.1156 148.431 91.7355 149.393L94.1425 153.308C94.6269 154.104 95.133 154.912 95.8256 155.544C96.1888 155.892 96.879 156.017 96.879 156.521Z" fill="#464353"/>
<path opacity="0.06" d="M96.879 156.521C99.7244 155.631 102.613 154.724 105.112 153.096C106.868 151.953 108.382 150.481 109.975 149.121C111.174 148.098 112.423 147.133 113.523 146.004C114.508 144.948 115.43 143.835 116.283 142.671C118.227 140.136 120.235 137.65 122.306 135.212C123.418 133.912 124.592 132.588 126.144 131.864C128.903 130.574 132.14 131.445 135.051 132.33C139.41 133.657 143.747 135.063 147.825 137.082C150.145 138.232 152.392 139.516 154.734 140.618C159.015 142.632 163.561 144.014 168.089 145.389C168.426 145.532 168.799 145.562 169.155 145.476C169.409 145.36 169.627 145.178 169.787 144.95C170.377 144.224 170.85 143.41 171.189 142.538C171.253 142.439 171.278 142.319 171.256 142.203C171.235 142.087 171.17 141.983 171.075 141.913C169.138 140.034 166.624 138.879 164.275 137.54C162.406 136.476 160.616 135.282 158.829 134.088C157.112 132.943 155.381 131.785 153.94 130.311C153.213 129.566 152.559 128.743 151.772 128.063C151.077 127.496 150.34 126.982 149.569 126.524C146.117 124.328 142.822 121.896 139.708 119.246C137.339 117.23 135.4 114.632 132.869 112.823C131.317 111.713 129.51 110.703 127.612 110.905C125.302 111.146 123.597 113.076 121.986 114.741C116.574 120.339 109.745 124.346 103.706 129.269C98.7751 133.283 94.1668 138.051 88.1611 140.169C88.4299 141.057 88.5244 141.945 88.7956 142.823C89.1336 144.043 89.5551 145.239 90.0573 146.402C90.5552 147.432 91.1156 148.431 91.7355 149.393L94.1425 153.308C94.6269 154.104 95.133 154.912 95.8256 155.544C96.1888 155.892 96.879 156.017 96.879 156.521Z" fill="black"/>
<path d="M163.174 151.926C163.444 152.306 163.627 152.741 163.711 153.199C163.795 153.658 163.777 154.129 163.658 154.579C164.519 155.199 165.566 155.506 166.627 155.45C167.683 155.392 168.721 155.156 169.697 154.751C170.543 154.442 171.345 154.024 172.08 153.506C173.347 152.575 174.26 151.243 174.998 149.861C175.408 149.102 175.756 148.115 175.228 147.43C175.027 147.196 174.78 147.006 174.502 146.87C172.64 145.811 170.701 144.891 168.702 144.118C168.152 143.866 167.554 143.732 166.949 143.725C166.203 143.766 165.527 144.174 164.937 144.627C163.609 145.656 162.539 146.977 161.81 148.486C161.583 148.969 160.895 150.117 161.234 150.614C161.389 150.843 161.96 150.923 162.203 151.065C162.583 151.281 162.914 151.575 163.174 151.926Z" fill="#FBBEBE"/>
<path d="M174.263 146.219C178.36 146.979 182.128 148.95 186.155 150.013C187.785 150.443 189.463 150.737 191.02 151.369C192.578 152.001 194.045 153.082 194.716 154.621C194.999 155.359 195.187 156.131 195.275 156.917C195.45 158.029 195.592 159.271 194.929 160.183C194.229 161.148 192.907 161.363 191.723 161.502C187.466 162.009 183.208 162.513 178.937 162.87C178.073 162.924 177.214 163.026 176.362 163.176C175.66 163.319 174.975 163.529 174.277 163.693C173.377 163.905 172.456 164.035 171.541 164.175C169.199 164.508 166.831 164.846 164.48 164.588C163.407 164.469 162.206 164.124 161.733 163.16C161.537 162.66 161.455 162.122 161.491 161.587C161.491 160.156 161.467 158.724 161.491 157.293C161.513 155.824 161.586 154.3 162.254 152.99C162.42 152.589 162.733 152.266 163.128 152.085C163.372 152.016 163.627 151.993 163.879 152.018C165.138 152.061 166.441 152.114 167.567 152.674C168.461 153.115 169.105 151.796 170.015 152.192C171.742 152.951 170.572 150.648 172.316 151.364C172.723 150.115 174.452 150.858 174.151 149.577C173.851 148.296 174.929 148.853 174.805 147.536C174.8 147.249 174.744 146.965 174.641 146.697C174.505 146.439 174.549 146.178 174.263 146.219Z" fill="#464353"/>
<path opacity="0.06" d="M51.5244 69.0427C50.5848 69.5878 49.42 69.4865 48.3254 69.4624C47.3682 69.4427 46.4108 69.4919 45.4606 69.6096C45.1185 69.6334 44.784 69.7218 44.475 69.8701C44.0727 70.1286 43.7546 70.4982 43.5597 70.9338C43.1721 71.6753 42.9111 72.4758 42.7872 73.3025C42.6515 74.2312 42.6661 75.2467 42.0849 75.9824C41.293 76.9835 40.058 76.8291 38.9368 77.0269C37.961 77.2134 37.0257 77.5694 36.1737 78.0786C35.3336 78.5839 34.6127 79.2637 34.0602 80.0717C33.5078 80.8796 33.1367 81.7968 32.9723 82.7605C32.9408 82.98 32.919 83.1971 32.9094 83.4166C32.8851 84.039 32.9481 84.6734 32.8658 85.2836C32.8458 85.436 32.8151 85.5867 32.7738 85.7347C32.763 85.7782 32.7493 85.8209 32.7326 85.8625C32.6963 85.5803 32.6551 85.3029 32.6067 85.0255C31.8684 84.279 31.2287 83.4416 30.7033 82.5338C30.5616 82.3772 30.4478 82.1978 30.3667 82.0031C29.5821 80.1844 29.0469 78.3439 29.0469 76.3515C29.0467 73.7386 29.8761 71.1926 31.4164 69.0775C32.9567 66.9625 35.129 65.3869 37.6227 64.576C40.1163 63.7651 42.8035 63.7604 45.3 64.5627C47.7965 65.3649 49.9743 66.933 51.5219 69.0427H51.5244Z" fill="black"/>
<path d="M52.3216 64.2955C51.6993 62.8603 50.3843 61.8423 49.0331 61.0439C46.3693 59.4616 43.3035 58.4678 40.1941 58.4268C38.6253 58.4272 37.0607 58.5888 35.5252 58.9092C34.0289 59.1756 32.563 59.5901 31.1494 60.1466C28.8168 61.1129 26.7549 62.6295 25.1413 64.5656C24.8024 64.5913 24.4662 64.6453 24.1364 64.7273C22.819 65.0553 21.6324 65.7765 20.5499 66.5943C19.6441 67.2479 18.8396 68.0305 18.1622 68.9171C17.3695 70.0494 16.8211 71.3332 16.5518 72.6873C15.6292 76.923 16.7649 81.2938 17.598 85.5464C18.431 89.799 18.9178 94.4448 16.8715 98.2656C16.099 99.7129 15.002 100.943 14.1786 102.352C13.3553 103.76 12.808 105.456 13.2754 107.019C13.8323 108.92 15.7067 110.126 16.685 111.836C17.2842 112.955 17.498 114.239 17.2937 115.49C17.0894 116.742 16.4783 117.892 15.5541 118.764C17.0918 119.295 18.8039 118.723 20.1891 117.874C21.2874 117.237 22.2217 116.354 22.9183 115.295C24.6594 112.488 23.8869 108.862 24.4923 105.618C25.2987 101.372 28.5534 97.5854 28.1054 93.287C27.8027 90.3924 25.8848 87.9923 24.3761 85.5103C23.3698 83.8549 22.524 82.1079 21.8503 80.2928C21.366 78.9975 20.9737 77.6057 21.2135 76.2452C21.2928 75.8299 21.4204 75.4251 21.5936 75.0392C21.5936 75.085 21.5936 75.1308 21.5936 75.1766C21.6212 76.4261 21.903 77.657 22.4218 78.7949C24.2235 82.4613 29.0208 83.8121 31.0525 87.3555C31.6458 86.7115 32.2633 86.0361 32.5055 85.1967C32.7186 84.4489 32.6096 83.6529 32.6411 82.8762C32.7258 80.7053 34.0505 78.6598 35.9054 77.5405C36.7568 77.0305 37.6924 76.6752 38.6685 76.4913C39.7873 76.2911 41.0223 76.443 41.8166 75.442C42.3978 74.7183 42.3833 73.6908 42.5213 72.7645C42.6441 71.9367 42.9052 71.1352 43.2938 70.3934C43.4881 69.958 43.8063 69.5889 44.2092 69.332C44.5186 69.1825 44.8541 69.094 45.1972 69.0715C46.1465 68.9538 47.1031 68.9046 48.0596 68.9244C49.1662 68.9509 50.3504 69.0498 51.2997 68.483C52.6364 67.6725 52.944 65.7428 52.3216 64.2955Z" fill="#464353"/>
<path opacity="0.06" d="M187.644 50.9805C187.644 51.0142 187.644 51.0456 187.644 51.0793C187.206 54.8423 183.574 54.6686 182.726 60.5977C182.392 62.9205 178.851 63.3499 176.524 63.9747C175.519 63.637 174.502 63.3451 173.497 62.9808C171.172 62.1438 172.797 60.8871 173.793 59.5363C177.05 55.1124 177.667 49.0676 181.365 45.0032C182.721 47.5697 184.867 49.6364 187.487 50.9009C187.538 50.9346 187.591 50.9587 187.644 50.9805Z" fill="black"/>
<path d="M187.729 48.8217C187.729 49.3923 187.697 49.9625 187.632 50.5295C187.186 54.4459 185.225 58.0348 182.164 60.5333C179.104 63.0318 175.186 64.243 171.243 63.9096C167.3 63.5762 163.643 61.7243 161.049 58.7477C158.455 55.771 157.129 51.9041 157.352 47.9688C157.576 44.0335 159.331 40.3401 162.245 37.6733C165.158 35.0066 169.001 33.5768 172.957 33.6879C176.912 33.799 180.669 35.4421 183.427 38.2681C186.186 41.094 187.729 44.8801 187.729 48.8217Z" fill="#A1616A"/>
<path d="M193.844 50.5149C195.585 50.4305 197.258 51.1107 198.866 51.7789C205.242 54.4323 211.672 57.1073 217.37 61.0029C220.179 62.9326 222.782 65.1229 225.38 67.3203L236.057 76.3562C238.109 78.0905 240.174 79.8417 241.821 81.9644C242.79 83.2736 243.674 84.6433 244.468 86.065L246.051 88.7546C246.7 89.8073 247.267 90.908 247.747 92.0471C248.56 94.124 248.863 96.5458 250.505 98.063C251.607 99.0834 253.125 99.4982 254.471 100.171C255.818 100.844 257.135 102.026 257.113 103.527C257.113 104.491 256.527 105.36 256.087 106.228C255.174 108.043 254.791 110.076 254.982 112.097L237.523 98.806C236.828 98.2777 236.101 97.7326 235.246 97.5541C234.137 97.3128 233.006 97.7301 231.936 98.1064C223.498 101.071 214.531 102.245 205.61 101.553C201.666 101.245 197.66 100.538 194.207 98.6154C192.296 97.5541 190.606 96.1478 188.928 94.756C186.833 93.0096 184.731 91.2584 182.874 89.2611C182.389 88.728 181.886 88.1419 181.762 87.4279C181.67 86.9117 181.784 86.3859 181.828 85.8648C182.133 82.2056 179.081 79.1591 178.152 75.606C177.738 73.9306 177.796 72.1744 178.317 70.5292C178.839 68.8841 179.804 67.4135 181.108 66.2783C183.189 68.0922 183.113 71.2786 182.871 74.0212C182.544 77.7142 183.581 79.545 183.254 83.2404C184.571 83.1922 184.332 84.0364 184.893 82.8472C185.455 81.6581 185.564 80.3169 185.671 79.0071C186.06 74.2697 186.532 69.5403 187.087 64.8189C187.363 62.4574 187.678 60.1008 187.981 57.7417C188.165 56.3065 188.141 54.9653 188.901 53.6917C189.957 51.9285 191.751 50.6138 193.844 50.5149Z" fill="#FAFAFF"/>
<path d="M196.122 54.8183C197.232 54.471 198.425 54.7894 199.539 55.1198C201.509 55.702 203.467 56.317 205.414 56.9651C207.005 57.4934 208.618 58.0602 209.964 59.0564C211.362 60.0888 212.386 61.5241 213.401 62.9352C214.127 63.9507 214.854 64.9782 215.338 66.1312C215.968 67.6412 216.137 69.296 216.307 70.9218C216.418 71.6233 216.409 72.3386 216.28 73.0372C216.053 73.7957 215.652 74.4916 215.11 75.0706C214.277 76.0535 213.31 76.9165 212.238 77.6347C209.388 79.5451 205.942 80.3412 202.586 81.0431C199.59 81.6678 196.573 82.2492 193.517 82.4373C192.328 82.5121 190.947 82.4373 190.221 81.5014C190.014 81.2096 189.851 80.8895 189.737 80.551C187.951 75.8403 187.178 70.8086 187.468 65.7815C187.494 64.8652 187.636 63.9558 187.891 63.0751C188.143 62.3702 188.455 61.6883 188.824 61.0368C189.741 59.3073 190.708 57.5175 192.289 56.3597C193.943 55.1536 196.086 54.7725 198.137 54.8497" fill="#A1616A"/>
<path opacity="0.06" d="M207.278 72.7068C206.327 73.346 205.995 74.581 205.874 75.7195C205.358 80.5607 207.363 85.3536 207.23 90.2189C207.123 94.0783 205.675 97.7834 204.246 101.385C201.81 107.528 200.541 114.2 200.05 120.788C199.558 127.375 198.839 134.236 195.289 139.808C194.482 141.069 193.543 142.242 192.753 143.51C191.925 144.837 191.269 146.26 190.538 147.64C188.383 151.715 185.605 155.431 182.304 158.656C181.335 159.597 180.309 160.509 179.074 161.051C178.278 161.395 177.421 161.577 176.553 161.586C175.686 161.595 174.825 161.432 174.022 161.104C172.366 160.422 170.971 158.883 170.903 157.098C170.843 155.501 171.799 154.061 172.758 152.783C176.008 148.451 179.746 144.505 183.898 141.021C184.651 140.389 185.445 139.735 185.835 138.833C186.273 137.794 186.094 136.614 186.15 135.488C186.239 133.69 186.942 131.985 187.36 130.234C189.056 123.12 186.043 115.353 188.494 108.462C189.039 106.93 189.847 105.466 190.039 103.852C190.174 102.723 189.891 101.462 189.184 100.615C188.52 99.8541 188.147 98.8834 188.133 97.875C188.133 97.6676 188.133 97.4626 188.16 97.2599C188.455 94.1024 188.748 90.9305 188.588 87.7633C188.428 84.5962 187.796 81.4122 186.329 78.5972C185.568 77.1379 184.585 75.7726 184.115 74.1975C183.36 71.6478 184.057 68.8908 185.183 66.4786C186.062 64.5923 187.235 62.7953 188.872 61.5024C191.913 59.1023 196.466 58.8249 199.795 60.8101C202.251 62.2719 203.932 64.7298 205.295 67.236C206.273 69.0669 207.305 70.6179 207.278 72.7068Z" fill="black"/>
<path d="M207.831 72.7068C206.88 73.346 206.548 74.581 206.427 75.7195C205.911 80.5607 207.916 85.3536 207.783 90.2189C207.676 94.0783 206.228 97.7834 204.799 101.385C202.363 107.528 201.097 114.2 200.603 120.788C200.109 127.375 199.392 134.236 195.842 139.808C195.035 141.069 194.098 142.242 193.306 143.51C192.481 144.837 191.822 146.26 191.091 147.64C188.935 151.714 186.158 155.431 182.857 158.656C181.888 159.597 180.859 160.509 179.624 161.051C178.828 161.395 177.971 161.577 177.104 161.586C176.236 161.595 175.376 161.432 174.573 161.104C172.919 160.422 171.524 158.883 171.456 157.098C171.393 155.501 172.35 154.061 173.311 152.783C176.561 148.451 180.299 144.505 184.45 141.021C185.204 140.389 186 139.735 186.388 138.833C186.829 137.794 186.647 136.614 186.703 135.488C186.792 133.69 187.494 131.985 187.913 130.234C189.609 123.12 186.596 115.353 189.047 108.462C189.592 106.93 190.403 105.466 190.594 103.852C190.727 102.723 190.446 101.462 189.739 100.615C189.063 99.8594 188.68 98.8875 188.659 97.875C188.659 97.6676 188.659 97.4626 188.686 97.2599C188.979 94.1024 189.272 90.9305 189.112 87.7633C188.952 84.5962 188.32 81.4122 186.853 78.5972C186.092 77.1379 185.109 75.7726 184.639 74.1975C183.884 71.6478 184.581 68.8908 185.707 66.4786C186.589 64.5923 187.758 62.7953 189.395 61.5024C192.437 59.1023 196.99 58.8249 200.319 60.8101C202.775 62.2719 204.456 64.7298 205.819 67.236C206.821 69.0669 207.848 70.6179 207.831 72.7068Z" fill="#A1616A"/>
<path d="M232.318 135.695L232.112 135.758L232.318 135.695Z" fill="#464353"/>
<path d="M189.906 146.458C189.915 146.376 189.929 146.296 189.949 146.217L189.906 146.458Z" fill="#464353"/>
<path d="M241.826 129.906C242.523 129.102 243.599 128.743 244.633 128.475C246.299 128.046 248.001 127.77 249.718 127.65C250.784 127.536 251.861 127.602 252.905 127.846C253.936 128.128 254.915 128.741 255.438 129.669C255.9 130.489 255.973 131.464 256.034 132.402C256.159 134.332 256.276 136.262 255.956 138.162C255.75 139.369 255.365 140.536 255.116 141.732C254.307 145.655 255.009 149.714 254.937 153.718C254.92 154.572 254.864 155.448 254.503 156.222C254.118 157.045 253.425 157.669 252.75 158.287C252.006 158.955 251.251 159.628 250.355 160.074C249.028 160.738 247.5 160.849 246.015 160.894C245.112 160.921 244.182 160.923 243.351 160.593C242.521 160.262 241.773 159.52 241.712 158.62C241.615 157.093 243.344 156.094 243.838 154.647C244.231 153.494 243.78 152.22 243.155 151.171C242.153 149.498 240.724 148.121 239.012 147.179C238.377 146.832 237.702 146.54 237.174 146.05C236.646 145.56 236.288 144.801 236.513 144.12C236.782 143.298 237.743 142.914 238.608 142.832C239.472 142.75 240.385 142.813 241.162 142.43C241.855 142.089 242.337 141.433 242.669 140.741C243.375 139.263 243.473 137.569 242.942 136.02C242.732 135.431 242.428 134.88 242.041 134.387C241.678 133.924 240.932 133.534 240.673 133.027C240.213 132.115 241.208 130.629 241.826 129.906Z" fill="#FAFAFF"/>
<path opacity="0.06" d="M227.754 94.949C223.754 91.4273 218.177 90.4697 212.946 89.4011C210.251 88.8528 207.57 88.2417 204.901 87.5679C203.148 87.1241 201.39 86.6513 199.574 86.5283C197.757 86.4052 195.888 86.6585 194.333 87.58C192.779 88.5014 191.606 90.1706 191.597 91.9725C191.597 92.6961 191.769 93.4053 191.715 94.1217C191.631 95.2747 190.989 96.2926 190.551 97.3708C189.88 99.0752 189.778 100.949 190.258 102.716C191.033 105.531 193.265 108.011 193.072 110.917C192.749 115.783 192.849 120.867 193.851 125.631C194.854 130.395 196.106 135.181 196.077 140.056C196.048 144.931 194.566 150.057 190.911 153.303C193.387 155.619 196.415 157.267 199.709 158.092C202.526 158.794 205.875 158.724 207.88 156.632C208.345 156.15 208.73 155.506 208.633 154.842C208.533 154.424 208.357 154.027 208.112 153.673C206.734 151.215 206.901 148.185 207.512 145.44C208.122 142.695 209.166 140.027 209.43 137.224C209.623 135.191 209.405 133.124 209.795 131.117C210.096 129.58 210.745 128.133 211.134 126.616C212.285 122.115 211.076 117.389 209.875 112.905C210.88 115.209 212.781 117.006 214.747 118.569C217.731 120.937 221.339 123.029 225.131 122.609C228.507 122.233 231.382 119.895 233.365 117.153C233.382 113.981 234.486 110.983 234.29 107.818C234.163 106.428 233.914 105.051 233.544 103.705C233.174 102.2 232.793 100.68 232.091 99.2981C231.164 97.4625 229.299 96.3071 227.754 94.949Z" fill="black"/>
<path d="M228.582 94.949C224.582 91.4273 219.007 90.4697 213.774 89.4011C211.08 88.8528 208.399 88.2417 205.732 87.5679C203.979 87.1241 202.218 86.6513 200.404 86.5283C198.59 86.4052 196.721 86.6585 195.166 87.58C193.612 88.5014 192.437 90.1706 192.43 91.9725C192.43 92.6961 192.599 93.4053 192.546 94.1217C192.464 95.2747 191.807 96.2926 191.381 97.3708C190.712 99.0755 190.61 100.949 191.091 102.716C191.863 105.531 194.096 108.011 193.905 110.917C193.58 115.783 193.679 120.867 194.682 125.631C195.684 130.395 196.936 135.181 196.907 140.056C196.878 144.931 195.387 150.04 191.73 153.282C194.206 155.597 197.234 157.245 200.528 158.07C203.344 158.772 206.696 158.702 208.698 156.611C209.163 156.128 209.548 155.484 209.451 154.821C209.351 154.402 209.175 154.006 208.931 153.651C207.553 151.193 207.72 148.163 208.33 145.418C208.94 142.673 209.984 140.005 210.251 137.202C210.442 135.169 210.224 133.102 210.616 131.095C210.914 129.558 211.565 128.111 211.953 126.594C213.103 122.093 211.897 117.367 210.694 112.883C211.699 115.187 213.6 116.984 215.568 118.547C218.552 120.916 222.158 123.007 225.95 122.587C229.326 122.211 232.2 119.874 234.183 117.131C234.198 113.959 235.302 110.961 235.106 107.796C234.98 106.406 234.73 105.03 234.36 103.683C233.992 102.178 233.61 100.659 232.907 99.2764C232.006 97.4625 230.127 96.3071 228.582 94.949Z" fill="#A1616A"/>
<path d="M200.791 155.819C199.015 154.742 197.48 153.31 196.285 151.615C195.853 151.007 195.466 150.361 194.928 149.844C194.391 149.328 193.662 148.945 192.918 149.022C192.078 149.109 191.405 149.745 190.872 150.402C189.443 152.165 188.523 154.321 186.937 155.95C185.106 157.833 182.552 158.844 180.002 159.491C177.452 160.137 174.819 160.477 172.32 161.295C171.536 161.551 170.71 161.898 170.286 162.605C169.748 163.504 170.044 164.684 170.61 165.576C171.654 167.265 173.451 168.353 175.325 168.999C177.2 169.646 179.183 169.904 181.137 170.285C184.591 170.958 188.129 172.036 191.565 171.276C192.935 170.972 194.229 170.384 195.614 170.128C198.762 169.544 202.009 170.724 205.169 170.251C206.698 170.022 208.141 169.414 209.528 168.729C210.224 168.429 210.857 168.001 211.393 167.467C211.899 166.908 212.204 166.114 211.996 165.391C211.877 164.973 211.604 164.621 211.422 164.228C211.136 163.62 211.078 162.937 211.01 162.269C210.749 159.726 210.306 157.205 209.683 154.724C209.468 153.858 209.146 152.893 208.335 152.515C208.169 152.426 207.976 152.404 207.795 152.454C207.506 152.563 207.412 152.91 207.325 153.202C207.087 154.009 206.632 154.736 206.009 155.303C205.386 155.87 204.618 156.257 203.79 156.421C202.962 156.584 202.105 156.519 201.311 156.231C200.518 155.943 199.819 155.445 199.29 154.789" fill="#FAFAFF"/>
<path opacity="0.06" d="M187.729 48.8218C187.728 49.3924 187.696 49.9626 187.632 50.5296C186.869 50.6434 186.089 50.5763 185.357 50.3336C184.625 50.0909 183.961 49.6796 183.418 49.133C182.907 48.5926 182.525 47.9389 182.018 47.3938C181.512 46.8487 180.808 46.3952 180.081 46.4531C179.461 46.4989 178.924 46.8897 178.5 47.3432C177.948 47.9335 177.544 48.6451 177.321 49.42C177.158 49.9676 177.078 50.5899 176.623 50.9541C176.168 51.3184 175.608 51.2942 175.068 51.2749C174.369 51.2508 173.642 51.217 173.025 50.889C171.862 50.2643 171.47 48.8338 171.039 47.5892C170.312 45.4979 168.678 41.542 166.138 41.1198C164.927 40.9196 163.454 41.5564 162.505 42.2439C161.074 43.2787 160.018 43.9493 158.168 43.9203C159.334 40.5296 161.67 37.6609 164.761 35.8245C167.851 33.9881 171.495 33.303 175.044 33.891C178.594 34.4791 181.819 36.3022 184.146 39.0362C186.473 41.7701 187.751 45.2375 187.753 48.8218H187.729Z" fill="black"/>
<path d="M158.146 43.3678C157.71 43.3771 157.275 43.3085 156.863 43.1651C155.688 42.7068 155.117 41.356 155.018 40.1041C154.863 38.1961 155.502 36.3243 156.144 34.5176C156.279 34.1244 156.442 33.7023 156.795 33.4828C157.081 33.3428 157.394 33.2647 157.713 33.2537C159.452 33.0124 160.96 31.9535 162.244 30.7667C163.527 29.58 164.685 28.234 166.118 27.245C169.92 24.6327 175.563 25.1199 178.851 28.3425C180.154 29.6162 181.273 31.3432 183.079 31.6423C184.121 31.8136 185.237 31.4566 186.228 31.8426C186.954 32.1248 187.472 32.764 187.889 33.4177C189.24 35.5307 189.874 38.0345 190.085 40.5311C190.296 43.0276 190.102 45.5387 189.906 48.0352C189.917 48.409 189.82 48.7782 189.627 49.099C189.473 49.2841 189.278 49.4324 189.058 49.5332C188.138 49.9853 187.097 50.1372 186.085 49.9675C185.073 49.7978 184.14 49.315 183.418 48.5876C182.905 48.0497 182.525 47.396 182.019 46.8485C181.513 46.3009 180.808 45.8523 180.081 45.9101C179.464 45.956 178.921 46.3467 178.5 46.8002C177.949 47.3906 177.545 48.1021 177.321 48.8771C177.161 49.4246 177.079 50.047 176.623 50.4088C176.168 50.7706 175.609 50.7513 175.066 50.732C174.369 50.7055 173.642 50.6741 173.025 50.3437C171.86 49.7213 171.468 48.2909 171.039 47.0463C170.313 44.9549 168.68 40.9966 166.138 40.5769C164.927 40.3743 163.455 41.0135 162.505 41.701C161.052 42.7285 160.006 43.3991 158.146 43.3678Z" fill="#464353"/>
<path opacity="0.06" d="M77.9517 133.442C77.7846 134.542 76.7724 135.401 76.058 136.254C74.1159 138.589 72.1471 140.932 69.9749 143.069C67.6501 145.353 65.0977 147.389 62.5478 149.425L59.2398 152.061C58.8317 152.433 58.3535 152.72 57.8329 152.905C57.223 153.057 56.5786 152.981 56.0215 152.691C56.0699 152.594 56.1208 152.505 56.1765 152.416L60.1431 145.794C60.9228 144.497 61.4338 143.315 62.3225 142.097C63.6617 140.273 65.013 138.44 66.6621 136.894C68.7471 134.937 71.4206 133.517 73.9003 132.103C74.2587 131.032 75.7601 130.735 76.7748 131.242C77.1508 131.436 77.4894 131.695 77.7749 132.007C77.9567 132.462 78.0176 132.956 77.9517 133.442Z" fill="black"/>
<path d="M60.4199 146.067L56.4533 152.691C56.2911 152.959 56.124 153.263 56.1942 153.566C56.2833 153.822 56.4533 154.041 56.6785 154.191C58.1993 155.424 59.8848 156.724 60.3618 158.617C60.7033 159.968 60.3618 161.416 60.6669 162.771C61.2263 165.217 63.694 166.703 66.0284 167.644C71.2591 169.752 77.0662 170.562 82.6238 169.573C88.1814 168.584 93.4557 165.767 97.0542 161.435C98.1585 160.103 99.1029 158.646 100.152 157.271C103.057 153.472 106.746 150.353 110.405 147.266C115.115 143.291 117.89 137.362 122.028 132.793C122.782 131.961 123.612 131.105 124.692 130.83C125.298 130.678 126.145 130.902 126.169 131.524C126.225 132.73 127.199 133.717 127.865 134.725C130.373 138.546 132.998 142.485 136.875 144.921C138.997 146.258 141.401 147.075 143.799 147.816C149.877 149.702 156.074 151.193 162.264 152.669C162.576 152.047 162.951 151.458 163.382 150.911C164.024 150.127 164.869 149.529 165.514 148.74C166.693 147.319 167.107 145.44 167.485 143.636C163.787 141.38 159.992 139.053 156.345 136.708C154.51 135.531 152.662 134.327 151.175 132.735C150.206 131.688 149.393 130.489 148.422 129.435C147.428 128.413 146.358 127.467 145.22 126.606L136.502 119.652C133.999 117.657 131.446 115.551 128.995 113.486C127.618 112.324 126.089 111.101 124.288 111.045C122.745 110.997 121.326 111.82 119.999 112.611C112.205 117.26 104.294 121.7 96.2672 125.931C94.6423 126.784 93.0101 127.634 91.4603 128.615C88.4448 130.526 85.7675 132.921 83.5367 135.702C83.1275 136.211 82.6093 136.79 81.9603 136.713C81.7819 136.687 81.6101 136.627 81.4541 136.537C80.454 136.004 79.8413 134.974 79.2747 133.997C78.708 133.02 78.076 131.992 77.0613 131.486C76.0467 130.979 74.5477 131.276 74.1869 132.349C71.695 133.804 69.0312 135.212 66.9438 137.169C65.2947 138.715 63.9434 140.546 62.6042 142.372C61.7107 143.59 61.1973 144.772 60.4199 146.067Z" fill="#464353"/>
<path opacity="0.06" d="M53.9219 105.668C53.9219 105.668 57.9103 107.432 60.7702 109.422L53.9219 105.668Z" fill="black"/>
<path d="M253.672 109.294C253.745 111.545 253.803 113.8 253.776 116.048C253.762 117.24 253.711 118.482 253.137 119.526C252.728 120.276 252.081 120.863 251.442 121.437L247.453 125.038C246.216 126.155 244.882 127.32 243.233 127.597C241.346 127.916 239.503 127.002 237.689 126.391C235.863 125.778 233.95 125.458 232.023 125.443C230.919 125.443 229.805 125.53 228.715 125.356C227.927 125.207 227.154 124.988 226.405 124.703L222.804 123.458C222.905 122.554 223.772 121.977 224.499 121.405C227.078 119.321 228.209 115.971 229.022 112.765C229.684 110.262 230.155 107.714 230.432 105.14C230.555 103.867 230.611 102.571 230.342 101.319C230.089 100.31 229.732 99.3283 229.277 98.3912L228.01 95.5473C227.284 93.9408 225.831 93.2268 224.351 92.2788C226.584 93.1231 229.306 93.4535 231.003 95.1275C231.331 95.4985 231.719 95.8116 232.151 96.0538C232.614 96.2733 233.139 96.295 233.645 96.377C236.166 96.7533 238.309 98.3309 240.392 99.7902C242.941 101.578 245.561 103.258 248.253 104.829C249.463 105.538 250.713 106.235 251.732 107.203C252.752 108.17 253.551 109.458 253.616 110.86" fill="#464353"/>
<path opacity="0.06" d="M36.5105 105.343C33.3358 105.968 31.6842 109.685 31.8707 112.9C32.0499 115.772 33.2341 118.491 35.2174 120.583C36.542 121.97 38.1935 123.041 39.3898 124.539C41.1576 126.748 41.7727 129.669 43.354 132.016C44.5019 133.719 46.1122 135.056 47.7129 136.337C51.4035 139.27 55.2143 142.046 59.1454 144.666C60.7437 145.729 62.4921 146.805 64.4149 146.764C66.2262 146.726 67.8947 145.667 69.0765 144.297C70.2582 142.927 71.0138 141.262 71.7814 139.622C74.5469 133.616 77.3318 127.544 78.654 121.07C79.0681 119.037 79.3466 116.941 80.2717 115.081C80.9981 113.634 82.0733 112.394 83.0323 111.086C85.2979 107.984 86.8881 104.445 87.7012 100.695C88.2291 98.2489 88.4059 95.6293 87.5389 93.2896C86.672 90.9498 84.5676 88.9212 82.0612 88.7379C80.0779 88.5931 78.1309 89.6062 76.799 91.0801C75.4672 92.5539 74.6825 94.4377 74.1474 96.3458C73.3801 99.0907 73.0854 101.945 73.2756 104.788C73.4306 107.082 73.9004 109.398 73.5032 111.665C73.2223 113.264 72.5225 114.758 71.8299 116.229C70.0403 120.026 68.2217 123.871 65.5167 127.084C64.6352 128.13 63.422 129.189 62.0732 128.943C60.2085 128.606 59.7145 126.254 58.7943 124.602C57.6658 122.575 55.5251 121.357 53.8469 119.748C51.4592 117.457 50.028 114.384 48.3304 111.547C46.6329 108.71 44.4365 105.91 41.3077 104.822C38.179 103.734 34.009 105.131 33.205 108.334" fill="black"/>
<path opacity="0.06" d="M38.9057 107.545C35.7286 108.17 31.6844 108.578 31.883 111.798C32.0602 114.67 33.2447 117.389 35.2297 119.48C36.5543 120.87 38.2059 121.941 39.4022 123.439C41.1699 125.648 41.785 128.567 43.3663 130.916C44.5142 132.622 46.1246 133.958 47.7253 135.236C51.4158 138.171 55.2267 140.948 59.1578 143.566C60.756 144.632 62.5044 145.708 64.4272 145.667C66.2386 145.628 67.9071 144.567 69.0888 143.199C70.2706 141.831 71.0261 140.164 71.7938 138.522C74.5593 132.516 77.3441 126.444 78.6663 119.97C79.0804 117.939 79.3589 115.84 80.284 113.983C81.0105 112.536 82.0857 111.296 83.0446 109.986C85.3106 106.885 86.9009 103.346 87.7135 99.5971C88.2414 97.1488 88.4182 94.5316 87.5513 92.1894C86.6843 89.8473 84.5799 87.8235 82.0736 87.6377C80.0903 87.493 78.1433 88.5085 76.8114 89.9799C75.4795 91.4513 74.6949 93.3376 74.1597 95.248C73.3923 97.9929 73.0976 100.848 73.2879 103.691C73.4429 105.987 73.9127 108.303 73.5156 110.568C73.2346 112.169 72.5348 113.662 71.8422 115.134C70.0526 118.93 68.234 122.773 65.529 125.988C64.6476 127.035 63.4343 128.092 62.0855 127.848C60.2208 127.508 59.7268 125.156 58.8066 123.506C57.6781 121.48 55.5374 120.262 53.8592 118.653C51.4715 116.364 50.0403 113.288 48.3428 110.452C46.6452 107.615 44.4488 104.817 41.3201 103.727C38.1913 102.636 42.1095 109.62 41.3031 112.823" fill="black"/>
<path d="M36.5105 104.791C33.3358 105.415 31.6842 109.132 31.8707 112.348C32.0493 115.221 33.2336 117.94 35.2174 120.033C36.542 121.42 38.1935 122.491 39.3898 123.989C41.1576 126.198 41.7727 129.119 43.354 131.466C44.5019 133.172 46.1122 134.508 47.7129 135.789C51.4035 138.722 55.2143 141.498 59.1454 144.116C60.7437 145.182 62.4921 146.258 64.4149 146.217C66.2262 146.178 67.8947 145.119 69.0765 143.749C70.2582 142.379 71.0138 140.714 71.7814 139.074C74.5469 133.068 77.3318 126.997 78.654 120.52C79.0681 118.489 79.3466 116.39 80.2717 114.533C80.9981 113.086 82.0733 111.846 83.0323 110.536C85.2982 107.435 86.8885 103.896 87.7012 100.147C88.2291 97.6988 88.4059 95.0817 87.5389 92.7395C86.672 90.3973 84.5676 88.3735 82.0612 88.1902C80.0779 88.043 78.1309 89.0585 76.799 90.5324C75.4672 92.0062 74.6825 93.8901 74.1474 95.7981C73.3801 98.543 73.0854 101.398 73.2756 104.241C73.4306 106.534 73.9004 108.85 73.5032 111.115C73.2223 112.717 72.5225 114.21 71.8299 115.681C70.0403 119.478 68.2217 123.323 65.5167 126.536C64.6352 127.583 63.422 128.639 62.0732 128.396C60.2085 128.056 59.7145 125.706 58.7943 124.054C57.6658 122.025 55.5251 120.807 53.8469 119.201C51.4592 116.909 50.028 113.836 48.3304 110.999C46.6329 108.163 44.4365 105.365 41.3077 104.277C38.179 103.189 34.009 104.585 33.205 107.789" fill="#FBBEBE"/>
<g opacity="0.06">
<path opacity="0.06" d="M24.3761 85.5222C23.3698 83.8669 22.5241 82.1199 21.8504 80.3048L21.7681 80.0636C21.257 79.5172 20.8273 78.9006 20.4919 78.2328C19.9727 77.095 19.6909 75.864 19.6637 74.6145C19.6637 74.5687 19.6637 74.5229 19.6637 74.4771C19.4904 74.863 19.3628 75.2678 19.2835 75.6831C19.0413 77.0436 19.4409 78.433 19.9204 79.7307C20.5945 81.5456 21.4402 83.2926 22.4461 84.9481C23.9499 87.4519 25.8703 89.8641 26.1681 92.7369C26.6162 97.0354 23.3615 100.82 22.5575 105.068C21.9424 108.312 22.7222 111.938 20.981 114.745C20.2851 115.804 19.3505 116.686 18.2519 117.321C17.5628 117.759 16.8083 118.085 16.0167 118.286C15.8723 118.457 15.717 118.618 15.5518 118.769C17.0895 119.299 18.8016 118.728 20.1867 117.879C21.285 117.242 22.2194 116.359 22.9159 115.3C24.6571 112.492 23.8846 108.867 24.49 105.623C25.2964 101.377 28.551 97.5902 28.103 93.2917C27.8027 90.402 25.8848 87.9923 24.3761 85.5222Z" fill="black"/>
<path opacity="0.06" d="M52.3215 64.2954C51.6991 62.8602 50.3842 61.8423 49.0329 61.0439C47.32 60.02 45.4559 59.2712 43.5092 58.8247C44.7585 59.2591 45.9609 59.8175 47.0981 60.4915C48.4493 61.2923 49.7618 62.3078 50.389 63.7455C51.0162 65.1831 50.7039 67.1225 49.3574 67.9233C48.4082 68.4901 47.224 68.3888 46.1173 68.3647C45.1609 68.3429 44.2042 68.3913 43.2549 68.5094C42.9122 68.5341 42.5771 68.6225 42.2669 68.7699C41.8628 69.0307 41.5445 69.404 41.3515 69.8434C40.9622 70.5851 40.7002 71.3866 40.5766 72.2145C40.441 73.1407 40.4531 74.1563 39.8719 74.892C39.0825 75.893 37.8475 75.741 36.7238 75.9388C35.748 76.1254 34.8128 76.4813 33.9608 76.9905C32.1058 78.1073 30.7812 80.148 30.6964 82.3262C30.6673 83.1029 30.7739 83.8965 30.5632 84.6442C30.4273 85.0805 30.2141 85.4889 29.9336 85.8503C30.3627 86.3072 30.738 86.8114 31.0524 87.3531C31.6457 86.709 32.2632 86.0336 32.5054 85.1942C32.7185 84.4464 32.6095 83.6504 32.641 82.8737C32.7257 80.7028 34.0504 78.6573 35.9053 77.5381C36.7567 77.028 37.6922 76.6728 38.6684 76.4888C39.7872 76.2886 41.0222 76.4406 41.8165 75.4395C42.3977 74.7159 42.3832 73.6883 42.5212 72.762C42.6439 71.9342 42.9051 71.1328 43.2937 70.3909C43.4879 69.9555 43.8062 69.5865 44.2091 69.3296C44.5184 69.18 44.8539 69.0916 45.1971 69.0691C46.1464 68.9513 47.103 68.9021 48.0594 68.9219C49.1661 68.9484 50.3503 69.0473 51.2996 68.4805C52.6363 67.6724 52.9439 65.7427 52.3215 64.2954Z" fill="black"/>
</g>
<path opacity="0.06" d="M36.4648 87.3435C36.4648 87.3435 39.3248 89.7943 44.7565 88.3084C44.7565 88.3035 41.3928 89.623 36.4648 87.3435Z" fill="black"/>
<path opacity="0.06" d="M189.853 45.9994C189.859 46.3719 189.758 46.7383 189.562 47.056C189.407 47.2403 189.213 47.3878 188.993 47.4877C188.073 47.9403 187.033 48.0927 186.022 47.9234C185.01 47.7542 184.077 47.2717 183.356 46.5446C182.842 46.0043 182.462 45.3385 181.956 44.8054C181.45 44.2723 180.745 43.8068 180.019 43.8647C179.401 43.9129 178.861 44.3037 178.437 44.7548C177.889 45.3471 177.485 46.058 177.258 46.8316C177.101 47.3816 177.016 48.0015 176.563 48.3657C176.11 48.73 175.548 48.7059 175.006 48.6866C174.306 48.6624 173.58 48.6311 172.965 48.3006C171.8 47.6783 171.407 46.2455 170.976 45.0032C170.25 42.9095 168.618 38.9536 166.077 38.5315C164.867 38.3313 163.392 38.9705 162.445 39.6555C161.014 40.6903 159.958 41.3609 158.106 41.344C157.669 41.3524 157.235 41.2838 156.822 41.1414C155.757 40.7241 155.187 39.5711 155.016 38.4277C154.95 38.9518 154.936 39.481 154.974 40.0077C155.076 41.2572 155.648 42.608 156.822 43.0687C157.235 43.2111 157.669 43.2797 158.106 43.2713C159.958 43.3003 161.011 42.6297 162.445 41.5949C163.397 40.9098 164.867 40.2682 166.077 40.4708C168.608 40.8809 170.255 44.8368 170.967 46.9281C171.398 48.1728 171.79 49.6056 172.955 50.2279C173.57 50.556 174.296 50.5897 174.996 50.6139C175.539 50.6332 176.134 50.6356 176.553 50.293C176.972 49.9505 177.091 49.3065 177.248 48.7589C177.475 47.985 177.879 47.2741 178.428 46.6821C178.852 46.231 179.396 45.8402 180.009 45.792C180.755 45.7341 181.462 46.1852 181.946 46.7327C182.431 47.2803 182.833 47.9388 183.346 48.4719C184.067 49.199 185 49.6814 186.012 49.8507C187.024 50.02 188.064 49.8676 188.984 49.415C189.203 49.3143 189.397 49.1669 189.553 48.9833C189.748 48.6649 189.849 48.2976 189.843 47.9243C190.033 45.8926 190.114 43.8523 190.085 41.812C190.066 43.2086 189.962 44.6052 189.853 45.9994Z" fill="black"/>
<path d="M21.7485 148.901C21.7485 148.901 22.1335 148.474 21.4095 148.305V147.603H21.8453C21.8444 146.755 21.5512 145.933 21.0148 145.275C20.4783 144.616 19.7312 144.161 18.8982 143.985V143.134H19.012V142.027H16.2102V143.134H16.2901V143.995C15.465 144.179 14.7275 144.638 14.1993 145.296C13.671 145.953 13.3835 146.771 13.3842 147.613H13.7692V148.286C13.7692 148.286 12.8514 148.718 13.7692 149.492C14.687 150.266 14.5442 150.826 14.5442 150.826C14.5442 150.826 14.1591 152.273 13.3866 152.462V165.88C13.3863 166.272 13.4635 166.66 13.6138 167.022C13.764 167.384 13.9845 167.713 14.2624 167.99C14.5404 168.267 14.8705 168.487 15.2338 168.637C15.5971 168.787 15.9865 168.864 16.3797 168.864H18.7457C19.5401 168.864 20.3021 168.55 20.8638 167.99C21.4256 167.431 21.7412 166.672 21.7412 165.88V152.462C21.7412 152.462 20.3875 151.451 20.6297 150.826C20.9546 150.158 21.3285 149.515 21.7485 148.901Z" fill="#464353"/>
</g>
<defs>
<linearGradient id="paint0_linear_52_2162" x1="134.403" y1="171.231" x2="134.403" y2="23.8729" gradientUnits="userSpaceOnUse">
<stop stop-color="#808080" stop-opacity="0.25"/>
<stop offset="0.54" stop-color="#808080" stop-opacity="0.12"/>
<stop offset="1" stop-color="#808080" stop-opacity="0.1"/>
</linearGradient>
<clipPath id="clip0_52_2162">
<rect width="279" height="186" fill="white"/>
</clipPath>
</defs>
</svg>
