<svg width="290" height="190" viewBox="0 0 290 190" fill="none" xmlns="http://www.w3.org/2000/svg">
<path opacity="0.1" d="M5.61551 60.5787C3.43198 67.1899 9.85179 73.1357 14.9012 77.9243C21.8127 84.4935 27.2663 92.4425 30.9081 101.256C33.103 106.582 34.6297 112.311 34.2203 118.058C33.0603 134.357 17.7131 145.217 5.45061 156.014C3.71345 157.558 1.97629 159.173 0.964137 161.254C-2.28557 167.934 3.23865 175.631 9.32296 179.891C30.9905 195.053 62.265 190.543 83.2815 174.491C94.165 166.177 103.519 154.871 116.708 151.174C125.141 148.822 134.091 149.937 142.817 150.662C155.9 151.746 169.044 151.902 182.149 151.129C186.749 150.844 191.56 150.401 195.412 147.873C205.167 141.48 203.521 126.324 210.56 117.026C215.621 110.344 224.267 107.767 231.793 104.074C243.377 98.3567 253.042 89.3861 259.607 78.2598C265.649 67.9747 268.779 56.2821 271.833 44.7543C274.136 36.0929 276.447 27.022 274.497 18.2724C272.546 9.52279 264.847 1.35329 255.92 2.12104C249.065 2.70966 243.612 8.12661 237.01 10.0659C221.196 14.7236 205.843 -1.45329 189.439 0.107812C179.109 1.08884 170.779 8.9228 164.482 17.1691C158.184 25.4154 152.853 34.6995 144.537 40.9098C131.601 50.5779 113.877 50.9191 98.0402 47.7884C82.204 44.6576 67.0102 38.4957 50.9977 36.4426C41.5641 35.2341 34.334 40.8558 25.8387 43.9468C18.0429 46.7846 8.50414 51.8348 5.61551 60.5787Z" fill="#FAFAFF"/>
<path opacity="0.1" d="M39.221 190C50.6428 190 59.902 187.187 59.902 183.716C59.902 180.245 50.6428 177.432 39.221 177.432C27.7992 177.432 18.54 180.245 18.54 183.716C18.54 187.187 27.7992 190 39.221 190Z" fill="#FAFAFF"/>
<path opacity="0.1" d="M234.767 107.005C265.272 107.005 290 105.364 290 103.34C290 101.316 265.272 99.6748 234.767 99.6748C204.262 99.6748 179.533 101.316 179.533 103.34C179.533 105.364 204.262 107.005 234.767 107.005Z" fill="#FAFAFF"/>
<g opacity="0.5">
<path opacity="0.5" d="M201.374 19.4497C202.14 19.4497 202.875 19.7541 203.417 20.2959C203.958 20.8377 204.263 21.5725 204.263 22.3387V102.669H198.485V22.3359C198.486 21.5702 198.791 20.8361 199.332 20.2949C199.874 19.7537 200.608 19.4497 201.374 19.4497Z" fill="#FAFAFF"/>
<path opacity="0.5" d="M264.755 19.4497C265.522 19.4497 266.256 19.7541 266.798 20.2959C267.34 20.8377 267.644 21.5726 267.644 22.3388V102.669H261.853V22.3359C261.853 21.9556 261.928 21.579 262.075 21.2279C262.221 20.8768 262.435 20.558 262.705 20.2899C262.974 20.0217 263.294 19.8095 263.646 19.6653C263.998 19.5211 264.375 19.4479 264.755 19.4497Z" fill="#FAFAFF"/>
<path opacity="0.5" d="M281.615 37.4067C283.211 37.4067 284.504 36.1133 284.504 34.5177C284.504 32.9221 283.211 31.6287 281.615 31.6287L184.516 31.6287C182.921 31.6287 181.628 32.9221 181.628 34.5177C181.628 36.1133 182.921 37.4067 184.516 37.4067L281.615 37.4067Z" fill="#FAFAFF"/>
<path opacity="0.5" d="M196.768 25.9273C196.768 24.6772 195.754 23.6638 194.504 23.6638C193.254 23.6638 192.241 24.6772 192.241 25.9273V43.1023C192.241 44.3524 193.254 45.3658 194.504 45.3658C195.754 45.3658 196.768 44.3524 196.768 43.1023V25.9273Z" fill="#FAFAFF"/>
<path opacity="0.5" d="M192.241 27.9576C192.241 26.7075 191.228 25.6941 189.978 25.6941C188.728 25.6941 187.715 26.7075 187.715 27.9576V41.0748C187.715 42.3249 188.728 43.3383 189.978 43.3383C191.228 43.3383 192.241 42.3249 192.241 41.0748V27.9576Z" fill="#FAFAFF"/>
<path opacity="0.5" d="M269.361 43.1023C269.361 44.3523 270.375 45.3657 271.625 45.3657C272.874 45.3657 273.888 44.3523 273.888 43.1023V25.9273C273.888 24.6772 272.874 23.6638 271.625 23.6638C270.375 23.6638 269.361 24.6772 269.361 25.9273V43.1023Z" fill="#FAFAFF"/>
<path opacity="0.5" d="M273.888 41.072C273.888 42.3221 274.901 43.3354 276.151 43.3354C277.401 43.3354 278.414 42.3221 278.414 41.072V27.9547C278.414 26.7046 277.401 25.6913 276.151 25.6913C274.901 25.6913 273.888 26.7046 273.888 27.9547V41.072Z" fill="#FAFAFF"/>
</g>
<g opacity="0.5">
<path opacity="0.5" d="M227.298 53.072H239.108C240.39 53.072 241.619 53.5813 242.526 54.4879C243.432 55.3944 243.941 56.624 243.941 57.906V78.1976H222.476V57.906C222.476 56.626 222.983 55.3981 223.887 54.4919C224.791 53.5857 226.018 53.075 227.298 53.072Z" fill="#FAFAFF"/>
<path opacity="0.5" d="M234.766 76.3748H231.624V86.8475H234.766V76.3748Z" fill="#FAFAFF"/>
<path opacity="0.5" d="M228.482 88.1558H225.341V98.6285H228.482V88.1558Z" fill="#FAFAFF"/>
<path opacity="0.5" d="M241.572 88.1558H238.431V98.6285H241.572V88.1558Z" fill="#FAFAFF"/>
<path opacity="0.5" d="M243.93 86.0601H222.464V88.9406H243.93V86.0601Z" fill="#FAFAFF"/>
</g>
<path opacity="0.1" d="M134.506 172.981C199.563 172.981 252.303 169.114 252.303 164.343C252.303 159.572 199.563 155.704 134.506 155.704C69.4484 155.704 16.709 159.572 16.709 164.343C16.709 169.114 69.4484 172.981 134.506 172.981Z" fill="#FAFAFF"/>
<path d="M165.004 133.578C165.004 133.578 173.118 137.244 177.045 137.244C177.045 137.244 181.233 138.29 183.584 139.339C185.935 140.389 195.101 140.909 195.101 140.909C195.101 140.909 205.834 144.836 207.142 146.67C208.45 148.504 212.376 140.13 212.376 140.13L210.281 134.895L170.761 127.303L165.004 133.578Z" fill="#FFB9B9"/>
<path opacity="0.05" d="M165.004 133.578C165.004 133.578 173.118 137.244 177.045 137.244C177.045 137.244 181.233 138.29 183.584 139.339C185.935 140.389 195.101 140.909 195.101 140.909C195.101 140.909 205.834 144.836 207.142 146.67C208.45 148.504 212.376 140.13 212.376 140.13L210.281 134.895L170.761 127.303L165.004 133.578Z" fill="black"/>
<path d="M205.056 145.1C205.056 145.1 210.028 151.641 207.936 155.573C205.843 159.506 206.628 159.5 207.936 159.762C209.244 160.023 216.573 161.596 217.361 155.835C218.148 150.074 219.718 137.247 219.718 137.247L208.971 136.197C208.971 136.197 211.862 145.885 205.056 145.1Z" fill="#737A9D"/>
<path d="M143.277 124.94L165.789 135.413C165.789 135.413 172.857 129.913 172.329 127.035L146.152 120.751L143.277 124.94Z" fill="#4C4C78"/>
<path opacity="0.1" d="M143.277 124.94L165.789 135.413C165.789 135.413 172.857 129.913 172.329 127.035L146.152 120.751L143.277 124.94Z" fill="black"/>
<path d="M237.777 138.555L235.412 144.313L229.925 145.615C228.387 144.332 226.742 143.183 225.009 142.18C222.055 140.474 218.168 138.805 214.489 139.069C214.489 139.069 199.83 136.712 199.045 135.657C199.045 135.657 189.62 133.561 187.528 133.823C186.518 133.948 184.349 133.223 182.376 132.435C180.258 131.582 178.364 130.681 178.364 130.681L185.171 119.947C185.965 120.288 186.782 120.573 187.616 120.8C190.217 121.562 194.9 122.551 201.664 122.551C212.658 122.551 227.841 133.809 227.841 133.809C227.841 133.809 227.991 133.86 228.25 133.937C229.387 134.281 232.628 135.091 234.124 133.809C235.943 132.27 237.777 138.555 237.777 138.555Z" fill="#FFB9B9"/>
<path opacity="0.1" d="M237.777 138.554L235.412 144.313L229.925 145.615C228.387 144.332 226.742 143.182 225.009 142.18C232.992 142.78 228.224 133.965 228.224 133.965H228.241C229.379 134.309 232.62 135.119 234.115 133.837C235.944 132.27 237.777 138.554 237.777 138.554Z" fill="black"/>
<path d="M225.04 142.402C225.04 142.402 231.372 151.282 228.708 156.284C226.044 161.286 227.042 161.283 228.708 161.619C230.374 161.954 239.708 163.953 240.706 156.62C241.473 150.981 240.8 140.158 240.447 135.461C240.424 135.164 240.343 134.875 240.208 134.61C240.073 134.345 239.886 134.11 239.659 133.918C239.432 133.726 239.169 133.581 238.886 133.491C238.602 133.402 238.304 133.37 238.008 133.396L228.747 134.249C228.747 134.249 233.706 143.403 225.04 142.402Z" fill="#737A9D"/>
<path d="M74.6924 151.12L74.954 163.95L77.8341 166.043H87.7822L89.6132 163.427V151.12L86.7331 148.501H77.3109L74.6924 151.12Z" fill="#FAFAFF"/>
<path opacity="0.2" d="M76.2618 151.382C76.2618 151.382 78.0956 163.163 76.2618 164.212L74.954 163.95L74.6924 151.385L76.2618 151.382Z" fill="white"/>
<path d="M97.7274 150.335L99.8228 148.24H109.774L111.869 150.335C111.869 150.335 114.488 157.928 112.392 162.901L110.03 165.258H100.079L97.7217 163.163L97.7274 150.335Z" fill="#FAFAFF"/>
<path opacity="0.1" d="M74.6924 151.12L74.954 163.95L77.8341 166.043H87.7822L89.6132 163.427V151.12L86.7331 148.501H77.3109L74.6924 151.12Z" fill="black"/>
<path opacity="0.1" d="M97.7274 150.335L99.8228 148.24H109.774L111.869 150.335C111.869 150.335 114.488 157.928 112.392 162.901L110.03 165.258H100.079L97.7217 163.163L97.7274 150.335Z" fill="black"/>
<path opacity="0.2" d="M100.079 150.859C100.079 150.859 102.174 160.023 100.079 163.163H97.7217V150.335L100.079 150.859Z" fill="white"/>
<path d="M89.6133 106.875C89.6133 106.875 90.6596 117.086 90.6596 118.394C90.6596 119.702 90.1364 128.346 91.7058 136.721C93.2752 145.095 90.6596 155.568 90.6596 155.568H99.297L102.962 127.291L100.343 112.368L99.297 107.657L89.6133 106.875Z" fill="#FFB9B9"/>
<path opacity="0.05" d="M89.6133 106.875C89.6133 106.875 90.6596 117.086 90.6596 118.394C90.6596 119.702 90.1364 128.346 91.7058 136.721C93.2752 145.095 90.6596 155.568 90.6596 155.568H99.297L102.962 127.291L100.343 112.368L99.297 107.657L89.6133 106.875Z" fill="black"/>
<path d="M88.0433 80.9556C88.0433 80.9556 76.5257 81.2172 85.6863 100.329C85.6863 100.329 88.0433 108.183 88.0433 109.493C88.0433 110.804 99.8224 110.801 101.122 109.493C102.421 108.185 99.0263 97.451 99.0263 92.4748C99.0263 87.4986 95.6345 79.386 88.0433 80.9556Z" fill="#CBCDDA"/>
<path opacity="0.05" d="M88.0433 80.9556C88.0433 80.9556 76.5257 81.2172 85.6863 100.329C85.6863 100.329 88.0433 108.183 88.0433 109.493C88.0433 110.804 99.8224 110.801 101.122 109.493C102.421 108.185 99.0263 97.451 99.0263 92.4748C99.0263 87.4986 95.6345 79.386 88.0433 80.9556Z" fill="black"/>
<path d="M74.1687 69.6924C74.1687 69.6924 84.1196 80.4268 92.4927 72.5729L91.4464 100.326C91.4464 100.326 77.8335 83.8333 68.417 85.1413L74.1687 69.6924Z" fill="#FFB9B9"/>
<path opacity="0.1" d="M187.604 120.831C187.206 123.899 185.955 130.359 182.364 132.452C180.246 131.599 178.353 130.698 178.353 130.698L185.159 119.963C185.952 120.31 186.77 120.6 187.604 120.831Z" fill="black"/>
<path d="M186.993 119.17C186.993 119.17 186.208 132 179.925 133.047L141.975 126.199C140.133 125.865 138.401 125.084 136.931 123.924C135.398 122.719 133.519 121.081 132.407 119.58C131.805 118.761 131.441 117.979 131.501 117.333C131.762 114.453 143.28 107.645 139.353 95.6028C139.912 95.1607 140.532 94.8042 141.196 94.545C144.474 93.1829 152.019 92.182 162.912 103.457C162.912 103.471 183.067 119.705 186.993 119.17Z" fill="#4C4C78"/>
<path d="M84.3789 152.167L84.6405 164.997L87.5177 167.092H97.4659L99.2997 164.473V152.167L96.4196 149.551H86.9946L84.3789 152.167Z" fill="#FAFAFF"/>
<path opacity="0.2" d="M85.9483 152.44C85.9483 152.44 87.7822 164.221 85.9483 165.27L84.6405 165.008L84.3789 152.44H85.9483Z" fill="white"/>
<path d="M113.174 151.12L115.269 149.024H125.22L127.316 151.12C127.316 151.12 129.934 158.712 127.839 163.686L125.482 166.043H115.531L113.174 163.947V151.12Z" fill="#FAFAFF"/>
<path opacity="0.2" d="M115.528 151.643C115.528 151.643 117.623 160.808 115.528 163.947H113.171V151.12L115.528 151.643Z" fill="white"/>
<path d="M99.2258 156.096H113.387C114.496 156.096 115.395 157.092 115.395 158.323C115.395 159.551 114.496 160.549 113.387 160.549H99.2258C98.0231 160.549 97.0906 159.386 97.2356 158.064C97.3522 156.941 98.2108 156.096 99.2258 156.096Z" fill="#FAFAFF"/>
<path opacity="0.1" d="M140.135 115.252C137.335 117.214 134.383 118.499 132.405 119.594C131.802 118.775 131.438 117.993 131.498 117.347C131.759 114.467 143.277 107.66 139.35 95.6171C139.909 95.1751 140.53 94.8185 141.193 94.5593C141.808 94.5463 142.419 94.4623 143.015 94.3091C143.015 94.3091 145.369 111.586 140.135 115.252Z" fill="black"/>
<path d="M81.368 89.9867C81.368 89.9867 85.2944 93.9137 89.0899 96.4018C92.5927 98.6965 86.3406 75.587 86.3406 75.587C86.3406 75.587 90.2187 72.4591 92.496 70.6023C94.0169 69.3509 95.9548 68.7211 97.9207 68.8393C103.161 69.1777 112.759 71.3814 120.504 82.0049C131.76 97.451 141.969 94.3089 141.969 94.3089C141.969 94.3089 144.326 111.589 139.089 115.254C133.852 118.92 128.095 120.228 129.138 122.324C130.182 124.419 124.427 112.112 111.337 110.019C98.2477 107.927 83.85 98.7619 84.1145 94.3117C84.1173 94.3089 80.3217 91.3033 81.368 89.9867Z" fill="#CBCDDA"/>
<path opacity="0.1" d="M78.6187 76.5169C78.6174 75.76 78.5508 75.0046 78.4196 74.2591C74.9908 72.553 75.477 70.2327 75.477 70.2327L69.7168 85.6788C71.8236 85.3945 74.1407 85.9859 76.4664 87.1006C79.5285 84.6807 78.6187 80.6941 78.6187 76.5169Z" fill="black"/>
<path d="M67.1005 89.3357C74.3298 89.3357 80.1903 83.4744 80.1903 76.244C80.1903 69.0137 74.3298 63.1523 67.1005 63.1523C59.8712 63.1523 54.0107 69.0137 54.0107 76.244C54.0107 83.4744 59.8712 89.3357 67.1005 89.3357Z" fill="#FFB9B9"/>
<path opacity="0.1" d="M55.2078 79.1956C54.9662 79.9718 54.5937 80.7709 53.8915 81.186C53.0385 81.6922 51.8615 81.442 51.1023 80.7879C50.3432 80.1339 49.9338 79.1557 49.7206 78.1776C49.4134 76.7612 49.4623 75.2908 49.8627 73.898C50.2039 72.718 50.7924 71.6232 51.0398 70.4147C51.3042 69.1294 51.1706 67.7844 51.4663 66.5048C51.8672 64.7703 53.0101 63.3172 54.1246 61.9267C54.4739 61.396 54.9266 60.9411 55.4556 60.5893C55.9847 60.2375 56.5792 59.9961 57.2037 59.8794L62.6825 58.2273C63.7211 57.8793 64.7887 57.6243 65.8725 57.4652C67.2657 57.3225 68.6734 57.446 70.0206 57.8292C71.0934 58.099 72.1112 58.5532 73.0286 59.1713C73.9376 59.8467 74.7382 60.657 75.4026 61.5741C78.2998 65.3617 79.9517 71.5578 82.9398 75.2857C81.7599 75.6497 80.58 74.4326 79.4001 74.8023C79.2324 74.8746 79.0455 74.8896 78.8684 74.8449C78.693 74.7497 78.5555 74.5971 78.4789 74.4127C77.4391 72.5961 75.8027 71.1955 73.8475 70.4488C72.3974 69.9 70.4357 69.9029 69.6425 71.2336C69.1051 72.1322 69.3212 73.2668 69.4633 74.3047C69.6055 75.3426 69.5799 76.5795 68.7582 77.2193C68.3042 77.5262 67.7757 77.705 67.2286 77.7368C64.6785 78.0711 62.0857 77.8172 59.6488 76.9947C58.7959 76.7103 57.9287 75.8203 57.0274 76.1046C55.8106 76.4885 55.5291 78.1634 55.2078 79.1956Z" fill="black"/>
<path d="M54.9207 78.9083C54.6791 79.6846 54.3066 80.4836 53.6044 80.8988C52.7514 81.4049 51.5744 81.1547 50.8152 80.5007C50.0561 79.8467 49.6467 78.8685 49.4335 77.8903C49.1263 76.474 49.1752 75.0036 49.5756 73.6108C49.9168 72.4307 50.5053 71.3359 50.7527 70.1274C51.0171 68.8421 50.8835 67.4972 51.1792 66.2176C51.5801 64.483 52.723 63.0299 53.8375 61.6394C54.1868 61.1087 54.6395 60.6538 55.1685 60.3021C55.6976 59.9503 56.2921 59.7088 56.9166 59.5921L62.3953 57.94C63.4341 57.593 64.5016 57.339 65.5853 57.1808C66.9786 57.0381 68.3863 57.1616 69.7335 57.5447C70.8063 57.8146 71.8241 58.2687 72.7415 58.8869C73.6505 59.5623 74.4511 60.3726 75.1155 61.2897C78.0127 65.0773 79.6646 71.2734 82.6527 75.0013C81.4728 75.3652 80.2929 74.1482 79.113 74.5179C78.9453 74.5902 78.7584 74.6052 78.5813 74.5605C78.4038 74.4663 78.2642 74.3136 78.1861 74.1283C77.1464 72.3117 75.5099 70.9111 73.5547 70.1644C72.1047 69.6156 70.1429 69.6184 69.3497 70.9492C68.8123 71.8478 69.0284 72.9824 69.1705 74.0202C69.3127 75.0581 69.2871 76.2951 68.4654 76.9349C68.0114 77.2418 67.483 77.4206 66.9358 77.4524C64.3857 77.7867 61.7929 77.5328 59.356 76.7102C58.5031 76.4259 57.6359 75.5359 56.7347 75.8202C55.5235 76.2012 55.242 77.8761 54.9207 78.9083Z" fill="#B96B6B"/>
<g opacity="0.1">
<path opacity="0.1" d="M87.2269 74.8733L86.3398 75.5899C86.3398 75.5899 90.0047 89.1337 90.1497 94.4539C92.0205 93.9478 88.421 79.4571 87.2269 74.8733Z" fill="black"/>
<path opacity="0.1" d="M139.598 113.159C134.363 116.824 128.603 118.132 129.647 120.228C130.69 122.323 124.936 110.017 111.846 107.924C99.5663 105.959 86.1353 97.7723 84.7365 93.0918C82.7747 91.4141 81.3475 89.9895 81.3475 89.9895C80.3012 91.2975 84.0968 94.3088 84.0968 94.3088C83.8352 98.759 98.2329 107.924 111.32 110.017C124.407 112.109 130.167 124.416 129.121 122.321C128.074 120.225 133.832 118.908 139.072 115.252C140.57 114.202 141.446 112.038 141.935 109.482C141.429 111.1 140.678 112.411 139.598 113.159Z" fill="black"/>
</g>
<path d="M113.174 138.293C112.39 139.339 111.867 150.074 111.867 150.074C111.867 150.074 114.994 165.52 105.327 163.95C95.6607 162.381 104.02 151.385 104.02 151.385L102.712 136.2C97.739 123.12 98.7853 113.685 98.7853 113.685L97.8556 105.134L97.4746 101.643L108.731 99.0237C108.424 99.4332 108.554 101.987 108.83 104.952C109.259 109.599 110.038 115.255 110.038 115.255C112.387 117.871 113.959 137.244 113.174 138.293Z" fill="#FFB9B9"/>
<path opacity="0.1" d="M97.2044 75.4592C97.2044 75.4592 85.6869 75.7208 94.8475 94.8322C94.8475 94.8322 97.2044 102.686 97.2044 103.997C97.2044 105.308 108.984 105.305 110.283 103.997C111.582 102.689 108.187 91.9546 108.187 86.9784C108.187 82.0022 104.796 73.8867 97.2044 75.4592Z" fill="black"/>
<path opacity="0.1" d="M108.821 104.952C106.376 105.621 100.383 105.68 97.8439 105.134L97.4629 101.643L108.719 99.0237C108.418 99.4303 108.548 101.984 108.821 104.952Z" fill="black"/>
<path d="M96.681 75.4592C96.681 75.4592 85.1634 75.7208 94.324 94.8322C94.324 94.8322 96.681 102.686 96.681 103.997C96.681 105.308 108.46 105.305 109.759 103.997C111.059 102.689 107.664 91.9546 107.664 86.9784C107.664 82.0022 104.272 73.8867 96.681 75.4592Z" fill="#CBCDDA"/>
<g opacity="0.5">
<path opacity="0.5" d="M21.3347 116.443L12.9987 116.614L11.6396 118.485V124.951L13.3398 126.142H21.3347L23.0378 124.271V118.146L21.3347 116.443Z" fill="#FAFAFF"/>
<path opacity="0.2" d="M21.1671 117.464C21.1671 117.464 13.5106 118.656 12.8311 117.464L13.0016 116.611L21.1671 116.44V117.464Z" fill="white"/>
<path opacity="0.5" d="M22.0173 135.159L23.3791 136.521V142.988L22.0173 144.35C22.0173 144.35 17.0844 146.056 13.8518 144.691L12.3193 143.158V136.692L13.6812 135.159H22.0173Z" fill="#FAFAFF"/>
<path opacity="0.2" d="M21.6756 136.692C21.6756 136.692 15.722 138.054 13.6807 136.692V135.159H22.0167L21.6756 136.692Z" fill="white"/>
<path opacity="0.5" d="M18.7849 126.097V135.302C18.7651 135.666 18.6017 136.008 18.3306 136.253C18.0594 136.498 17.7025 136.625 17.3378 136.607C16.9731 136.625 16.6162 136.498 16.345 136.253C16.0738 136.008 15.9105 135.666 15.8906 135.302V126.097C15.8906 125.315 16.6469 124.71 17.5055 124.801C17.8412 124.821 18.1577 124.964 18.3939 125.203C18.6301 125.443 18.7694 125.761 18.7849 126.097Z" fill="#FAFAFF"/>
<path opacity="0.5" d="M34.6862 116.705L26.3501 116.875L24.9883 118.746V125.213L26.6913 126.404H34.6862L36.3864 124.533V118.408L34.6862 116.705Z" fill="#FAFAFF"/>
<path opacity="0.2" d="M34.5158 117.728C34.5158 117.728 26.8592 118.92 26.1797 117.728L26.3503 116.875L34.5158 116.705V117.728Z" fill="white"/>
<path opacity="0.5" d="M35.3659 135.424L36.7278 136.786V143.252L35.3659 144.614C35.3659 144.614 30.4331 146.32 27.2004 144.956L25.668 143.423V136.954L27.0298 135.421L35.3659 135.424Z" fill="#FAFAFF"/>
<path opacity="0.2" d="M35.0271 136.954C35.0271 136.954 29.0736 138.316 27.0322 136.954V135.421H35.3683L35.0271 136.954Z" fill="white"/>
<path opacity="0.5" d="M32.1277 126.359V135.563C32.1079 135.928 31.9445 136.27 31.6733 136.514C31.4022 136.759 31.0453 136.886 30.6806 136.868C30.3159 136.886 29.9589 136.759 29.6878 136.514C29.4166 136.27 29.2532 135.928 29.2334 135.563V126.359C29.2334 125.577 29.9897 124.971 30.8483 125.062C31.184 125.082 31.5004 125.226 31.7366 125.465C31.9729 125.704 32.1122 126.023 32.1277 126.359Z" fill="#FAFAFF"/>
<path opacity="0.5" d="M51.6828 121.63L44.8194 121.769L43.6992 123.31V128.634L45.1009 129.612H51.6828L53.0816 128.071V123.029L51.6828 121.63Z" fill="#FAFAFF"/>
<path opacity="0.2" d="M51.5401 122.469C51.5401 122.469 45.2369 123.45 44.6768 122.469L44.8161 121.769L51.5372 121.63L51.5401 122.469Z" fill="white"/>
<path opacity="0.5" d="M52.2423 137.036L53.3625 138.156V143.48L52.2423 144.6C52.2423 144.6 48.1823 146.002 45.5211 144.884L44.2588 143.625V138.296L45.379 137.036H52.2423Z" fill="#FAFAFF"/>
<path opacity="0.2" d="M51.9608 138.296C51.9608 138.296 47.0592 139.416 45.3789 138.296V137.036H52.2422L51.9608 138.296Z" fill="white"/>
<path opacity="0.5" d="M49.5818 129.575V137.153C49.5642 137.452 49.4291 137.732 49.206 137.933C48.983 138.133 48.6899 138.237 48.3905 138.222C48.0902 138.237 47.7963 138.132 47.573 137.931C47.3498 137.729 47.2154 137.447 47.1992 137.147V129.575C47.2091 129.415 47.2524 129.258 47.3263 129.116C47.4003 128.973 47.5032 128.847 47.6285 128.747C47.7538 128.647 47.8987 128.574 48.0539 128.532C48.2091 128.491 48.3712 128.483 48.5298 128.509C48.8058 128.525 49.066 128.643 49.2602 128.84C49.4544 129.037 49.5689 129.299 49.5818 129.575Z" fill="#FAFAFF"/>
<path opacity="0.5" d="M62.671 121.843L55.8077 121.985L54.6875 123.524V128.847L56.0892 129.828H62.671L64.0727 128.287V123.245L62.671 121.843Z" fill="#FAFAFF"/>
<path opacity="0.2" d="M62.5323 122.685C62.5323 122.685 56.229 123.666 55.6689 122.685L55.8083 121.985L62.5294 121.846L62.5323 122.685Z" fill="white"/>
<path opacity="0.5" d="M63.2317 137.252L64.3518 138.373V143.696L63.2317 144.816C63.2317 144.816 59.1717 146.218 56.5105 145.1L55.251 143.841V138.506L56.3712 137.247L63.2317 137.252Z" fill="#FAFAFF"/>
<path opacity="0.2" d="M62.953 138.506C62.953 138.506 58.0514 139.627 56.3711 138.506V137.247H63.2316L62.953 138.506Z" fill="white"/>
<path opacity="0.5" d="M60.5583 129.791V137.369C60.5422 137.669 60.4078 137.951 60.1845 138.152C59.9613 138.354 59.6674 138.459 59.3671 138.444C59.0668 138.459 58.7728 138.354 58.5496 138.152C58.3264 137.951 58.192 137.669 58.1758 137.369V129.791C58.1857 129.631 58.229 129.474 58.3029 129.332C58.3768 129.189 58.4797 129.064 58.605 128.963C58.7303 128.863 58.8753 128.79 59.0305 128.749C59.1857 128.707 59.3478 128.699 59.5064 128.725C59.7824 128.741 60.0425 128.859 60.2367 129.056C60.431 129.253 60.5455 129.515 60.5583 129.791Z" fill="#FAFAFF"/>
</g>
<g opacity="0.8">
<path opacity="0.8" d="M33.3162 167.51C33.3162 167.51 29.2875 166.145 27.3456 169.697C26.834 170.66 26.5736 171.736 26.5885 172.826C26.6034 173.916 26.8931 174.985 27.4309 175.933C28.7046 178.236 31.3288 181.225 36.3015 180.96C40.5207 180.736 41.9224 177.514 42.3033 174.52C42.4491 173.397 42.3041 172.255 41.8824 171.204C41.4606 170.153 40.7762 169.228 39.8946 168.517C39.013 167.806 37.9638 167.333 36.8473 167.144C35.7308 166.955 34.5845 167.056 33.518 167.436L33.3162 167.51Z" fill="#FAFAFF"/>
<path opacity="0.1" d="M28.2867 176.249C27.7489 175.3 27.4592 174.232 27.4443 173.142C27.4294 172.051 27.6898 170.975 28.2014 170.013C30.1404 166.461 34.172 167.826 34.172 167.826L34.3795 167.752C35.9155 167.196 37.6036 167.234 39.1133 167.857C38.2794 167.36 37.3453 167.054 36.3787 166.961C35.412 166.869 34.4369 166.992 33.5237 167.323L33.3162 167.397C33.3162 167.397 29.2875 166.032 27.3456 169.583C26.834 170.546 26.5736 171.622 26.5885 172.712C26.6034 173.802 26.8931 174.871 27.4309 175.819C28.2838 177.335 29.7054 179.146 31.9799 180.133C30.418 179.199 29.141 177.856 28.2867 176.249Z" fill="white"/>
<path opacity="0.2" d="M31.2354 169.217C31.2354 169.217 32.728 170.391 36.353 169.217H31.2354Z" fill="black"/>
<path opacity="0.8" d="M30.917 160.686C30.917 160.686 33.4758 167.624 33.2654 169.438L35.2926 169.225C35.2926 169.225 31.8808 163.143 32.7338 160.694L30.917 160.686Z" fill="#FAFAFF"/>
<path opacity="0.2" d="M30.917 160.686C30.917 160.686 33.4758 167.624 33.2654 169.438L35.2926 169.225C35.2926 169.225 31.8808 163.143 32.7338 160.694L30.917 160.686Z" fill="black"/>
<path opacity="0.8" d="M41.3684 161.255C41.3684 161.255 37.3368 159.193 35.5343 160.896C33.7318 162.6 33.4531 166.953 33.4531 166.953C33.4531 166.953 40.0265 167.86 41.3684 161.255Z" fill="#FAFAFF"/>
<path opacity="0.1" d="M41.3684 161.255C41.3684 161.255 37.3368 159.193 35.5343 160.896C33.7318 162.6 33.4531 166.953 33.4531 166.953C33.4531 166.953 40.0265 167.86 41.3684 161.255Z" fill="white"/>
<path opacity="0.8" d="M33.4531 166.942C33.4531 166.942 34.5108 161.889 41.3684 161.255" stroke="#6C63FF" stroke-miterlimit="10"/>
</g>
<path d="M50.324 173.792C50.324 173.792 46.2953 172.427 44.3534 175.979C43.8418 176.941 43.5814 178.017 43.5963 179.107C43.6112 180.198 43.901 181.266 44.4387 182.214C45.7124 184.518 48.3366 187.506 53.3093 187.242C57.5285 187.017 58.9302 183.795 59.3112 180.801C59.4569 179.678 59.3119 178.536 58.8902 177.485C58.4685 176.434 57.784 175.509 56.9024 174.798C56.0209 174.087 54.9716 173.615 53.8551 173.426C52.7387 173.237 51.5923 173.337 50.5259 173.718L50.324 173.792Z" fill="#FAFAFF"/>
<path opacity="0.1" d="M45.3023 182.533C44.7646 181.585 44.4748 180.516 44.4599 179.426C44.445 178.336 44.7054 177.26 45.217 176.297C47.156 172.745 51.1876 174.11 51.1876 174.11L51.3951 174.036C52.9311 173.481 54.6192 173.518 56.129 174.142C55.295 173.644 54.361 173.338 53.3943 173.246C52.4276 173.153 51.4525 173.277 50.5394 173.607L50.3318 173.681C50.3318 173.681 46.3031 172.316 44.3612 175.868C43.8496 176.83 43.5892 177.907 43.6041 178.997C43.619 180.087 43.9088 181.155 44.4465 182.104C45.2995 183.619 46.721 185.431 48.9955 186.417C47.4336 185.483 46.1566 184.14 45.3023 182.533Z" fill="white"/>
<path opacity="0.2" d="M48.251 175.498C48.251 175.498 49.7436 176.672 53.3686 175.498H48.251Z" fill="black"/>
<path d="M47.9297 166.962C47.9297 166.962 50.4885 173.9 50.2781 175.714L52.3053 175.501C52.3053 175.501 48.8935 169.418 49.7465 166.97L47.9297 166.962Z" fill="#FAFAFF"/>
<path opacity="0.2" d="M47.9297 166.962C47.9297 166.962 50.4885 173.9 50.2781 175.714L52.3053 175.501C52.3053 175.501 48.8935 169.418 49.7465 166.97L47.9297 166.962Z" fill="black"/>
<path d="M58.384 167.539C58.384 167.539 54.3525 165.477 52.5499 167.18C50.7474 168.884 50.4688 173.237 50.4688 173.237C50.4688 173.237 57.0421 174.141 58.384 167.539Z" fill="#FAFAFF"/>
<path opacity="0.1" d="M58.384 167.539C58.384 167.539 54.3525 165.477 52.5499 167.18C50.7474 168.884 50.4688 173.237 50.4688 173.237C50.4688 173.237 57.0421 174.141 58.384 167.539Z" fill="white"/>
<path d="M50.4688 173.237C50.4688 173.237 51.5264 168.184 58.384 167.55" stroke="#6C63FF" stroke-miterlimit="10"/>
<path d="M17.9116 157.322C17.9116 157.322 18.3067 156.881 17.5647 156.705V155.98H18.0111C18.0107 155.103 17.7095 154.253 17.1579 153.572C16.6062 152.891 15.8375 152.42 14.9803 152.238V151.359H15.0968V150.222H12.2253V151.359H12.3077V152.249C11.4618 152.441 10.7063 152.915 10.1649 153.593C9.62356 154.271 9.32851 155.112 9.32812 155.98H9.72616V156.677C9.72616 156.677 8.78224 157.123 9.72616 157.919C10.6701 158.715 10.5222 159.31 10.5222 159.31C10.5222 159.31 10.1242 160.8 9.33097 160.999V174.861C9.33097 175.678 9.65537 176.461 10.2328 177.039C10.8103 177.616 11.5934 177.941 12.4101 177.941H14.8438C15.658 177.938 16.4378 177.612 17.0127 177.036C17.5876 176.459 17.9108 175.678 17.9116 174.864V160.999C17.9116 160.999 16.5213 159.955 16.7743 159.31C17.1043 158.62 17.4844 157.956 17.9116 157.322Z" fill="#FAFAFF"/>
</svg>
