<svg width="265" height="191" viewBox="0 0 265 191" fill="none" xmlns="http://www.w3.org/2000/svg">
<g clip-path="url(#clip0_59_611)">
<path opacity="0.5" d="M264.903 16.544C264.012 24.0982 257.775 30.0847 256.248 37.5475C256.06 38.5272 255.943 39.519 255.897 40.5154C255.683 44.8024 256.533 49.1756 256.095 53.4726C255.276 61.524 250.368 67.8149 244.131 73.2586C239.412 77.373 233.949 80.9953 228.904 84.4959C216.08 93.4199 204.055 104.688 198.79 119.365C195.283 129.151 195.013 139.785 192.437 149.855C189.861 159.926 183.991 170.23 174.073 173.441C163.428 176.886 151.698 171.138 140.742 173.411C128.987 175.851 120.648 186.921 109.05 190.051C94.2861 194.024 79.6238 184.257 64.4932 182.223C57.2283 181.244 49.836 182.076 42.5304 181.452C34.4071 180.743 26.5418 178.251 19.4984 174.157C17.1005 172.751 14.6721 171.026 13.5571 168.48C12.6 166.278 12.7425 163.766 13.048 161.377C14.1528 152.534 16.9478 142.915 12.5389 135.143C8.46606 127.969 -1.33423 122.84 0.121812 114.738C1.00257 109.868 5.79834 106.824 10.2683 104.642C19.4577 100.137 29.2529 96.6161 37.4698 90.5332C43.35 86.1803 48.4105 80.1024 50.5691 73.2839C51.4543 70.5513 51.817 67.6774 51.6383 64.8115C51.3379 60.2963 49.7648 55.2229 52.5038 51.6209C53.6849 50.0532 55.5024 49.0842 57.3301 48.3486C64.2132 45.5786 71.8651 45.4162 79.0231 43.4478C81.4766 42.7745 83.8341 41.7925 86.0386 40.5256C90.4067 37.9889 93.9195 34.2955 94.7697 29.4505C95.2788 26.6095 94.8258 23.5097 96.2462 20.9984C98.6491 16.7419 103.374 14.9611 108.689 14.4031C115.246 13.6877 122.669 14.8089 127.643 15.3619L128.152 15.4127C134.536 16.0773 140.88 14.6669 147.091 12.5463C153.811 10.2683 160.373 7.17868 166.762 4.97687C167.363 4.76886 167.964 4.571 168.56 4.38329C173.216 2.90393 177.982 1.79614 182.815 1.07042C189.642 0.046391 196.562 -0.219046 203.449 0.278985C206.94 0.528939 210.415 0.977812 213.855 1.62341C214.873 1.8162 215.891 2.01913 216.884 2.24235C222.739 3.49039 228.593 5.01746 234.545 5.10878H235.838C242.966 4.98702 250.251 3.18092 257.017 5.36244C260.102 6.37711 263.04 8.32019 264.277 11.2931C264.928 12.9624 265.144 14.7691 264.903 16.544Z" fill="#FAFAFF" fill-opacity="0.25"/>
<path opacity="0.05" d="M160.266 152.473C160.266 152.473 160.445 158.891 154.717 160.139C148.99 161.387 157.044 165.131 160.266 164.238C163.489 163.345 176.731 151.758 176.731 151.758C176.731 151.758 172.078 144.625 169.038 144.625C169.018 144.63 163.474 153.899 160.266 152.473Z" fill="black"/>
<path opacity="0.05" d="M134.302 148.729C134.302 148.729 134.659 154.614 125.892 158.003C125.892 158.003 116.764 158.896 123.031 163.351C129.298 167.805 148.262 162.102 148.262 162.102C148.262 162.102 147.906 156.395 145.757 151.758C145.757 151.763 135.382 151.048 134.302 148.729Z" fill="black"/>
<path d="M202.721 25.5441C199.956 22.2921 194.066 34.4021 194.066 34.4021L172.617 39.3029C171.241 38.8819 170.025 38.0581 169.125 36.9388C170.924 37.0063 172.707 36.5838 174.283 35.7167C175.86 34.8496 177.169 33.5708 178.07 32.0177L172.541 31.7082C171.981 31.7124 171.425 31.6126 170.902 31.4139C169.843 30.932 169.374 29.76 168.804 28.7504C167.271 25.9926 164.777 23.89 161.794 22.84C159.813 22.1399 157.604 21.8964 155.903 20.6788C154.676 19.8011 153.841 18.5074 152.849 17.3761C148.139 11.9578 140.34 10.4561 133.141 9.5226C131.868 9.35518 130.417 9.24864 129.46 10.0908C128.804 10.6641 128.544 11.5621 127.974 12.2216C127.001 13.353 125.357 13.5813 123.875 13.8603C122.011 14.1488 120.228 14.8246 118.642 15.8439C117.859 16.3561 117.194 17.0279 116.692 17.815C116.189 18.6021 115.859 19.4865 115.725 20.4099C115.44 23.2256 117.501 25.9195 117.12 28.7251C117.003 29.5875 116.656 30.4094 116.61 31.2617C116.614 32.0818 116.744 32.8963 116.997 33.6766C117.619 36.056 118.097 38.5318 117.675 40.9518C117.252 43.3717 115.765 45.7308 113.439 46.6288C116.427 47.2877 119.554 46.8575 122.251 45.4163C124.868 43.9247 126.793 41.1699 126.884 38.202V37.9889L127.195 38.1107C127.241 38.2781 127.286 38.4557 127.327 38.6434L127.79 38.7753C127.969 39.835 127.969 40.9169 127.79 41.9766L124.568 44.5437C124.572 44.7134 124.585 44.8828 124.609 45.051L124.568 45.0814C124.571 45.2224 124.583 45.363 124.603 45.5025L118.301 49.4191C114.224 52.5398 111.203 56.8296 109.646 61.7117L103.929 70.5545C103.929 70.5545 100.243 73.9892 98.2165 74.532L81.0749 89.3562C81.0749 89.3562 75.1387 92.5778 75.1641 95.7942V95.9921V96.1849C75.1655 96.2478 75.1793 96.3099 75.2049 96.3675C75.2141 96.4293 75.233 96.4892 75.2609 96.5451V96.5755C75.2717 96.6351 75.2942 96.692 75.3271 96.743V96.7785L75.4085 96.9408V96.9814L75.5002 97.1336L75.5307 97.1793L75.6325 97.3264L75.6733 97.3771L75.7904 97.5192L75.8413 97.575L75.9685 97.7069L76.0296 97.7678L76.1671 97.8946L76.2384 97.9605L76.3911 98.0874L76.4726 98.1533L76.6406 98.2751L76.7271 98.341L76.9206 98.4729L77.002 98.5288L77.3075 98.7114C83.9259 102.506 85.6008 92.7452 85.6008 92.7452L105.507 79.7271C105.507 79.7271 121.91 64.9029 121.91 61.6509L125.474 63.1729L125.413 63.8121V64.3549C125.413 64.3549 125.23 71.9649 134.811 73.9384C134.811 73.9384 143.573 82.7 143.837 85.4853V85.6882C143.685 87.819 145.747 91.9943 146.383 93.2677L142.896 96.1747L142.931 96.6821L142.896 96.7125L143.028 98.5186C139.082 102.755 133.355 109.041 132.759 110.451C131.838 112.622 131.838 117.32 134.047 122.201L136.445 143.712V149.977L135.34 149.47V150.89C134.806 150.687 134.354 150.314 134.052 149.83V150.013C134.022 151.063 133.457 156.151 125.398 159.221C125.398 159.221 120.052 159.728 120.189 161.93C120.133 162.671 120.724 163.619 122.445 164.827C128.895 169.347 148.409 163.564 148.409 163.564V163.371C148.409 163.371 148.043 157.587 145.828 152.884C145.828 152.884 145.319 152.849 144.54 152.773V151.438L143.736 151.301C143.712 148.767 143.963 146.238 144.484 143.757C145.707 138.008 146.062 132.108 145.538 126.254C146.449 127.396 147.472 128.445 148.593 129.385L160.226 147.77L161.6 150.586C161.091 150.951 160.582 151.271 160.165 151.53L162.501 153.686C161.978 153.894 161.395 153.894 160.872 153.686C160.872 153.686 161.055 160.195 155.16 161.458C152.808 161.965 152.716 162.868 153.633 163.721C154.885 165.075 158.943 166.364 161.03 165.796C164.349 164.893 177.988 153.143 177.988 153.143C176.787 151.356 175.424 149.683 173.915 148.146C172.582 146.817 171.12 145.736 169.904 145.736C169.904 145.736 169.624 146.198 169.15 146.903L167.694 145.558L167.547 145.695C167.424 145.295 167.312 144.889 167.216 144.488C167.216 144.488 164.39 131.586 155.735 121.815C155.735 121.815 154.03 120.41 156.667 115.768C156.667 115.768 160.933 110.725 164.655 105.256C170.067 106.306 175.636 105.875 179.862 101.989L179.806 101.654L180.045 101.446L178.202 90.0563C178.202 90.0563 179.032 79.3009 165.576 70.6205C165.576 70.6205 158.296 61.6712 155.715 50.2816H155.552L155.7 48.3081C157.359 49.5713 175.046 47.2224 175.046 47.2224L198.465 37.4613C199.793 36.7358 203.495 31.7082 203.479 28.0655C203.552 27.1601 203.281 26.2605 202.721 25.5441Z" fill="url(#paint0_linear_59_611)"/>
<path d="M168.28 37.309C168.884 38.0743 169.644 38.7043 170.509 39.1579C171.373 39.6116 172.324 39.8787 173.3 39.9421C171.794 41.3231 170.039 42.4061 168.127 43.1332C162.619 45.2893 155.949 44.6552 151.204 41.0633C150.089 40.216 149.02 39.2064 147.641 38.8767C146.46 38.5875 145.217 38.8767 143.995 38.8107C142.468 38.7211 141.009 38.1513 139.827 37.1832C138.645 36.2151 137.802 34.8986 137.418 33.4229C137.067 31.9364 137.209 30.3789 136.955 28.8569C136.914 28.5984 136.858 28.3427 136.787 28.0908C136.074 25.5542 132.744 22.8247 129.939 23.5654C127.292 24.2605 125.932 28.4104 125.988 30.7847C126.044 33.3975 127.312 35.8936 127.231 38.5063C127.139 41.4336 125.271 44.1529 122.73 45.609C120.122 47.0194 117.089 47.4411 114.192 46.7961C116.453 45.9083 117.894 43.5796 118.306 41.2155C118.718 38.8513 118.25 36.3857 117.649 34.0418C117.404 33.2703 117.277 32.4665 117.272 31.6574C117.318 30.8 117.654 29.9882 117.782 29.1207C118.153 26.3557 116.152 23.6973 116.427 20.9222C116.555 20.0173 116.873 19.1495 117.361 18.3757C117.849 17.602 118.495 16.9397 119.258 16.4323C120.795 15.4246 122.531 14.7568 124.349 14.474C125.785 14.2001 127.404 13.9667 128.33 12.8557C128.885 12.2063 129.135 11.3337 129.771 10.7502C130.698 9.92329 132.108 10.0298 133.335 10.1922C140.325 11.1155 147.89 12.5918 152.467 17.9391C153.424 19.0552 154.234 20.3337 155.425 21.1962C157.074 22.3986 159.218 22.637 161.142 23.327C164.054 24.3855 166.473 26.4749 167.939 29.1968C168.448 30.2115 168.957 31.3479 169.975 31.8248C170.483 32.0233 171.024 32.1232 171.569 32.119L176.935 32.4234C176.079 33.9492 174.819 35.2116 173.293 36.0731C171.767 36.9346 170.033 37.3621 168.28 37.309Z" fill="#F55F44"/>
<path d="M141.195 37.375C141.195 37.375 143.792 37.6439 148.98 36.3959C154.167 35.1478 159.36 39.0746 159.36 39.0746L170.275 39.9675L192.462 34.7978C192.462 34.7978 198.19 22.84 200.863 26.0564C203.535 29.2729 198.358 36.7561 196.749 37.649L174.002 47.2882C174.002 47.2882 156.825 49.6067 155.216 48.3587L154.86 53.1733L146.271 49.074L142.529 40.3378L141.195 37.375Z" fill="#FDB797"/>
<path opacity="0.05" d="M196.754 37.4613L174.028 47.1006C174.028 47.1006 156.85 49.4191 155.242 48.1711L154.885 52.9857L146.297 48.8864L142.539 40.1502L141.363 37.578H141.195L142.539 40.5205L146.297 49.2568L154.885 53.356L155.242 48.5414C156.85 49.7895 174.028 47.471 174.028 47.471L196.754 37.8317C198.068 37.1062 201.748 32.0024 201.621 28.4004C201.504 31.972 198.027 36.7663 196.754 37.4613Z" fill="black"/>
<path d="M126.253 44.9495L118.897 49.5865C114.921 52.682 111.987 56.9118 110.486 61.7117L104.937 70.4479C104.937 70.4479 101.373 73.8369 99.3877 74.3696L82.7501 88.9909C82.7501 88.9909 72.7309 94.5208 79.1863 98.2649C85.6418 102.009 87.2404 92.3799 87.2404 92.3799L106.586 79.5393C106.586 79.5393 122.511 64.918 122.511 61.7066L128.239 64.2027L126.253 44.9495Z" fill="#FDB797"/>
<path opacity="0.05" d="M122.496 61.3567C122.496 64.5681 106.571 79.1894 106.571 79.1894L87.2251 92.0299C87.2251 92.0299 85.6163 101.669 79.171 97.915C77.6946 97.0576 77.0837 96.1038 77.0175 95.15C76.9462 96.2255 77.5266 97.3062 79.171 98.2752C85.6112 102.019 87.2251 92.3901 87.2251 92.3901L106.571 79.5496C106.571 79.5496 122.496 64.9283 122.496 61.7169L128.223 64.2129L128.188 63.8375L122.496 61.3567Z" fill="black"/>
<path d="M147.641 98.5744C147.641 98.5744 142.041 116.265 142.178 118.578C142.316 120.892 144.306 125.072 148.333 128.492L159.625 146.629L163.103 153.863L169.94 151.986C169.94 151.986 167.394 147.476 166.407 143.392C166.407 143.392 163.663 130.663 155.262 121.029C155.262 121.029 153.608 119.644 156.163 115.063C156.163 115.063 168.749 99.9644 169.171 93.8308L147.641 98.5744Z" fill="#FDB797"/>
<path opacity="0.05" d="M147.641 98.5744C147.641 98.5744 142.041 116.265 142.178 118.578C142.316 120.892 144.306 125.072 148.333 128.492L159.625 146.629L163.103 153.863L169.94 151.986C169.94 151.986 167.394 147.476 166.407 143.392C166.407 143.392 163.663 130.663 155.262 121.029C155.262 121.029 153.608 119.644 156.163 115.063C156.163 115.063 168.749 99.9644 169.171 93.8308L147.641 98.5744Z" fill="black"/>
<path opacity="0.1" d="M146.831 94.1658C146.831 94.1658 134.103 107.717 133.233 109.858C132.362 111.998 132.337 116.635 134.485 121.45L136.812 142.672V150.688L143.792 151.92C143.792 151.92 143.435 146.751 144.326 142.646C144.326 142.646 147.381 129.963 143.97 117.681C143.97 117.681 143.074 115.717 147.371 112.688C147.371 112.688 165.266 104.485 168.305 99.1376L146.831 94.1658Z" fill="black"/>
<path d="M146.653 94.1658C146.653 94.1658 133.926 107.717 133.055 109.858C132.185 111.998 132.159 116.635 134.308 121.45L136.634 142.672V150.688L143.614 151.92C143.614 151.92 143.258 146.751 144.149 142.646C144.149 142.646 147.203 129.963 143.792 117.681C143.792 117.681 142.896 115.717 147.193 112.688C147.193 112.688 165.088 104.485 168.127 99.1376L146.653 94.1658Z" fill="#FDB797"/>
<path opacity="0.05" d="M146.744 94.1658L146.648 94.2672L167.679 99.1681C164.624 104.515 146.744 112.719 146.744 112.719C142.448 115.763 143.344 117.711 143.344 117.711C146.744 130.014 143.7 142.677 143.7 142.677C142.875 146.456 143.114 151.134 143.155 151.854L143.7 151.951C143.7 151.951 143.344 146.781 144.209 142.677C144.209 142.677 147.264 129.994 143.853 117.711C143.853 117.711 142.957 115.748 147.253 112.719C147.253 112.719 165.149 104.515 168.188 99.1681L146.744 94.1658Z" fill="black"/>
<path d="M127.175 36.2133C127.175 36.2133 129.68 40.135 127.175 45.3097L129.68 58.1503L140.06 56.7247L145.07 51.0172L141.109 37.2736C141.109 37.2736 137.886 38.5216 137.545 29.7854L127.175 36.2133Z" fill="#FDB797"/>
<path opacity="0.1" d="M125.006 45.3097C125.006 45.3097 125.724 54.7613 126.615 56.9023L125.897 64.3905C125.897 64.3905 125.719 71.8787 135.025 73.842C135.025 73.842 143.97 82.9385 143.792 85.4346C143.614 87.9306 146.475 93.2779 146.475 93.2779L142.911 96.3219L143.089 98.818L145.594 96.3219C145.594 96.3219 167.246 112.191 178.686 101.492L176.899 90.2593C176.899 90.2593 178.426 80.7215 165.358 72.1628C165.358 72.1628 157.573 62.2648 155.069 51.0324C155.069 51.0324 147.911 50.3171 146.124 47.6435L142.56 36.9438L139.607 37.5679L142.382 49.4242C142.382 49.4242 139.159 60.1238 130.214 55.5122L128.178 42.8289L125.006 45.3097Z" fill="black"/>
<path d="M125.006 44.7719C125.006 44.7719 125.724 54.2235 126.615 56.3644L125.897 63.8526C125.897 63.8526 125.719 71.3408 135.025 73.3042C135.025 73.3042 143.97 82.4006 143.792 84.8967C143.614 87.3928 146.475 92.74 146.475 92.74L142.911 95.784L143.089 98.2801L145.594 95.784C145.594 95.784 167.246 111.653 178.686 100.954L176.899 89.7214C176.899 89.7214 177.703 79.1131 164.64 70.5545C164.64 70.5545 157.573 61.7269 155.069 50.4946C155.069 50.4946 147.911 49.7792 146.124 47.1056L142.56 36.406L139.607 37.03L142.382 48.8864C142.382 48.8864 139.159 59.586 130.214 54.9743L128.178 42.291L125.006 44.7719Z" fill="#3333FF"/>
<path d="M58.6487 90.7563H29.9707V90.8933H58.6487V90.7563Z" fill="#B4ABAB"/>
<path d="M57.9358 89.7825H30.6885V89.9194H57.9358V89.7825Z" fill="#B4ABAB"/>
<path d="M56.1444 88.8083H31.2236V88.9453H56.1444V88.8083Z" fill="#B4ABAB"/>
<path d="M54.1736 87.8394H32.1191V87.9763H54.1736V87.8394Z" fill="#B4ABAB"/>
<path d="M52.209 86.8652H33.3721V87.0022H52.209V86.8652Z" fill="#B4ABAB"/>
<path d="M50.0602 85.8962H34.9805V86.0332H50.0602V85.8962Z" fill="#B4ABAB"/>
<path d="M46.8376 84.9221H37.4854V85.0591H46.8376V84.9221Z" fill="#B4ABAB"/>
<path d="M59.7184 91.8674H29.4316V92.0044H59.7184V91.8674Z" fill="#B4ABAB"/>
<path d="M60.258 92.9734H29.4316V93.1104H60.258V92.9734Z" fill="#B4ABAB"/>
<path d="M60.6138 94.0845H28.8965V94.2215H60.6138V94.0845Z" fill="#B4ABAB"/>
<path d="M61.0313 95.1956H28.8965V95.3325H61.0313V95.1956Z" fill="#B4ABAB"/>
<path d="M60.8531 96.3118H28.8965V96.4487H60.8531V96.3118Z" fill="#B4ABAB"/>
<path d="M60.3135 97.4229H29.2529V97.5598H60.3135V97.4229Z" fill="#B4ABAB"/>
<path d="M59.4174 98.5288H29.9707V98.6658H59.4174V98.5288Z" fill="#B4ABAB"/>
<path d="M58.165 99.6399H29.9707V99.7769H58.165V99.6399Z" fill="#B4ABAB"/>
<path d="M56.5568 100.751H31.2236V100.888H56.5568V100.751Z" fill="#B4ABAB"/>
<path d="M54.5861 101.862H32.4756V101.999H54.5861V101.862Z" fill="#B4ABAB"/>
<path d="M52.4428 102.978H33.9062V103.115H52.4428V102.978Z" fill="#B4ABAB"/>
<path d="M49.9379 104.089H36.7725V104.226H49.9379V104.089Z" fill="#B4ABAB"/>
<path d="M32.8169 87.4436H32.6387V102.177H32.8169V87.4436Z" fill="#B4ABAB"/>
<path d="M31.7426 88.5547H31.5645V101.208H31.7426V88.5547Z" fill="#B4ABAB"/>
<path d="M30.6684 89.8027H30.4902V100.096H30.6684V89.8027Z" fill="#B4ABAB"/>
<path d="M29.5942 91.7458H29.416V98.2904H29.5942V91.7458Z" fill="#B4ABAB"/>
<path d="M34.2475 86.4695H34.0693V103.151H34.2475V86.4695Z" fill="#B4ABAB"/>
<path d="M35.6782 85.7744H35.5V103.703H35.6782V85.7744Z" fill="#B4ABAB"/>
<path d="M37.1088 85.2214H36.9307V104.125H37.1088V85.2214Z" fill="#B4ABAB"/>
<path d="M38.5444 84.8054H38.3662V104.541H38.5444V84.8054Z" fill="#B4ABAB"/>
<path d="M39.9751 84.3894H39.7969V104.962H39.9751V84.3894Z" fill="#B4ABAB"/>
<path d="M41.4057 84.3894H41.2275V104.962H41.4057V84.3894Z" fill="#B4ABAB"/>
<path d="M42.8364 84.3894H42.6582V104.962H42.8364V84.3894Z" fill="#B4ABAB"/>
<path d="M44.2671 84.3894H44.0889V104.962H44.2671V84.3894Z" fill="#B4ABAB"/>
<path d="M45.7026 84.8054H45.5244V104.957H45.7026V84.8054Z" fill="#B4ABAB"/>
<path d="M47.1333 85.0793H46.9551V104.815H47.1333V85.0793Z" fill="#B4ABAB"/>
<path d="M48.5639 85.3635H48.3857V104.546H48.5639V85.3635Z" fill="#B4ABAB"/>
<path d="M49.9946 85.9165H49.8164V103.988H49.9946V85.9165Z" fill="#B4ABAB"/>
<path d="M51.4253 86.4695H51.2471V103.567H51.4253V86.4695Z" fill="#B4ABAB"/>
<path d="M52.8549 87.4436H52.6768V103.014H52.8549V87.4436Z" fill="#B4ABAB"/>
<path d="M54.2915 87.8596H54.1133V102.182H54.2915V87.8596Z" fill="#B4ABAB"/>
<path d="M55.7221 88.6917H55.5439V101.481H55.7221V88.6917Z" fill="#B4ABAB"/>
<path d="M57.1518 89.6658H56.9736V100.649H57.1518V89.6658Z" fill="#B4ABAB"/>
<path d="M58.5825 90.4978H58.4043V99.4015H58.5825V90.4978Z" fill="#B4ABAB"/>
<path d="M60.0131 92.3037H59.835V98.1532H60.0131V92.3037Z" fill="#B4ABAB"/>
<path d="M42.9893 105.373C41.4037 105.38 39.8223 105.21 38.275 104.865C34.4771 104.008 31.6108 102.258 29.9867 99.7921C29.2772 98.7125 28.8177 97.489 28.6416 96.2105C28.4655 94.932 28.5772 93.6304 28.9685 92.4002C30.4042 87.6567 35.9382 83.0958 44.6999 84.3185L44.9952 84.3591C47.9763 84.7895 50.8568 85.7446 53.5023 87.1798C68.0424 95.1246 71.3211 94.0592 71.3211 94.0491L71.8607 93.8056V95.5711L71.4687 95.5356C66.6933 95.1449 59.2502 99.3862 55.2079 101.938C52.0047 103.943 48.3441 105.107 44.5675 105.322C44.0584 105.357 43.5137 105.373 42.9893 105.373ZM41.8947 84.6787C35.1338 84.6787 30.8573 88.5344 29.6762 92.5322C28.3423 96.9561 30.5315 102.537 38.499 104.333C40.4837 104.766 42.5208 104.911 44.5472 104.764C48.1683 104.552 51.6773 103.434 54.7497 101.512C58.7512 98.9753 66.118 94.7898 71.1429 94.9674V94.6325C69.7327 94.7593 65.2576 94.2774 53.0798 87.6263C50.5201 86.2356 47.7326 85.3096 44.8475 84.8918L44.5573 84.8512C43.6763 84.7352 42.7885 84.6775 41.8998 84.6787H41.8947Z" fill="#535461"/>
<path d="M70.4248 93.3235H85.8049C86.7926 93.3235 87.5919 93.9424 87.5919 94.7085C87.5919 95.4746 86.7926 96.0986 85.8049 96.0986H70.4248V93.3286V93.3235Z" fill="#535461"/>
<path d="M72.5732 93.3235H70.4248V96.1037H72.5732V93.3235Z" fill="#F0E4E4"/>
<path d="M56.4087 101.187L55.9912 100.736C59.0459 99.0311 60.5732 97.1844 60.5732 95.2007C60.5732 91.832 56.0319 89.2142 55.9912 89.1888L56.4138 88.7373C56.6123 88.854 61.3063 91.5428 61.2961 95.2007C61.2961 97.367 59.6568 99.376 56.4087 101.187Z" fill="#535461"/>
<path opacity="0.1" d="M138.273 36.0306C137.764 34.9247 137.291 33.1135 137.174 30.176L126.793 36.5938C127.216 37.3362 127.516 38.1412 127.684 38.9782C129.545 39.5691 131.539 39.6049 133.421 39.0812C135.302 38.5575 136.989 37.4972 138.273 36.0306Z" fill="black"/>
<path d="M131.085 39.0645C136.618 39.0645 141.104 34.5944 141.104 29.0802C141.104 23.5661 136.618 19.0959 131.085 19.0959C125.551 19.0959 121.065 23.5661 121.065 29.0802C121.065 34.5944 125.551 39.0645 131.085 39.0645Z" fill="#FDB797"/>
<path opacity="0.1" d="M130.606 26.6196C131.624 27.0255 132.301 27.9792 133.268 28.4714C134.658 29.1766 136.323 28.8113 137.881 29.1004C139.627 29.4302 141.226 30.6224 142.972 30.4601C145.069 30.2775 146.602 28.0858 146.536 25.9905C146.47 23.8952 145.085 22.0181 143.374 20.8005C141.664 19.5829 139.627 18.9132 137.626 18.2639C135.081 17.4268 132.332 16.5846 129.7 17.1883C127.246 17.7515 120.637 20.9882 120.979 24.0525C121.539 28.9787 128.06 25.6049 130.606 26.6196Z" fill="black"/>
<path d="M130.606 26.2695C131.624 26.6754 132.301 27.6292 133.268 28.1213C134.658 28.8265 136.323 28.4612 137.881 28.7504C139.627 29.0801 141.226 30.2723 142.972 30.11C145.069 29.9274 146.602 27.7357 146.536 25.6404C146.47 23.5451 145.085 21.668 143.374 20.4504C141.664 19.2328 139.627 18.5631 137.626 17.9138C135.081 17.0767 132.332 16.2345 129.7 16.8382C127.246 17.4014 120.637 20.6381 120.979 23.7024C121.539 28.6235 128.06 25.2447 130.606 26.2695Z" fill="#F55F44"/>
<path opacity="0.1" d="M145.503 85.5156C145.503 85.5156 146.012 89.9751 147.473 91.4007L145.503 85.5156Z" fill="black"/>
<path opacity="0.1" d="M163.744 71.072C163.92 72.4437 163.603 73.8333 162.848 74.9937L163.744 71.072Z" fill="black"/>
<path opacity="0.1" d="M155.175 59.6621C155.175 59.6621 153.566 62.8735 149.27 65.0094L155.175 59.6621Z" fill="black"/>
<g opacity="0.05">
<path opacity="0.05" d="M129.12 55.4716C132.251 57.0951 134.679 56.8363 136.517 55.8217C134.867 56.329 132.841 56.2174 130.372 54.9389L128.336 42.2556L127.149 43.2145L129.12 55.4716Z" fill="black"/>
<path opacity="0.05" d="M141.466 36.9286L145.029 47.6282C146.816 50.3019 153.974 51.0172 153.974 51.0172C156.479 62.2495 163.546 71.0771 163.546 71.0771C176.609 79.6358 175.805 90.2441 175.805 90.2441L177.592 101.476C176.629 102.378 175.536 103.131 174.349 103.709C176.02 103.097 177.549 102.155 178.844 100.939L177.067 89.7063C177.067 89.7063 177.872 79.098 164.808 70.5393C164.808 70.5393 157.742 61.7118 155.237 50.4795C155.237 50.4795 148.079 49.7641 146.292 47.0905L142.728 36.3909L139.775 37.0149L139.836 37.2736L141.466 36.9286Z" fill="black"/>
<path opacity="0.05" d="M144.485 96.3066L143.187 97.6003L143.232 98.265L144.902 96.6009L144.485 96.3066Z" fill="black"/>
</g>
<path opacity="0.1" d="M151.933 90.6905C151.933 90.6905 159.447 85.5208 165.531 85.5208L151.933 90.6905Z" fill="black"/>
<path opacity="0.1" d="M136.542 71.965C136.542 71.965 140.839 69.2913 142.091 67.1504L136.542 71.965Z" fill="black"/>
<path d="M82.1445 91.8674C82.1445 91.8674 79.9961 93.9526 81.0703 94.6324C82.1445 95.3122 84.8275 92.2632 84.8275 92.2632L82.1445 91.8674Z" fill="#FDB797"/>
<path d="M25.0124 109.223C25.4655 109.578 26.0261 109.769 26.6024 109.766C27.1788 109.762 27.7368 109.563 28.1851 109.202C28.6335 108.841 28.9456 108.339 29.0705 107.779C29.1954 107.218 29.1257 106.632 28.8727 106.116C28.6197 105.6 28.1985 105.184 27.6779 104.938C27.1573 104.691 26.5682 104.628 26.0069 104.759C25.4456 104.889 24.9454 105.206 24.5881 105.656C24.2308 106.107 24.0375 106.665 24.04 107.24C24.0349 107.322 24.0349 107.405 24.04 107.488C24.035 107.534 24.035 107.58 24.04 107.625V107.661C24.1381 108.242 24.4392 108.771 24.8902 109.152L25.0124 109.223Z" fill="black"/>
<path d="M25.4048 106.824C25.6747 106.824 25.8935 106.606 25.8935 106.337C25.8935 106.068 25.6747 105.85 25.4048 105.85C25.1348 105.85 24.916 106.068 24.916 106.337C24.916 106.606 25.1348 106.824 25.4048 106.824Z" fill="#8C93F5"/>
<path d="M166.885 144.452C166.885 144.452 162.303 148.734 159.579 150.337L162.053 152.656L169.939 151.58V147.299L166.885 144.452Z" fill="#F0E4E4"/>
<path d="M137.168 149.089L135.56 148.374V153.011L144.505 154.437V150.337L137.168 149.089Z" fill="#F0E4E4"/>
<path opacity="0.05" d="M134.302 148.379C134.302 148.379 134.659 154.264 125.892 157.653C125.892 157.653 116.764 158.546 123.031 163C129.298 167.455 148.262 161.752 148.262 161.752C148.262 161.752 147.906 156.045 145.757 151.408C145.757 151.423 135.382 150.718 134.302 148.379Z" fill="black"/>
<path d="M134.302 148.886C134.302 148.886 134.659 154.772 125.892 158.16C125.892 158.16 116.764 159.053 123.031 163.508C129.298 167.962 148.262 162.26 148.262 162.26C148.262 162.26 147.906 156.552 145.757 151.915C145.757 151.93 135.382 151.225 134.302 148.886Z" fill="#F0E4E4"/>
<path opacity="0.05" d="M160.43 152.144C160.43 152.144 160.608 158.561 154.88 159.809C149.153 161.057 157.207 164.802 160.43 163.909C163.652 163.016 176.894 151.423 176.894 151.423C176.894 151.423 172.241 144.321 169.201 144.321C169.201 144.321 163.652 153.574 160.43 152.144Z" fill="black"/>
<path d="M160.43 152.651C160.43 152.651 160.608 159.069 154.88 160.317C149.153 161.565 157.207 165.309 160.43 164.416C163.652 163.523 176.894 151.931 176.894 151.931C176.894 151.931 172.241 144.828 169.201 144.828C169.201 144.828 163.652 154.082 160.43 152.651Z" fill="#F0E4E4"/>
</g>
<defs>
<linearGradient id="paint0_linear_59_611" x1="139.337" y1="166.552" x2="139.337" y2="9.38054" gradientUnits="userSpaceOnUse">
<stop stop-color="#808080" stop-opacity="0.25"/>
<stop offset="0.54" stop-color="#808080" stop-opacity="0.12"/>
<stop offset="1" stop-color="#808080" stop-opacity="0.1"/>
</linearGradient>
<clipPath id="clip0_59_611">
<rect width="265" height="191" fill="white"/>
</clipPath>
</defs>
</svg>
