<svg width="70" height="72" viewBox="0 0 70 72" fill="none" xmlns="http://www.w3.org/2000/svg">
<path fill-rule="evenodd" clip-rule="evenodd" d="M69.7454 15C69.7454 6.71573 63.0297 0 54.7454 0H15C6.71574 0 0 6.71573 0 15V57C0 65.2843 6.71573 72 15 72H54.7454C63.0297 72 69.7454 65.2843 69.7454 57V15ZM8.71817 13.5C8.71817 12.3065 9.17743 11.1619 9.99492 10.318C10.8124 9.47411 11.9212 9 13.0773 9H56.6681C57.8242 9 58.933 9.47411 59.7505 10.318C60.568 11.1619 61.0272 12.3065 61.0272 13.5V58.5C61.0272 59.6935 60.568 60.8381 59.7505 61.682C58.933 62.5259 57.8242 63 56.6681 63H13.0773C11.9212 63 10.8124 62.5259 9.99492 61.682C9.17743 60.8381 8.71817 59.6935 8.71817 58.5V13.5ZM42.1378 26.1795C42.1378 24.9758 43.1137 24 44.3174 24C45.5211 24 46.4969 24.9758 46.4969 26.1795V45.8205C46.4969 47.0242 45.5211 48 44.3174 48C43.1137 48 42.1378 47.0242 42.1378 45.8205V26.1795ZM53.7621 30.6795C53.7621 29.4758 52.7863 28.5 51.5825 28.5C50.3788 28.5 49.403 29.4758 49.403 30.6795V41.3205C49.403 42.5242 50.3788 43.5 51.5825 43.5C52.7863 43.5 53.7621 42.5242 53.7621 41.3205V38.2265C53.7621 37.8253 54.0873 37.5 54.4886 37.5C54.8898 37.5 55.2151 37.1747 55.2151 36.7735V35.2265C55.2151 34.8253 54.8898 34.5 54.4886 34.5C54.0873 34.5 53.7621 34.1747 53.7621 33.7735V30.6795ZM27.6076 45.8205C27.6076 47.0242 26.6317 48 25.428 48C24.2243 48 23.2485 47.0242 23.2485 45.8205V26.1795C23.2485 24.9758 24.2243 24 25.428 24C26.6317 24 27.6076 24.9758 27.6076 26.1795V45.8205ZM15.9833 41.3205C15.9833 42.5242 16.9591 43.5 18.1629 43.5C19.3666 43.5 20.3424 42.5242 20.3424 41.3205V30.6795C20.3424 29.4758 19.3666 28.5 18.1629 28.5C16.9591 28.5 15.9833 29.4758 15.9833 30.6795V33.7735C15.9833 34.1747 15.658 34.5 15.2568 34.5C14.8556 34.5 14.5303 34.8253 14.5303 35.2265V36.7735C14.5303 37.1747 14.8556 37.5 15.2568 37.5C15.658 37.5 15.9833 37.8253 15.9833 38.2265V41.3205ZM39.2318 36C39.2318 36.8284 38.5602 37.5 37.7318 37.5H32.0136C31.1852 37.5 30.5136 36.8284 30.5136 36C30.5136 35.1716 31.1852 34.5 32.0136 34.5H37.7318C38.5602 34.5 39.2318 35.1716 39.2318 36Z" fill="#FAFAFF"/>
</svg>
