<svg width="33" height="33" viewBox="0 0 33 33" fill="none" xmlns="http://www.w3.org/2000/svg">
<path d="M11 22V23.375C11 24.469 11.4346 25.5182 12.2082 26.2918C12.9818 27.0654 14.031 27.5 15.125 27.5H24.75C25.844 27.5 26.8932 27.0654 27.6668 26.2918C28.4404 25.5182 28.875 24.469 28.875 23.375V9.625C28.875 8.53098 28.4404 7.48177 27.6668 6.70818C26.8932 5.9346 25.844 5.5 24.75 5.5H15.125C14.031 5.5 12.9818 5.9346 12.2082 6.70818C11.4346 7.48177 11 8.53098 11 9.625V11M17.875 22L23.375 16.5L17.875 22ZM23.375 16.5L17.875 11L23.375 16.5ZM23.375 16.5H4.125H23.375Z" stroke="#FAFAFF" stroke-width="2.5" stroke-linecap="round" stroke-linejoin="round"/>
</svg>
