<svg width="1225" height="243" viewBox="0 0 1225 243" fill="none" xmlns="http://www.w3.org/2000/svg">
<g clip-path="url(#clip0_48_689)">
<path d="M287.357 207.574C274.985 207.574 264.034 205.011 254.506 199.885C245.12 194.758 237.725 187.693 232.321 178.688C227.059 169.544 224.428 159.153 224.428 147.515V58.5707H258.132V149.386C258.132 155.204 259.412 160.261 261.972 164.556C264.532 168.851 268.016 172.176 272.425 174.531C276.976 176.748 281.953 177.856 287.357 177.856C293.046 177.856 298.023 176.748 302.29 174.531C306.556 172.176 309.898 168.92 312.316 164.764C314.875 160.469 316.155 155.412 316.155 149.593V58.5707H349.86V147.723C349.86 159.361 347.229 169.682 341.967 178.688C336.705 187.693 329.381 194.758 319.995 199.885C310.609 205.011 299.73 207.574 287.357 207.574ZM420.114 207.574C407.741 207.574 397.075 205.634 388.116 201.755C379.299 197.737 371.192 191.711 363.797 183.675L385.556 162.686C390.391 168.089 395.724 172.315 401.555 175.362C407.528 178.272 414.425 179.727 422.247 179.727C429.358 179.727 434.833 178.48 438.673 175.986C442.655 173.492 444.646 170.029 444.646 165.595C444.646 161.577 443.366 158.322 440.806 155.828C438.246 153.334 434.833 151.187 430.566 149.386C426.442 147.585 421.82 145.853 416.701 144.19C411.723 142.528 406.746 140.657 401.768 138.579C396.791 136.363 392.169 133.661 387.902 130.475C383.778 127.15 380.436 123.062 377.876 118.213C375.317 113.226 374.037 106.991 374.037 99.5102C374.037 90.5049 376.241 82.7465 380.65 76.235C385.2 69.7234 391.458 64.8052 399.422 61.4801C407.386 58.0165 416.559 56.2848 426.94 56.2848C437.464 56.2848 447.063 58.0858 455.738 61.6879C464.555 65.2901 471.808 70.2083 477.497 76.4428L455.738 97.432C451.187 92.8601 446.566 89.4658 441.872 87.2491C437.322 85.0324 432.131 83.9241 426.3 83.9241C420.469 83.9241 415.847 85.0324 412.434 87.2491C409.021 89.3273 407.315 92.3752 407.315 96.393C407.315 100.134 408.595 103.182 411.154 105.537C413.714 107.753 417.056 109.693 421.18 111.356C425.447 113.018 430.069 114.681 435.046 116.343C440.166 118.006 445.214 119.945 450.192 122.162C455.169 124.379 459.72 127.219 463.844 130.682C468.111 134.007 471.524 138.302 474.084 143.567C476.644 148.693 477.924 155.066 477.924 162.686C477.924 176.679 472.804 187.693 462.565 195.728C452.325 203.625 438.175 207.574 420.114 207.574ZM572.396 207.782C561.161 207.782 550.708 205.842 541.038 201.963C531.367 198.084 522.906 192.68 515.653 185.753C508.542 178.826 502.925 170.791 498.8 161.647C494.819 152.364 492.828 142.389 492.828 131.721C492.828 120.915 494.819 110.94 498.8 101.796C502.782 92.6523 508.329 84.6861 515.439 77.8975C522.692 70.9703 531.083 65.6364 540.611 61.8958C550.282 58.0165 560.734 56.0769 571.969 56.0769C583.346 56.0769 593.799 58.0165 603.327 61.8958C612.998 65.6364 621.388 70.9703 628.499 77.8975C635.752 84.6861 641.369 92.7216 645.351 102.004C649.333 111.148 651.324 121.123 651.324 131.929C651.324 142.597 649.333 152.572 645.351 161.855C641.369 170.998 635.752 179.034 628.499 185.961C621.388 192.75 613.069 198.084 603.541 201.963C594.012 205.842 583.631 207.782 572.396 207.782ZM571.969 178.064C581.071 178.064 588.964 176.124 595.648 172.245C602.332 168.366 607.523 162.963 611.22 156.036C615.06 148.97 616.98 140.865 616.98 131.721C616.98 124.794 615.913 118.56 613.78 113.018C611.647 107.338 608.589 102.489 604.607 98.4711C600.625 94.3148 595.861 91.1976 590.315 89.1194C584.911 86.9028 578.796 85.7944 571.969 85.7944C563.01 85.7944 555.188 87.734 548.504 91.6132C541.82 95.3539 536.558 100.688 532.718 107.615C529.021 114.404 527.172 122.439 527.172 131.721C527.172 138.649 528.239 144.952 530.372 150.633C532.505 156.313 535.563 161.231 539.545 165.387C543.527 169.405 548.22 172.522 553.624 174.739C559.17 176.956 565.285 178.064 571.969 178.064ZM639.592 216.925L569.196 148.347L588.608 129.435L659.004 198.014L639.592 216.925ZM735.873 207.574C723.498 207.574 712.548 205.011 703.019 199.885C693.633 194.758 686.238 187.693 680.834 178.688C675.572 169.544 672.941 159.153 672.941 147.515V58.5707H706.646V149.386C706.646 155.204 707.926 160.261 710.486 164.556C713.045 168.851 716.53 172.176 720.938 174.531C725.489 176.748 730.469 177.856 735.873 177.856C741.561 177.856 746.539 176.748 750.805 174.531C755.072 172.176 758.414 168.92 760.831 164.764C763.391 160.469 764.671 155.412 764.671 149.593V58.5707H798.375V147.723C798.375 159.361 795.745 169.682 790.483 178.688C785.221 187.693 777.897 194.758 768.511 199.885C759.125 205.011 748.245 207.574 735.873 207.574ZM808.137 205.288L867.867 58.5707H898.158L957.248 205.288H921.837L876.613 83.5085H888.772L842.909 205.288H808.137ZM842.055 178.688V152.087H924.184V178.688H842.055ZM1015.49 207.574C1003.12 207.574 992.456 205.634 983.497 201.755C974.679 197.737 966.573 191.711 959.178 183.675L980.937 162.686C985.772 168.089 991.105 172.315 996.936 175.362C1002.91 178.272 1009.81 179.727 1017.63 179.727C1024.74 179.727 1030.21 178.48 1034.05 175.986C1038.04 173.492 1040.03 170.029 1040.03 165.595C1040.03 161.577 1038.75 158.322 1036.19 155.828C1033.63 153.334 1030.21 151.187 1025.95 149.386C1021.82 147.585 1017.2 145.853 1012.08 144.19C1007.1 142.528 1002.13 140.657 997.149 138.579C992.172 136.363 987.55 133.661 983.283 130.475C979.159 127.15 975.817 123.062 973.257 118.213C970.697 113.226 969.418 106.991 969.418 99.5102C969.418 90.5049 971.622 82.7465 976.03 76.235C980.581 69.7234 986.839 64.8052 994.803 61.4801C1002.77 58.0165 1011.94 56.2848 1022.32 56.2848C1032.84 56.2848 1042.44 58.0858 1051.12 61.6879C1059.94 65.2901 1067.19 70.2083 1072.88 76.4428L1051.12 97.432C1046.57 92.8601 1041.95 89.4658 1037.25 87.2491C1032.7 85.0324 1027.51 83.9241 1021.68 83.9241C1015.85 83.9241 1011.23 85.0324 1007.82 87.2491C1004.4 89.3273 1002.7 92.3752 1002.7 96.393C1002.7 100.134 1003.98 103.182 1006.54 105.537C1009.1 107.753 1012.44 109.693 1016.56 111.356C1020.83 113.018 1025.45 114.681 1030.43 116.343C1035.55 118.006 1040.6 119.945 1045.57 122.162C1050.55 124.379 1055.1 127.219 1059.23 130.682C1063.49 134.007 1066.9 138.302 1069.46 143.567C1072.02 148.693 1073.3 155.066 1073.3 162.686C1073.3 176.679 1068.18 187.693 1057.95 195.728C1047.71 203.625 1033.56 207.574 1015.49 207.574ZM1094.64 205.288V58.5707H1128.13V205.288H1094.64ZM1187.86 205.288V58.5707H1221.56V205.288H1187.86ZM1114.69 143.982V115.72H1198.95V143.982H1114.69Z" fill="url(#paint0_linear_48_689)"/>
<path d="M79.2454 121.5L158.974 0C93.5144 37.3846 65.4613 37.3846 -0.483887 0L79.2454 121.5Z" fill="#1F2EEC"/>
<path d="M-0.483887 121.5L0.000108093 243H79.2455L-0.483887 121.5Z" fill="#1F2EEC"/>
<path d="M158.972 121.5L79.2427 243H158.972V121.5Z" fill="#1F2EEC"/>
</g>
<defs>
<linearGradient id="paint0_linear_48_689" x1="1225" y1="56.0769" x2="224.454" y2="215.127" gradientUnits="userSpaceOnUse">
<stop offset="0.00907426" stop-color="#C8CCFF"/>
<stop offset="0.436175" stop-color="#9097F6"/>
<stop offset="1" stop-color="#1F2EEC"/>
</linearGradient>
<clipPath id="clip0_48_689">
<rect width="1225" height="243" fill="white"/>
</clipPath>
</defs>
</svg>
