<svg width="1298" height="252" viewBox="0 0 1298 252" fill="none" xmlns="http://www.w3.org/2000/svg">
<path d="M362.929 241.945C350.557 241.945 339.606 239.382 330.078 234.256C320.692 229.13 313.297 222.064 307.893 213.059C302.631 203.915 300 193.524 300 181.887V92.9423H333.705V183.757C333.705 189.576 334.984 194.633 337.544 198.928C340.104 203.222 343.588 206.548 347.997 208.903C352.548 211.119 357.525 212.228 362.929 212.228C368.618 212.228 373.595 211.119 377.862 208.903C382.128 206.548 385.47 203.292 387.888 199.135C390.448 194.841 391.728 189.784 391.728 183.965V92.9423H425.432V182.095C425.432 193.732 422.801 204.054 417.539 213.059C412.277 222.064 404.953 229.13 395.567 234.256C386.181 239.382 375.302 241.945 362.929 241.945ZM495.686 241.945C483.314 241.945 472.648 240.006 463.688 236.126C454.871 232.109 446.765 226.082 439.37 218.047L461.128 197.057C465.964 202.461 471.297 206.686 477.127 209.734C483.1 212.643 489.998 214.098 497.819 214.098C504.93 214.098 510.405 212.851 514.245 210.357C518.227 207.864 520.218 204.4 520.218 199.967C520.218 195.949 518.938 192.693 516.378 190.199C513.818 187.706 510.405 185.558 506.139 183.757C502.015 181.956 497.393 180.224 492.273 178.562C487.295 176.899 482.318 175.029 477.341 172.951C472.363 170.734 467.741 168.033 463.475 164.846C459.351 161.521 456.009 157.434 453.449 152.585C450.889 147.597 449.609 141.363 449.609 133.882C449.609 124.876 451.813 117.118 456.222 110.607C460.773 104.095 467.03 99.1767 474.994 95.8517C482.958 92.3881 492.131 90.6563 502.512 90.6563C513.036 90.6563 522.636 92.4574 531.311 96.0595C540.128 99.6616 547.381 104.58 553.069 110.814L531.311 131.804C526.76 127.232 522.138 123.837 517.445 121.621C512.894 119.404 507.703 118.296 501.872 118.296C496.042 118.296 491.42 119.404 488.007 121.621C484.593 123.699 482.887 126.747 482.887 130.765C482.887 134.505 484.167 137.553 486.727 139.908C489.286 142.125 492.628 144.065 496.753 145.727C501.019 147.39 505.641 149.052 510.618 150.715C515.738 152.377 520.787 154.317 525.764 156.534C530.742 158.75 535.293 161.59 539.417 165.054C543.683 168.379 547.096 172.674 549.656 177.938C552.216 183.064 553.496 189.437 553.496 197.057C553.496 211.05 548.376 222.064 538.137 230.1C527.897 237.997 513.747 241.945 495.686 241.945ZM647.968 242.153C636.733 242.153 626.281 240.213 616.61 236.334C606.94 232.455 598.478 227.052 591.225 220.125C584.114 213.198 578.497 205.162 574.373 196.018C570.391 186.736 568.4 176.761 568.4 166.093C568.4 155.287 570.391 145.312 574.373 136.168C578.355 127.024 583.901 119.058 591.012 112.269C598.265 105.342 606.655 100.008 616.183 96.2673C625.854 92.3881 636.307 90.4485 647.542 90.4485C658.919 90.4485 669.371 92.3881 678.9 96.2673C688.57 100.008 696.961 105.342 704.071 112.269C711.324 119.058 716.942 127.093 720.924 136.376C724.906 145.519 726.897 155.494 726.897 166.301C726.897 176.969 724.906 186.944 720.924 196.226C716.942 205.37 711.324 213.405 704.071 220.333C696.961 227.121 688.641 232.455 679.113 236.334C669.585 240.213 659.203 242.153 647.968 242.153ZM647.542 212.436C656.643 212.436 664.536 210.496 671.22 206.617C677.904 202.738 683.095 197.334 686.792 190.407C690.632 183.342 692.552 175.237 692.552 166.093C692.552 159.166 691.485 152.931 689.352 147.39C687.219 141.709 684.161 136.86 680.179 132.843C676.198 128.686 671.433 125.569 665.887 123.491C660.483 121.274 654.368 120.166 647.542 120.166C638.582 120.166 630.76 122.106 624.076 125.985C617.392 129.725 612.13 135.059 608.291 141.986C604.593 148.775 602.744 156.811 602.744 166.093C602.744 173.02 603.811 179.324 605.944 185.004C608.077 190.684 611.135 195.603 615.117 199.759C619.099 203.777 623.792 206.894 629.196 209.111C634.742 211.327 640.858 212.436 647.542 212.436ZM715.164 251.297L644.768 182.718L664.18 163.807L734.576 232.386L715.164 251.297ZM811.445 241.945C799.07 241.945 788.12 239.382 778.592 234.256C769.206 229.13 761.81 222.064 756.406 213.059C751.144 203.915 748.514 193.524 748.514 181.887V92.9423H782.218V183.757C782.218 189.576 783.498 194.633 786.058 198.928C788.618 203.222 792.102 206.548 796.511 208.903C801.061 211.119 806.041 212.228 811.445 212.228C817.134 212.228 822.111 211.119 826.377 208.903C830.644 206.548 833.986 203.292 836.403 199.135C838.963 194.841 840.243 189.784 840.243 183.965V92.9423H873.948V182.095C873.948 193.732 871.317 204.054 866.055 213.059C860.793 222.064 853.469 229.13 844.083 234.256C834.697 239.382 823.818 241.945 811.445 241.945ZM883.71 239.659L943.439 92.9423H973.731L1032.82 239.659H997.409L952.185 117.88H964.345L918.481 239.659H883.71ZM917.628 213.059V186.459H999.756V213.059H917.628ZM1091.07 241.945C1078.69 241.945 1068.03 240.006 1059.07 236.126C1050.25 232.109 1042.15 226.082 1034.75 218.047L1056.51 197.057C1061.34 202.461 1066.68 206.686 1072.51 209.734C1078.48 212.643 1085.38 214.098 1093.2 214.098C1100.31 214.098 1105.79 212.851 1109.63 210.357C1113.61 207.864 1115.6 204.4 1115.6 199.967C1115.6 195.949 1114.32 192.693 1111.76 190.199C1109.2 187.706 1105.79 185.558 1101.52 183.757C1097.4 181.956 1092.77 180.224 1087.65 178.562C1082.68 176.899 1077.7 175.029 1072.72 172.951C1067.74 170.734 1063.12 168.033 1058.86 164.846C1054.73 161.521 1051.39 157.434 1048.83 152.585C1046.27 147.597 1044.99 141.363 1044.99 133.882C1044.99 124.876 1047.19 117.118 1051.6 110.607C1056.15 104.095 1062.41 99.1767 1070.37 95.8517C1078.34 92.3881 1087.51 90.6563 1097.89 90.6563C1108.42 90.6563 1118.02 92.4574 1126.69 96.0595C1135.51 99.6616 1142.76 104.58 1148.45 110.814L1126.69 131.804C1122.14 127.232 1117.52 123.837 1112.83 121.621C1108.27 119.404 1103.08 118.296 1097.25 118.296C1091.42 118.296 1086.8 119.404 1083.39 121.621C1079.97 123.699 1078.27 126.747 1078.27 130.765C1078.27 134.505 1079.55 137.553 1082.11 139.908C1084.67 142.125 1088.01 144.065 1092.13 145.727C1096.4 147.39 1101.02 149.052 1106 150.715C1111.12 152.377 1116.17 154.317 1121.15 156.534C1126.12 158.75 1130.67 161.59 1134.8 165.054C1139.06 168.379 1142.48 172.674 1145.04 177.938C1147.6 183.064 1148.88 189.437 1148.88 197.057C1148.88 211.05 1143.76 222.064 1133.52 230.1C1123.28 237.997 1109.13 241.945 1091.07 241.945ZM1170.21 239.659V92.9423H1203.7V239.659H1170.21ZM1263.43 239.659V92.9423H1297.13V239.659H1263.43ZM1190.26 178.354V150.091H1274.52V178.354H1190.26Z" fill="url(#paint0_linear_89_394)"/>
<path d="M151.387 121.948L231.799 0.898932C166.13 37.9139 138.077 37.7558 72.3438 0L151.387 121.948Z" fill="#1F2EEC"/>
<path d="M72 121.948L72.484 243.448H151.729L72 121.948Z" fill="#1F2EEC"/>
<path d="M231.457 121.948L151.728 243.448H231.457V121.948Z" fill="#1F2EEC"/>
<rect y="0.448486" width="7" height="243" rx="3.5" fill="#1F2EEC"/>
<defs>
<linearGradient id="paint0_linear_89_394" x1="1300.57" y1="90.4485" x2="300.026" y2="249.498" gradientUnits="userSpaceOnUse">
<stop offset="0.00907426" stop-color="#C8CCFF"/>
<stop offset="0.436175" stop-color="#9097F6"/>
<stop offset="1" stop-color="#1F2EEC"/>
</linearGradient>
</defs>
</svg>
