<svg width="72" height="72" viewBox="0 0 72 72" fill="none" xmlns="http://www.w3.org/2000/svg">
<path d="M67.999 23.2952C67.9922 20.7656 67.4871 18.2622 66.5125 15.928C65.5381 13.5942 64.1135 11.4753 62.32 9.6922C60.5369 7.89849 58.4178 6.47365 56.0839 5.49909C53.7495 4.52435 51.2459 4.01915 48.7162 4.01238H48.7149H48.6274C43.2096 4.01238 37.9376 6.32046 33.7705 10.4879M67.999 23.2952L67.4995 23.2965L67.999 23.2942C67.999 23.2945 67.999 23.2948 67.999 23.2952ZM67.999 23.2952C68.0243 28.7444 65.7142 34.0504 61.5238 38.2409C57.2885 42.4762 50.8945 45.9253 44.4117 47.4899M44.4117 47.4899C44.4119 47.4899 44.4122 47.4898 44.4124 47.4897L44.2936 47.0041M44.4117 47.4899C44.4114 47.49 44.4112 47.49 44.4109 47.4901L44.2936 47.0041M44.4117 47.4899C42.7742 47.8903 41.1067 48.1561 39.426 48.2848L39.4202 48.2852L39.4202 48.2852C37.1001 48.4356 34.8396 49.084 32.7925 50.1861M44.2936 47.0041C50.6983 45.4585 57.0074 42.0503 61.1702 37.8873C65.2764 33.7811 67.5239 28.5993 67.499 23.2965C67.4924 20.8327 67.0004 18.3943 66.0511 16.1206C65.1018 13.847 63.7138 11.7827 61.9664 10.0457C60.2294 8.2981 58.165 6.90992 55.8912 5.96048C53.6175 5.01105 51.1789 4.51898 48.7149 4.51238H48.6274C43.3554 4.51238 38.2071 6.75802 34.1241 10.8415M44.2936 47.0041C42.6824 47.3981 41.0417 47.6597 39.3878 47.7862C36.9953 47.9414 34.6643 48.6101 32.5534 49.747M34.1241 10.8415L33.7705 10.4879M34.1241 10.8415C29.9645 15.0012 26.5658 21.3221 25.0324 27.7502L34.1241 10.8415ZM33.7705 10.4879C29.5379 14.7206 26.0984 21.1271 24.5462 27.6334M33.7705 10.4879L24.5462 27.6334M24.5462 27.6334C24.1527 29.2622 23.8918 30.9201 23.7661 32.591L23.7661 32.591L23.7657 32.5972C23.6109 35.0645 22.8992 37.4647 21.6839 39.6175C20.8287 41.0958 19.7831 42.4555 18.574 43.6617L18.574 43.6616L18.5694 43.6664L7.42354 55.083C7.42294 55.0836 7.42233 55.0842 7.42173 55.0848C5.55334 56.9606 5.3383 58.9206 5.50611 60.2456L24.5462 27.6334ZM28.4116 53.4814L17.2671 64.8962L17.2629 64.9004L17.2629 64.9004C15.71 66.4537 14.093 66.875 12.8208 66.875C12.5763 66.875 12.3321 66.8596 12.0896 66.8289L28.4116 53.4814ZM28.4116 53.4814C28.4122 53.4808 28.4129 53.4801 28.4135 53.4795M28.4116 53.4814L28.4135 53.4795M32.5534 49.747L32.7947 50.1849C32.794 50.1853 32.7932 50.1857 32.7925 50.1861M32.5534 49.747L32.7905 50.1872C32.7912 50.1868 32.7918 50.1865 32.7925 50.1861M32.5534 49.747L28.4135 53.4795M32.7925 50.1861C31.1849 51.072 29.7107 52.1808 28.4135 53.4795M7.92413 9.02772C7.48463 9.68548 7.25003 10.4588 7.25 11.2499C7.2513 12.3104 7.67316 13.3271 8.42306 14.077C9.17304 14.8269 10.1899 15.2488 11.2505 15.25L7.92413 9.02772ZM7.92413 9.02772C8.36365 8.36993 8.98837 7.85724 9.71927 7.55449M7.92413 9.02772L9.71927 7.55449M9.71927 7.55449C10.4502 7.25174 11.2544 7.17252 12.0304 7.32686M9.71927 7.55449L12.0304 7.32686M12.0304 7.32686C12.8063 7.4812 13.519 7.86217 14.0784 8.42158M12.0304 7.32686L14.0784 8.42158M14.0784 8.42158C14.6378 8.98099 15.0188 9.69372 15.1731 10.4696M14.0784 8.42158L15.1731 10.4696M15.1731 10.4696C15.3275 11.2456 15.2483 12.0498 14.9455 12.7807M15.1731 10.4696L14.9455 12.7807M14.9455 12.7807C14.6428 13.5116 14.1301 14.1364 13.4723 14.5759M14.9455 12.7807L13.4723 14.5759M13.4723 14.5759C12.8146 15.0153 12.0415 15.2499 11.2506 15.25L13.4723 14.5759ZM11.25 20.75H11.2506C13.7691 20.7472 16.1837 19.7454 17.9646 17.9646C19.7454 16.1837 20.7472 13.7691 20.75 11.2506L20.2504 11.25H20.75C20.75 9.37108 20.1928 7.53435 19.149 5.97209C18.1051 4.40982 16.6214 3.19218 14.8855 2.47315C13.1496 1.75412 11.2395 1.56598 9.39665 1.93254C7.55383 2.2991 5.86109 3.20389 4.53249 4.53249C3.20389 5.86109 2.2991 7.55383 1.93254 9.39665C1.56598 11.2395 1.75412 13.1496 2.47315 14.8855C3.19218 16.6214 4.40982 18.1051 5.97209 19.149C7.53435 20.1928 9.37108 20.75 11.25 20.75ZM23.697 46.2241C24.5422 45.2491 25.3103 44.21 25.9944 43.1162C26.7762 44.2849 27.7801 45.2887 28.9489 46.0702C27.8551 46.7544 26.8159 47.5225 25.8408 48.3678L23.697 46.2241ZM21.9363 52.2415L13.3638 61.0218L11.3274 58.9572L19.8858 50.191L21.9363 52.2415ZM57.6354 34.3527C54.1605 37.8275 48.5943 40.8237 43.1214 42.1444C40.4022 42.8006 37.9252 42.9917 35.8716 42.7549C33.8124 42.5174 32.2219 41.8557 31.2156 40.8496C30.1407 39.7746 29.4942 38.0922 29.2806 35.9853C29.0678 33.8853 29.2912 31.4156 29.903 28.835C31.1279 23.6688 33.8873 18.1491 37.6597 14.3767C41.0943 10.9421 44.9673 9.52989 48.5828 9.52982C52.2711 9.5319 55.8098 10.9878 58.4316 13.5818C63.2629 18.4138 64.6601 27.3278 57.6354 34.3527Z" fill="#FAFAFF" stroke="#FAFAFF"/>
</svg>
