<svg width="30" height="30" viewBox="0 0 30 30" fill="none" xmlns="http://www.w3.org/2000/svg">
<path fill-rule="evenodd" clip-rule="evenodd" d="M20.3337 11C20.3337 12.4144 19.7718 13.771 18.7716 14.7712C17.7714 15.7714 16.4148 16.3333 15.0003 16.3333C13.5858 16.3333 12.2293 15.7714 11.2291 14.7712C10.2289 13.771 9.66699 12.4144 9.66699 11C9.66699 9.58547 10.2289 8.22892 11.2291 7.22872C12.2293 6.22853 13.5858 5.66663 15.0003 5.66663C16.4148 5.66663 17.7714 6.22853 18.7716 7.22872C19.7718 8.22892 20.3337 9.58547 20.3337 11V11ZM17.667 11C17.667 11.7072 17.386 12.3855 16.8859 12.8856C16.3858 13.3857 15.7076 13.6666 15.0003 13.6666C14.2931 13.6666 13.6148 13.3857 13.1147 12.8856C12.6146 12.3855 12.3337 11.7072 12.3337 11C12.3337 10.2927 12.6146 9.61444 13.1147 9.11434C13.6148 8.61424 14.2931 8.33329 15.0003 8.33329C15.7076 8.33329 16.3858 8.61424 16.8859 9.11434C17.386 9.61444 17.667 10.2927 17.667 11V11Z" fill="#1F2EEC"/>
<path fill-rule="evenodd" clip-rule="evenodd" d="M15.0002 0.333313C6.90016 0.333313 0.333496 6.89998 0.333496 15C0.333496 23.1 6.90016 29.6666 15.0002 29.6666C23.1002 29.6666 29.6668 23.1 29.6668 15C29.6668 6.89998 23.1002 0.333313 15.0002 0.333313ZM3.00016 15C3.00016 17.7866 3.95083 20.352 5.54416 22.3893C6.66314 20.9198 8.1067 19.729 9.76207 18.9097C11.4175 18.0905 13.2398 17.665 15.0868 17.6666C16.9099 17.6649 18.7094 18.0793 20.3481 18.8784C21.9868 19.6774 23.4214 20.8399 24.5428 22.2773C25.6981 20.7621 26.4759 18.9936 26.812 17.1181C27.1481 15.2426 27.0327 13.314 26.4755 11.492C25.9182 9.66989 24.9351 8.00671 23.6075 6.64003C22.2798 5.27335 20.6458 4.24246 18.8407 3.63266C17.0355 3.02286 15.1111 2.85168 13.2266 3.13328C11.3422 3.41488 9.55188 4.14117 8.00385 5.25205C6.45582 6.36293 5.19458 7.82647 4.32447 9.52157C3.45436 11.2167 3.0004 13.0946 3.00016 15V15ZM15.0002 27C12.2454 27.0041 9.57385 26.0564 7.4375 24.3173C8.2974 23.0863 9.44195 22.0812 10.7738 21.3876C12.1056 20.6939 13.5852 20.3322 15.0868 20.3333C16.5697 20.3321 18.0315 20.6847 19.3507 21.3619C20.67 22.039 21.8086 23.0211 22.6722 24.2266C20.5192 26.0222 17.8036 27.0039 15.0002 27V27Z" fill="#1F2EEC"/>
</svg>
