<svg width="28" height="26" viewBox="0 0 28 26" fill="none" xmlns="http://www.w3.org/2000/svg">
<path d="M8.875 18.5V19.875C8.875 20.969 9.3096 22.0182 10.0832 22.7918C10.8568 23.5654 11.906 24 13 24H22.625C23.719 24 24.7682 23.5654 25.5418 22.7918C26.3154 22.0182 26.75 20.969 26.75 19.875V6.125C26.75 5.03098 26.3154 3.98177 25.5418 3.20818C24.7682 2.4346 23.719 2 22.625 2H13C11.906 2 10.8568 2.4346 10.0832 3.20818C9.3096 3.98177 8.875 5.03098 8.875 6.125V7.5M15.75 18.5L21.25 13L15.75 18.5ZM21.25 13L15.75 7.5L21.25 13ZM21.25 13H2H21.25Z" stroke="#1F2EEC" stroke-width="2.5" stroke-linecap="round" stroke-linejoin="round"/>
</svg>
